<svg width="200" height="200" viewBox="0 0 200 200" fill="none" xmlns="http://www.w3.org/2000/svg">
<circle cx="108.713" cy="102.5" r="42.5" fill="#409AF0"/>
<path d="M102.915 70.2331C100.927 70.2331 101.051 73.5601 101.051 74.8941C101.051 77.1447 100.468 79.4885 103.468 79.5552C105.258 79.595 107.83 78.2414 108.181 76.3097C108.338 75.445 108.352 74.2727 107.266 74.2727C104.589 74.2727 104.999 78.5348 107.335 79.3135C108.023 79.543 111.032 80.0434 111.599 79.3826C112.201 78.6799 112.5 76.7825 113.17 76.4478" stroke="white" stroke-width="1.70601" stroke-linecap="round"/>
<path d="M79.3115 100.111C79.3969 100.496 80.2552 100.992 80.5665 101.185C81.5708 101.805 82.728 102.26 83.8526 102.605C85.7837 103.197 87.5263 103.563 89.5578 103.67C92.1758 103.808 94.578 103.012 96.6996 101.598" stroke="black" stroke-width="2.4" stroke-linecap="round"/>
<path d="M116.763 100.409C119.007 102.653 122.017 102.935 125.052 102.935C127.065 102.935 128.931 102.335 130.823 101.664C131.793 101.32 132.73 100.831 133.705 100.524C134.043 100.418 135.048 99.9516 135.191 99.6656" stroke="black" stroke-width="2.4" stroke-linecap="round"/>
<path d="M98.8337 111.34C98.8337 115.724 104.843 115.624 107.86 115.624C109.345 115.624 111.412 115.21 112.597 114.247C113.196 113.76 113.826 113.094 114.274 112.474C114.425 112.265 114.658 111.639 114.846 111.544" stroke="black" stroke-width="2.4" stroke-linecap="round"/>
<path d="M82.0604 108.954C79.7709 108.954 76.2518 108.587 75.1889 111.186C75.0136 111.614 74.5899 112.4 74.9148 112.869C75.4826 113.689 76.7538 114.074 77.6556 114.328C80.057 115.003 83.7493 114.9 85.8485 113.447C86.6378 112.9 87.8178 111.38 86.5631 110.716C85.1255 109.955 83.4606 110.187 81.8842 110.187C81.2263 110.187 79.2845 109.861 79.0749 110.804C78.4112 113.791 83.2089 112.788 84.5956 112.223C85.0544 112.036 85.6555 111.892 86.0247 111.597C86.5152 111.204 83.9443 110.894 83.7831 110.892C81.6341 110.865 79.4101 110.692 77.3423 111.381C76.9771 111.503 76.7058 112.154 77.0291 112.478C77.6389 113.087 79.3495 112.951 80.1027 112.742C80.3655 112.669 80.8873 112.381 80.553 112.047C80.0717 111.566 78.883 111.773 78.2918 111.773C77.9338 111.773 77.3596 111.827 77.6752 112.38C78.1488 113.209 80.043 111.728 80.2985 111.244C80.8308 110.236 81.0515 109.659 82.2366 109.659C83.0294 109.659 83.8223 109.659 84.6152 109.659C85.4548 109.659 83.4457 109.306 83.0294 109.306C82.0038 109.306 83.1913 109.392 83.6265 109.57C84.1764 109.795 84.699 110.186 85.2318 110.363" stroke="#0A60BD" stroke-width="2.4" stroke-linecap="round"/>
<path d="M138.089 107.544C136.729 107.544 134.209 108.146 133.332 109.346C132.706 110.202 132.627 110.495 132.627 111.636C132.627 114.612 140.394 113.291 141.867 112.732C143.048 112.284 143.551 112.023 143.551 110.794C143.551 109.821 143 109.547 142.142 109.13C141.669 108.901 141.098 108.9 140.595 108.739C140.191 108.609 139.739 108.271 139.322 108.249C138.513 108.207 137.451 108.099 136.689 108.337C135.594 108.68 133.735 109.899 134.741 111.156C134.933 111.396 135.814 111.244 136.063 111.244C137.105 111.244 137.972 110.856 138.97 110.638C139.702 110.478 140.517 110.28 141.261 110.197C142.667 110.041 140.551 109.924 140.106 109.874C139.373 109.793 137.113 109.417 136.543 110.05C136.122 110.518 136.086 111.949 136.866 111.949C138.28 111.949 141.314 112.372 142.142 110.716" stroke="#0A60BD" stroke-width="2.4" stroke-linecap="round"/>
<path d="M96.3629 145.292C96.3629 146.633 95.5342 147.519 95.2294 148.738C94.869 150.18 94.7639 152.278 94.7307 153.77C94.6808 156.015 94.3227 158.095 94.3227 160.299C94.3227 160.925 94.1549 161.848 94.4133 162.43C94.9039 163.534 93.5054 163.443 92.5998 163.745C90.8944 164.313 89.5726 164.47 87.7939 164.47" stroke="white" stroke-width="2.4" stroke-linecap="round"/>
<path d="M116.765 145.292C116.765 151.07 120.515 155.998 120.846 161.614C121.011 164.418 126.767 163.246 129.006 163.246" stroke="white" stroke-width="2.4" stroke-linecap="round"/>
<path d="M74.7753 62.9073C72.1068 62.9073 69.9887 62.4719 68.5398 60.0917C67.8664 58.9853 66.4254 57.6073 66.4254 56.208C66.4254 55.1719 66.1226 58.2964 65.6487 59.2178C64.937 60.6016 64.0613 61.6189 62.6496 62.3248C61.387 62.9561 60.1236 62.9073 58.7552 62.9073C58.595 62.9073 57.9978 63.1963 58 63.1986C58.3665 63.5651 59.7891 63.598 60.2978 63.7811C61.6675 64.2742 63.0562 64.7038 63.901 65.9711C64.318 66.5966 64.5526 67.2797 64.8719 67.9561C65.1385 68.5206 65.6137 69.4797 65.6487 70.0921C65.6883 70.7854 65.7789 71.638 65.9399 72.3144C66.0427 72.7461 65.9516 74.0745 66.0478 73.6413C66.3959 72.075 67.6878 70.6851 68.4643 69.3046C69.1884 68.0173 70.1849 67.1882 71.28 66.2084C72.0631 65.5077 73.2444 65.3138 74.1927 64.8923C74.7526 64.6435 75.7088 64.7017 76.1346 64.1695C76.2924 63.9722 76.7401 63.8782 76.9868 63.8782C77.3644 63.8782 76.2317 63.8782 75.8541 63.8782C75.1066 63.8782 74.2593 63.2957 73.416 63.2957C72.5745 63.2957 71.7331 63.2957 70.8916 63.2957" stroke="#F49D0C" stroke-width="2.4" stroke-linecap="round"/>
<path d="M67.008 60.5771C68.2841 60.6932 70.3937 63.4052 69.144 64.655C67.8748 65.9241 65.5556 63.5723 65.3035 62.3679C65.1376 61.5755 65.8223 61.5583 66.4686 61.5481C67.7473 61.5278 68.6346 61.7375 69.5216 62.7132C69.8477 63.0719 70.6064 63.983 70.2659 64.5363C69.8489 65.214 68.0341 64.784 67.5258 64.5363C67.2216 64.3881 65.8843 63.5516 66.2744 63.0152C67.0038 62.0122 70.3932 62.8696 71.2368 63.2957C71.9439 63.6528 72.8183 64.1888 72.9845 65.0434C73.1698 65.9962 71.5094 66.1179 70.9348 66.1653C69.4837 66.285 68.1996 65.8308 67.0943 64.8923C66.8929 64.7213 66.2164 63.766 66.8569 63.6949C67.659 63.6058 68.1726 64.0487 68.3457 64.8276C68.5093 65.5641 67.0639 65.2012 66.7167 65.1081C65.8083 64.8644 64.996 64.1222 64.4081 63.4036C63.9625 62.859 65.1313 63.3284 65.2603 63.4252C65.846 63.8644 67.8633 66.9852 66.2204 66.9852C65.338 66.9852 64.8516 66.2908 64.6993 65.4533C64.5322 64.5339 65.1238 64.6304 65.886 64.655C67.0501 64.6925 69.57 67.3306 67.9789 68.1503C66.858 68.7277 66.2936 66.9835 66.9432 66.6292C68.043 66.0293 69.1655 68.3236 68.1623 69.0133C67.1158 69.7328 67.008 69.0744 67.008 68.1503" stroke="#F49D0C" stroke-width="2.4" stroke-linecap="round"/>
<path d="M155.895 151.406C154.311 151.406 153.644 150.522 152.748 149.369C152.071 148.499 150.937 146.942 150.897 145.811C150.877 145.246 150.897 143.548 150.897 144.114C150.897 144.991 150.423 146.178 149.971 146.922C148.513 149.323 146.324 149.184 143.718 149.184C142.5 149.184 143.003 149.336 143.955 149.729C145.566 150.396 146.506 150.922 147.523 152.332C149.022 154.407 148.86 156.534 148.86 158.996C148.86 159.341 148.514 160.268 148.758 160.025C149.505 159.277 149.876 157.972 150.424 157.073C150.833 156.402 151.231 155.636 151.73 155.026C152.066 154.616 152.476 154.668 152.851 154.368C154.051 153.408 155.866 153.072 157.376 153.072C157.834 153.072 158.544 153.205 158.95 152.979C159.22 152.829 159.523 152.791 159.783 152.661C160.078 152.513 158.624 152.517 158.425 152.517C157.741 152.517 157.146 152.229 156.636 151.776C156.228 151.413 155.525 151.571 155.062 151.313C154.442 150.969 153.865 150.85 153.16 150.85C151.504 150.85 152.037 152.131 151.452 153.154C151.309 153.405 150.549 153.255 150.352 153.144C149.706 152.781 149.641 151.39 149.868 150.789C150.095 150.19 151.019 150.208 151.493 150.419C152.434 150.835 152.755 151.908 152.542 152.866C152.432 153.365 151.398 153.568 150.989 153.391C150.182 153.04 150.094 151.599 150.197 150.85C150.3 150.108 150.837 149.801 151.596 149.966C152.633 150.191 152.859 151.725 152.923 152.589C153.049 154.284 149.557 154.34 149.272 152.599C149.092 151.502 150.681 148.713 150.516 150.943C150.484 151.373 150.403 151.961 149.879 151.961C149.345 151.961 149.568 149.967 149.724 149.637C149.95 149.159 151 147.99 150.815 148.485C150.714 148.753 149.471 149.581 149.148 149.627C148.847 149.67 149.386 149.15 149.498 149.102C149.606 149.056 148.901 149.771 148.675 149.884C148.15 150.146 147.742 150.556 148.038 151.231C148.695 152.733 150.947 153.527 149.971 155.479" stroke="#FBD24E" stroke-width="2.4" stroke-linecap="round"/>
<path d="M147 173C147.077 173.615 148.54 173.404 147.732 173" stroke="white" stroke-width="2.4" stroke-linecap="round"/>
<path d="M46 74.2458C46.0679 74.7891 47.2243 74.3664 46.4916 74" stroke="white" stroke-width="2.4" stroke-linecap="round"/>
<path d="M65.1884 127.423C64.2694 125.815 60.2307 129.816 59.7172 130.388C57.4626 132.903 56.0225 135.913 54.6038 138.953C53.0104 142.368 52.1127 146.013 51.6381 149.742C51.3827 151.749 50.5868 156.022 51.6381 157.975C52.9865 160.479 57.5584 160.937 59.8961 161.196C65.5684 161.827 67.9615 160.512 71.8869 156.364C74.9356 153.143 77.9349 150.045 80.3239 146.291C81.676 144.166 81.2954 140.841 81.2954 138.468C81.2954 135.765 81.8171 131.885 79.8125 129.698C78.0498 127.775 75.0365 125.348 72.3215 125.147C66.1669 124.691 59.9012 126.559 57.5696 132.945C54.6039 141.068 52.3028 150.024 52.3028 158.716C52.3028 161.516 54.9874 161.821 57.4673 162.142C59.6853 162.43 62.7204 162.797 64.7282 161.529C67.6697 159.671 69.36 155.599 70.8642 152.631C73.9496 146.544 77.085 137.613 75.6707 130.542C75.2406 128.391 74.7482 127.729 72.5516 127.883C67.2311 128.256 63.1637 134.985 61.1489 139.235C59.4264 142.868 53.0361 157.604 61.2512 157.694C67.555 157.762 84.5954 139.494 75.3128 134.786C71.9114 133.061 69.2033 132.717 66.8247 136.218C62.7651 142.193 60.1471 149.24 58.8479 156.313C58.355 158.996 62.7731 157.947 64.3703 157.387C70.5497 155.221 74.6699 146.692 75.2105 140.564C75.6415 135.68 70.3683 135.559 67.5917 138.161C63.7203 141.788 61.2107 148.579 61.5068 153.91C61.5933 155.466 63.6297 155.052 64.5748 154.549C68.2453 152.597 70.4764 147.171 72.3982 143.734C73.4739 141.81 75.2737 138.75 74.7248 136.371C74.2808 134.447 71.3978 136.962 71.0176 137.394C68.1717 140.623 63.859 146.145 63.859 150.791C63.859 152.133 66.5124 148.564 66.569 148.49C68.5159 145.931 70.1668 143.167 71.5289 140.257C73.9309 135.126 70.3281 140.049 69.1001 141.996C67.5241 144.494 66.1688 147.192 65.035 149.921C64.2507 151.81 66.0357 149.809 66.3645 149.384C67.1593 148.359 71.7286 140.409 67.5661 142.814C62.2124 145.907 57.3677 153.714 55.7799 159.611C55.361 161.167 56.2009 161.134 57.3139 160.097C60.2693 157.343 62.6922 153.54 64.626 150.024C65.2482 148.892 70.6678 138.384 66.0833 139.132C60.2891 140.078 56.7756 145.656 55.1663 150.842C53.9674 154.705 55.761 158.865 60.4075 156.415C66.5097 153.198 68.6239 143.22 68.8445 136.934C68.8985 135.392 69.218 133.276 67.1826 133.047C64.8406 132.784 61.9575 133.714 60.1518 135.195C55.5775 138.946 48.1279 157.728 60.1518 156.313C62.6342 156.021 64.1305 153.072 65.1884 151.149C67.4932 146.958 68.9729 142.318 70.1484 137.701C71.3784 132.868 72.7943 124.286 64.7794 125.838C61.9648 126.382 60.1508 129.45 58.7712 131.667C56.2916 135.652 54.3606 139.989 53.4278 144.604C52.8235 147.593 50.8071 157.159 55.1152 158.409C59.9329 159.808 63.0455 158.18 64.626 153.654C66.1686 149.237 67.8099 142.47 66.0066 137.854C64.1855 133.192 61.2115 138.676 60.024 140.871C59.0186 142.729 53.2797 151.801 55.9333 154.012C64.1893 160.892 68.8117 136.901 64.0635 132.792C58.2295 127.743 48.6637 150.189 58.1832 154.83C62.1852 156.781 64.876 156.064 65.9043 151.507C67.2029 145.75 69.0708 136.825 66.927 131.053C65.0619 126.032 60.8278 139.927 60.5864 140.717C60.0096 142.607 56.1237 153.186 58.8479 155.035C63.6694 158.306 68.833 135.393 59.4615 136.934C54.1384 137.809 53.3407 147.55 53.2488 151.455C53.1496 155.672 54.3231 161.702 60.1007 160.813C64.803 160.089 69.2442 151.786 70.6597 147.697C71.7958 144.415 71.8936 140.593 67.2593 141.28C62.2161 142.027 60.3279 157.905 64.5237 157.233C66.8714 156.858 68.4375 152.507 69.3302 150.791C71.7705 146.098 73.8285 141.308 74.7248 136.064C75.0654 134.072 76.3103 128.823 74.0856 127.269C71.5627 125.507 68.5155 129.342 67.336 130.977C65.2619 133.851 59.9287 142.499 62.9897 146.24C65.6635 149.508 72.3918 147.648 74.5969 144.91C76.5044 142.542 78.7578 137.801 75.3384 135.578C71.5532 133.118 68.764 140.541 68.0519 142.839C67.1264 145.826 65.6391 155.035 71.6312 151.2C74.9781 149.058 77.7557 143.749 77.128 139.669C77.0436 139.12 76.5163 138.739 76.2332 139.439C75.3449 141.636 75.0848 144.149 74.3924 146.419C74.341 146.587 72.8714 150.517 73.3186 150.484C74.7718 150.376 76.373 147.467 77.0513 146.419C77.325 145.996 79.0684 142.69 77.6138 142.609C75.443 142.489 74.3543 146.722 74.0345 148.285C73.4855 150.969 78.7031 147.318 79.3523 146.291C81.4515 142.971 80.8871 139.893 78.9944 136.627C78.4407 135.671 76.6439 130.784 75.3128 130.644C72.7468 130.374 72.5982 133.718 72.5516 135.604C72.5136 137.144 72.3223 141.801 75.2105 140.666C76.7876 140.047 77.1023 136.784 77.1536 135.348C77.2089 133.799 76.8983 135.291 77.6138 135.246C78.4388 135.195 78.074 132.629 78.074 132.025C78.074 130.216 78.5973 134.059 78.8921 134.428C79.4277 135.097 79.3524 135.656 78.8921 133.866C78.6925 133.089 78.129 131.762 77.5115 131.207C76.0609 129.901 74.2949 130.184 72.4493 130.184C69.2526 130.184 66.7167 131.086 65.4441 134.326C64.6155 136.435 63.8725 138.462 66.8503 137.701C69.5351 137.014 72.3066 134.266 73.651 131.846C74.0275 131.168 71.4814 131.95 71.4267 131.974C69.0321 132.992 67.0075 134.926 65.2651 136.806C64.8669 137.235 60.3749 142.421 61.967 139.874C63.9513 136.699 58.6386 143.529 58.311 143.939C56.6219 146.05 54.684 147.887 52.9164 149.921C52.5987 150.287 51.8938 151.705 51.8938 150.356C51.8938 145.526 53.8987 144.467 56.8281 141.996C57.3095 141.59 60.5541 138.549 60.5097 138.749C60.3939 139.27 59.673 139.972 59.2058 140.206C58.4777 140.57 59.1947 138.546 59.4615 137.777C60.2278 135.569 63.0993 130.367 65.8787 129.749C66.9629 129.508 68.2996 129.724 69.4069 129.724C70.9098 129.724 66.1428 129.15 64.9072 130.005C63.6001 130.91 62.3252 131.989 61.1489 133.047C59.2485 134.758 65.2462 129.988 67.2849 128.445C68.8437 127.266 68.87 128.329 68.87 129.826C68.87 135.911 68.87 141.996 68.87 148.081C68.87 151.08 68.87 154.08 68.87 157.08C68.87 158.195 69.0299 159.711 68.4098 160.71C67.9742 161.412 66.1088 162.457 66.1088 161.631C66.1088 159.198 68.053 157.785 69.6882 156.313C70.8191 155.295 66.7454 156.948 66.4156 157.131C65.3887 157.702 61.884 160.519 62.0693 160.455C67.1133 158.716 70.3532 156.431 73.2675 152.018C74.5252 150.113 76.2332 147.265 76.2332 144.91C76.2332 144.091 75.7565 141.877 76.3355 142.456C76.893 143.013 76.6934 144.2 76.6934 144.91" stroke="#CAE5FF" stroke-width="3" stroke-linecap="round"/>
<path d="M59.5837 130.083C58.7394 130.132 57.8905 130.797 57.1434 131.156C56.0467 131.684 54.851 131.725 53.6834 132.035C52.5175 132.345 50.547 131.763 49.5294 132.328C48.6379 132.823 49.0619 134.007 49.4317 134.768C50.0312 136.002 50.8965 136.264 52.0565 137.003C52.8343 137.498 54.6565 137.569 55.5815 137.285C56.2084 137.092 56.6219 136.387 57.0457 135.94C57.6776 135.273 56.616 135.549 56.0696 135.549C55.3 135.549 53.8142 135.839 53.1628 135.332C52.6161 134.907 52.7173 134.573 51.9697 134.573C50.78 134.573 53.7113 134.573 53.9221 134.573C54.4812 134.573 56.9696 134.921 57.241 134.378" stroke="#CAE5FF" stroke-width="3" stroke-linecap="round"/>
<path d="M50.4079 133.597C51.0421 133.99 53.8645 135.831 54.6596 135.115C55.2073 134.622 55.6034 133.904 56.1997 133.467C58.0433 132.115 59.9803 130.847 62.0133 129.79C62.6783 129.444 63.4948 128.716 64.2693 128.716" stroke="#CAE5FF" stroke-width="3" stroke-linecap="round"/>
<path d="M80.4734 129.692C80.5625 130.093 82.1898 130.607 82.621 130.712C83.8617 131.014 85.2042 131.449 86.4822 131.449C87.338 131.449 88.2092 131.399 89.0636 131.449C89.4103 131.47 89.2588 132.492 89.2588 132.751C89.2588 137.38 85.8817 139.484 81.3628 138.662C80.5921 138.522 80.5466 137.936 81.3954 137.881C83.0383 137.775 86.0468 137.309 87.0028 135.744C87.2165 135.395 87.9836 134.203 87.1764 133.987C85.9314 133.655 84.4903 133.597 83.2067 133.597C81.9346 133.597 81.8943 133.77 82.0461 135.137C82.1855 136.392 84.495 134.63 84.8444 134.28C85.3063 133.818 84.4506 133.803 84.1828 133.879C83.1845 134.162 82.4205 135.329 81.9702 136.2C81.2145 137.661 83.255 137.21 83.5971 136.525" stroke="#CAE5FF" stroke-width="3" stroke-linecap="round"/>
<path d="M59.0966 127.068C59.0966 127.29 57.1963 125.364 56.9489 124.904C56.3683 123.826 56.0603 121.371 55.9391 120.16C55.5962 116.731 53.9036 121.871 53.9036 123.173C53.9036 123.718 53.6432 125.156 53.9677 125.561C54.4457 126.159 54.9115 126.657 55.282 127.356C55.497 127.763 56.3438 128.484 56.7886 128.51C57.7751 128.568 57.9224 127.779 57.0771 127.356" stroke="#FBD24E" stroke-width="3" stroke-linecap="round"/>
<path d="M79.4495 127.462C81.0741 127.462 81.5653 125.751 82.4092 124.612C83.1819 123.568 84.2959 122.677 84.8338 121.477C84.936 121.249 85.3033 119.874 85.642 120.483C86.1696 121.433 86.8164 122.059 86.9089 123.17C87.0355 124.689 86.6168 125.824 85.8168 127.069C85.0732 128.226 82.7427 128.896 81.5027 129.188C80.4336 129.439 81.7732 128.137 81.9614 127.899C82.6898 126.98 83.4027 125.899 84.2113 125.059C84.7216 124.529 85.1554 123.233 85.7403 122.941" stroke="#FBD24E" stroke-width="3" stroke-linecap="round"/>
<path d="M69.8003 140.117C68.8059 140.338 68.9638 142.661 68.9638 143.417C68.9638 144.573 70.5586 143.043 70.7996 142.627C72.113 140.358 67.6973 141.16 68.5687 143.556C68.7207 143.974 69.6946 143.963 70.0095 143.789C70.8277 143.336 70.959 142.21 71.1598 141.407C71.3985 140.452 70.2702 139.275 69.3937 140.152C68.6823 140.863 67.9678 143.002 69.3007 143.347C70.0001 143.528 71.4162 143.707 71.8453 142.952C72.2476 142.245 72.0551 141.108 71.2179 140.791C69.6669 140.203 68.9858 142.062 68.9638 143.254C68.9582 143.553 68.7786 144.444 69.2078 144.497C70.1228 144.612 70.8521 143.76 71.3341 143.091C72.2176 141.867 71.6963 141.112 70.2651 141.163C69.5226 141.189 69.4286 142.021 69.3937 142.615C69.3328 143.65 69.3212 144.163 70.4394 144.393C72.6339 144.845 72.9621 141.097 71.4735 140.14C69.9436 139.157 68.9408 140.016 68.7662 141.674C68.737 141.952 68.5905 142.896 68.9405 142.999C69.7762 143.244 70.5204 142.74 71.0204 142.115C71.7776 141.169 71.307 140.228 70.2186 140.954" stroke="black" stroke-width="3" stroke-linecap="round"/>
<path d="M52.5533 138.945C52.5533 137.606 53.5517 135.554 54.473 134.582C54.9384 134.091 55.4143 133.746 55.6947 133.186" stroke="#409AF0" stroke-width="3" stroke-linecap="round"/>
<path d="M85.058 146.386C89.767 146.072 94.0809 144.376 98.8928 144.319C105.596 144.241 113.248 142.51 119.846 144.319C126.492 146.142 135.173 151.771 135.173 159.302C135.173 161.477 135.372 163.353 134.111 165.244C132.231 168.064 127.338 172.447 124.209 173.769C119.658 175.69 115.457 177.221 110.489 177.787C105.838 178.317 99.0548 178.774 94.9031 176.352C91.057 174.108 87.6038 172.069 84.0534 169.406C81.3318 167.365 80.7432 165.3 79.3748 162.402C77.6197 158.686 77.5153 152.019 82.7618 151.065C84.7445 150.704 87.0765 151.292 88.9329 150.261C90.2757 149.515 79.8683 150.206 80.5229 148.969C81.3763 147.357 84.9562 147.328 86.608 147.419C90.0922 147.613 85.5041 149.773 86.407 149.974C87.17 150.143 88.7214 149.603 89.3634 150.031C89.4279 150.074 88.1186 151.079 88.1005 151.093C87.1415 151.878 86.1841 152.627 85.1441 153.303C82.9334 154.74 85.3575 155.622 87.0959 155.887C90.1929 156.359 96.3091 157.027 98.6345 154.165C100.717 151.601 92.2324 154.26 91.3439 154.997C89.5205 156.51 87.6876 163.569 89.7653 165.416C93.1912 168.461 99.0836 167.072 101.218 163.436C102.347 161.512 103.924 157.056 100.672 156.317C97.7339 155.649 96.8466 158.278 96.5392 160.738C96.0196 164.894 97.4697 166.532 101.935 166.191C104.482 165.997 107.314 164.197 107.676 161.484C108.113 158.203 102.588 158.338 100.902 159.676C99.1998 161.026 98.023 165.325 99.4669 167.224C102.522 171.245 110.319 166.47 112.584 163.952C113.952 162.433 117.727 157.233 113.904 156.49C109.904 155.712 107.682 159.972 107.389 163.493C106.459 174.646 122.904 166.369 122.774 157.867C122.719 154.311 117.182 154.863 115.253 156.375C113.231 157.96 108.452 166.026 112.125 167.971C115.72 169.874 120.495 167.834 122.659 164.785C123.763 163.229 124.361 161.094 122.228 160.135C119.75 159.02 118.03 160.533 117.406 162.89C116.181 167.52 122.071 167.555 125.242 166.191C126.487 165.656 131.023 162.328 129.146 160.451C128.683 159.988 125.917 159.247 125.472 160.049C125.224 160.494 125.084 162.933 125.472 163.321C126.918 164.767 128.5 160.254 128.686 159.589C129.823 155.531 124.55 157.502 125.414 159.015C126.126 160.26 129.055 156.719 124.84 156.719" stroke="#CAE5FF" stroke-width="3" stroke-linecap="round"/>
<path d="M96.2637 149.319C94.8204 149.229 93.1879 148.887 91.7696 149.301C89.5332 149.952 88.3651 153.966 89.2988 155.967C89.8439 157.135 91.6562 157.178 92.7207 157.235C96.5022 157.438 99.9155 156.361 102.958 154.093C104.973 152.591 107.012 150.604 108.03 148.256C108.772 146.547 108.226 145.911 106.473 145.823C103.53 145.675 100.104 145.932 98.865 149.096C98.4699 150.104 98.2666 151.537 98.6133 152.592C99.1982 154.372 101.935 153.704 103.163 153.291C105.016 152.668 107.009 151.72 108.217 150.121C108.947 149.154 110.736 146.616 109.205 145.581C108.048 144.798 106.048 145.234 104.851 145.637C103.168 146.202 101.542 147.318 100.87 149.021C100.672 149.52 100.245 150.801 100.459 151.352C100.824 152.29 104.144 151.58 104.711 151.445C106.464 151.029 107.757 149.817 108.571 148.238C109.187 147.043 108.738 146.246 107.48 145.991C103.966 145.279 99.917 146.65 98.2963 150.009C98.1599 150.292 97.7296 151.247 98.0911 151.557C98.2932 151.73 99.0402 151.757 99.2473 151.576C99.4833 151.369 98.6735 151.291 98.3615 151.259C97.0616 151.125 95.7411 151.157 94.4362 151.165C94.2531 151.167 91.5475 151.459 92.9724 152.005C94.3822 152.545 97.4773 153.131 97.9979 151.072C98.5019 149.079 93.2208 149.609 92.3011 149.795C91.5044 149.956 90.7747 150.37 90.5203 151.184C90.3842 151.619 90.2244 152.63 90.6974 152.937C91.6269 153.541 93.4884 152.943 94.3803 152.592C96.1941 151.878 97.7565 150.422 98.7811 148.779C99.2127 148.086 99.3324 147.596 98.4081 147.511C96.923 147.373 95.2778 147.366 93.7929 147.511C92.0521 147.68 90.6176 148.64 90.7254 150.494C90.8508 152.651 95.0356 150.871 95.8907 150.159C96.3788 149.752 97.1209 149.127 97.2707 148.462C97.5263 147.326 96.4311 147.333 95.611 147.315C92.8563 147.253 89.7707 147.554 88.208 150.159C87.8337 150.782 87.4986 151.557 87.5366 152.303C87.6031 153.606 89.3616 153.642 90.3151 153.608C93.0559 153.511 95.9614 151.196 97.4664 148.993C97.77 148.549 98.322 147.604 97.5597 147.277C96.2348 146.71 94.0264 146.908 92.6461 147.082C90.7163 147.324 87.4298 148.884 87.6112 151.333C87.8266 154.24 92.9434 152.684 94.3989 152.117C94.9849 151.888 95.7893 151.499 96.1145 150.904C96.569 150.074 92.9695 150.099 92.8605 150.093C90.1377 149.947 85.8477 149.706 84.7582 152.974C83.9944 155.266 86.3102 155.598 88.0868 155.492C89.0043 155.437 91.4961 153.975 89.7184 153.086C88.6912 152.573 87.1897 152.552 86.0821 152.452C84.9522 152.35 83.5962 152.172 82.5578 152.769C81.1772 153.562 79.7686 156.783 81.0753 158.158C82.449 159.604 85.2276 158.942 86.1194 157.375C86.9598 155.899 87.2797 153.489 85.215 153.03C82.9941 152.537 81.7342 153.939 81.4389 156.032C81.1354 158.185 81.3801 160.149 83.9936 160.321C86.9335 160.515 90.0756 158.065 90.9958 155.343C91.7744 153.039 88.2317 153.501 87.1264 154.429C86.0593 155.325 85.4278 156.683 85.2617 158.046C85.1641 158.847 85.0489 160.581 85.8211 161.161C86.5827 161.732 87.9898 161.647 88.7674 161.571C90.3015 161.421 92.6506 160.884 94.1006 160.34C95.8999 159.665 97.1208 158.388 95.0516 157.226C93.7905 156.517 89.3663 154.805 88.1147 156.405C86.8249 158.055 86.5065 163.107 88.7581 164.163C91.5022 165.449 92.8054 161.851 91.9188 159.743C91.2688 158.198 86.7112 155.612 85.1031 156.946C82.6926 158.946 82.9233 164.09 84.0309 166.587C85.5982 170.12 90.6594 168.939 90.5855 165.049C90.5317 162.213 87.8948 159.521 85.4481 158.326C83.6788 157.462 83.7984 159.197 83.8444 160.564C83.9211 162.839 85.102 164.803 87.1078 165.897C88.8696 166.858 88.5347 161.863 88.4317 161.142C87.999 158.112 85.0831 156.026 82.1941 155.632C81.8902 155.59 80.8629 155.345 80.6184 155.688C80.0345 156.505 80.7488 158.853 81.0473 159.631C81.9259 161.922 84.6652 164.026 87.2476 163.408C90.4519 162.64 90.0939 156.998 88.6182 155.007C87.7476 153.832 86.3596 154.306 85.8584 155.585C84.6998 158.541 85.6683 162.737 86.8467 165.524C89.0326 170.695 95.514 171.564 99.1727 167.473C101.772 164.566 101.792 159.807 97.3079 158.867C93.6609 158.102 92.5265 161.346 92.6274 164.424C92.6747 165.867 92.985 167.358 94.287 168.191C95.9285 169.24 98.6698 169.537 100.515 168.955C103.624 167.975 105.624 163.791 103.601 160.993C102.281 159.165 97.044 155.535 95.6297 159.053C94.9115 160.84 94.9061 162.982 94.9211 164.871C94.9428 167.621 95.2404 170.438 96.963 172.694C97.9703 174.013 101.15 176.279 102.072 173.589C102.84 171.351 101.761 168.784 99.6389 167.799C98.0779 167.075 98.3516 169.653 98.4827 170.522C98.6069 171.344 100.173 172.46 99.9186 171.062C99.7146 169.94 98.6044 169.224 97.7368 168.638C96.2841 167.658 94.7112 166.768 93.0563 166.177C92.0154 165.805 90.2584 165.424 90.9771 167.221C91.5375 168.622 93.3847 169.64 94.8092 169.925C95.5452 170.072 93.1604 168.274 92.9165 168.135C92.787 168.061 90.5511 167.003 90.6042 167.613C90.7435 169.215 92.054 170.584 93.2055 171.566C93.2285 171.586 93.8331 172.085 93.6903 172.032C91.9857 171.406 90.4056 170.219 88.814 169.356C87.841 168.828 86.8617 168.277 85.8491 167.827C84.6402 167.29 86.3742 168.486 86.4924 168.564C88.6492 169.976 90.8983 171.195 92.9444 172.769C94.5927 174.037 91.7354 171.352 91.5459 171.156C88.5375 168.034 85.1884 165.286 82.0543 162.298C81.3137 161.592 80.5497 160.928 79.7793 160.256C79.7205 160.205 78.9934 159.315 79.0893 159.818C79.3974 161.435 80.5869 162.961 81.5881 164.219C82.0791 164.836 81.892 164.246 82.5205 164.2C83.7671 164.109 85.0253 164.797 86.0728 165.375C88.525 166.729 90.7347 168.524 93.019 170.13C95.0499 171.558 97.102 172.965 99.1913 174.307C99.7672 174.677 100.973 175.322 99.6575 174.326C97.0664 172.364 94.2884 170.59 91.4153 169.067C88.7631 167.662 91.4551 171.233 92.1426 171.911C92.9218 172.679 94.9247 174.525 96.2264 174.121C97.0333 173.87 95.598 173.015 95.2754 172.992C94.4295 172.932 94.5577 173.246 95.1915 173.794C96.1076 174.587 98.5167 176.913 99.9559 176.153C101.107 175.545 101.185 173.372 102.389 173.002C102.653 172.921 103.005 172.99 103.275 172.964C104.5 172.85 105.706 172.292 106.744 171.659C108.417 170.639 109.734 169.311 110.473 167.463C111.12 165.847 112.112 162.533 110.949 160.899C110.204 159.853 108.435 159.796 107.312 159.958C104.784 160.321 103.06 162.263 101.988 164.461C100.465 167.588 100.129 172.212 104.795 172.069C111.098 171.877 116.069 164.758 115.732 158.792C115.421 153.289 108.695 153.415 104.711 154.727C102.525 155.447 101.705 157.661 101.168 159.706C100.523 162.162 100.508 164.954 102.492 166.811C103.655 167.9 105.382 168.501 106.958 168.069C109.009 167.508 109.873 165.11 110.007 163.193C110.242 159.822 107.913 155.636 104.422 154.774C101.321 154.008 100.845 159.627 100.804 161.617C100.791 162.269 100.558 163.83 101.485 164.042C103.482 164.497 105.412 160.986 106.128 159.687C106.936 158.222 107.755 156.294 107.284 154.578C106.781 152.743 104.672 152.317 103.042 152.238C101.691 152.172 98.8095 152.939 99.1168 154.914C99.4226 156.88 104.827 152.135 105.065 151.874C105.888 150.975 106.622 149.801 106.65 148.536C106.683 147.061 104.824 147.598 104.049 148.014C101.559 149.351 99.0781 153.608 100.105 156.517C100.44 157.467 101.752 157.577 102.585 157.562C104.312 157.529 105.881 156.732 107.014 155.445C107.358 155.055 108.31 153.859 107.723 153.301C107.333 152.93 106.425 152.779 106.007 152.695C104.519 152.393 102.983 152.243 101.466 152.21C97.5151 152.124 94.2425 153.498 93.1216 157.534C92.8831 158.392 92.4749 159.773 93.2521 160.499C94.3232 161.498 96.3329 161.041 97.4385 160.396C99.0924 159.431 100.327 157.764 101.112 156.051C101.546 155.105 102.81 152.49 101.448 151.725C98.9004 150.295 95.9423 152.438 94.5108 154.392C93.8947 155.232 93.3084 156.177 93.392 157.263C93.5179 158.9 96.0726 158.476 97.1588 158.363C99.4177 158.129 101.573 157.384 103.387 155.995C104.437 155.191 105.978 153.716 105.755 152.21C105.502 150.5 102.158 150.46 100.87 150.364C99.6739 150.274 99.159 150.582 100.702 150.737C102.603 150.927 104.555 150.402 105.214 148.312C105.966 145.932 102.709 145.51 101.149 145.469C100.781 145.459 97.9949 145.486 98.259 145.664C99.5114 146.51 101.274 146.551 102.697 146.933C102.923 146.993 103.544 147.236 103.312 147.268C102.112 147.437 100.82 147.305 99.6109 147.305C99.3627 147.305 96.7707 147.274 98.3336 147.305C106.22 147.466 114.666 147.744 122.118 150.559C122.191 150.587 125.778 151.719 125.372 152.564C124.991 153.358 122.251 153.109 121.624 153.105C119.92 153.093 118.27 152.868 116.608 152.508C115.451 152.257 114.071 151.807 112.869 152.042C111.694 152.271 112.543 154.469 113.289 154.82C115.397 155.813 116.18 151.304 115.946 150.028C115.442 147.284 112.173 147.86 111.07 149.851C110.038 151.713 111.068 154.072 113.233 154.186C114.318 154.244 108.453 152.502 109.671 153.72C110.726 154.775 113.28 154.833 114.445 153.963C114.716 153.76 115.669 153.109 115.694 152.713C115.718 152.343 111.417 152.533 111.312 152.536C108.951 152.607 106.612 152.831 104.263 153.068C103.639 153.131 103.438 153.15 102.856 153.17C102.542 153.181 101.718 153.425 101.914 153.179C102.264 152.742 104.8 152.458 105.252 152.34C107.322 151.803 109.36 151.203 111.517 151.203C112.455 151.203 113.791 151.497 113.354 152.806C113.227 153.189 112.678 152.818 112.524 152.685C111.666 151.946 111.206 150.713 110.977 149.636C110.895 149.254 110.62 148.213 110.846 147.828C111.11 147.377 112.891 148.669 113.14 148.807C113.618 149.07 117.11 150.442 114.781 150.084C113.164 149.835 110.389 148.966 110.165 146.998C110.022 145.738 112.571 146.013 113.345 146.168C113.993 146.298 114.148 146.959 114.044 147.529C113.998 147.781 113.411 147.228 114.128 146.634C115.852 145.206 118.813 145.433 120.599 146.56C120.942 146.776 121.492 147.185 121.568 147.641C121.657 148.171 120.11 147.977 119.909 147.977C119.085 147.977 118.262 147.977 117.438 147.977C116.836 147.977 118.594 148.274 118.846 148.387C119.721 148.779 120.409 149.48 121.084 150.14C121.118 150.174 122.044 150.995 121.755 150.97C120.403 150.852 119.1 150.327 117.792 150C117.784 149.998 117.292 149.862 117.578 149.832C118.768 149.707 120.097 150.078 121.233 150.364C121.527 150.438 125.764 151.624 125.764 151.622C125.764 151.416 125.417 150.955 125.55 150.783C125.996 150.203 127.556 151.443 127.853 151.669C128.016 151.794 130.763 153.849 129.699 154.112C127.052 154.764 123.985 152.162 122.407 150.336C121.919 149.77 121.542 149.145 121.13 148.527C120.675 147.845 122.173 148.769 122.221 148.797C123.565 149.586 124.85 150.495 126.137 151.371C127.352 152.197 128.745 152.997 129.773 154.065C130.68 155.007 129.101 153.776 128.878 153.534C128.459 153.077 126.532 150.907 128.142 152.517C128.35 152.726 131.362 156.46 131.433 156.424C131.627 156.327 131.25 156.029 131.135 155.846C130.757 155.248 130.179 154.406 129.792 153.851C128.86 152.515 127.958 150.86 126.799 149.702C125.775 148.678 128.415 152.105 129.205 153.319C129.209 153.326 129.437 153.725 129.27 153.543C128.566 152.781 127.713 152.158 126.976 151.427C126.18 150.637 123.943 148.13 124.766 148.891C125.623 149.681 126.326 150.831 127.023 151.744C128.211 153.299 129.472 154.874 130.426 156.592C131.285 158.139 126.987 155.314 126.976 155.305C124.796 153.645 119.217 147.785 120.552 150.177C121.846 152.496 124.721 154.201 127.013 155.38C127.261 155.507 127.922 156.001 127.741 155.79C127.061 154.997 126.241 154.29 125.503 153.552C124.947 152.996 123.464 150.784 123.648 152.648C123.723 153.411 125.318 156.89 124.216 157.17C120.415 158.138 115.969 156.763 112.217 156.154C111.676 156.066 110.894 156.032 112.151 156.032C114.327 156.032 116.502 156.032 118.678 156.032C119.076 156.032 120.267 155.987 119.871 156.032C118.375 156.206 116.911 156.683 115.471 157.105C115.131 157.204 110.801 158.24 112.655 158.718C114.247 159.128 116.002 159.148 117.634 159.184C117.743 159.186 121.924 159.135 121.578 158.541C121.328 158.113 120.683 158.108 120.207 157.972C118.944 157.611 117.039 157.155 115.834 156.862C112.749 156.113 109.66 155.315 106.538 154.727C106.465 154.713 104.083 154.145 104.096 154.578C104.135 155.925 106.73 157.751 107.601 158.457C108.319 159.038 111.308 161.51 111.517 159.212C111.565 158.691 111.552 158.149 111.07 157.832C110.028 157.148 109.08 158.429 108.664 159.24C107.621 161.275 107.084 165.512 109.242 167.007C109.283 167.034 110.14 167.535 109.839 167.678C109.617 167.783 108.978 167.769 108.869 167.771C107.44 167.8 106.01 167.78 104.58 167.78C103.412 167.78 102.243 167.77 101.075 167.78C100.4 167.786 99.9129 167.792 100.543 168.489C102.271 170.398 105.356 170.663 107.769 170.633C107.812 170.633 108.542 170.6 108.441 170.372C108.211 169.855 105.053 169.919 104.683 169.897C104.035 169.857 100.346 169.251 99.816 170.046C99.6286 170.327 100.407 170.403 100.739 170.466C102.148 170.732 103.542 170.836 104.897 171.342C105.802 171.68 107.916 172.355 106.231 173.319C105.022 174.009 100.832 174.64 102.212 174.456C103.459 174.29 104.765 173.99 106.026 173.99C106.48 173.99 105.138 174.191 104.711 174.344C103.682 174.713 102.652 175.077 101.616 175.426C101.041 175.619 100.041 176.06 101.215 176.424C102.737 176.895 104.516 177.127 105.849 176.116C107.051 175.203 103.223 176.274 103.723 176.433C108.515 177.958 112.705 173.502 116.356 171.277C118.707 169.845 121.447 169.647 122.78 166.941C123.415 165.654 123.557 164.22 123.881 162.839C123.937 162.598 124.639 160.756 124.104 161.664C121.234 166.538 117.251 171.326 112.636 174.605C110.357 176.225 106.417 179.095 103.275 178.428C102.609 178.287 101.983 177.687 102.529 177.03C104.157 175.07 107.696 174.32 110.054 173.673C110.546 173.538 111.081 173.558 111.536 173.356C112.249 173.039 112.828 172.278 113.335 171.668C114.389 170.404 110.994 171.615 110.79 171.715C109.922 172.141 109.008 172.619 108.291 173.281C108.165 173.398 107.785 173.65 107.956 173.673C108.049 173.686 108.127 173.592 108.207 173.543C108.637 173.279 110.4 172.112 110.52 172.032C113.856 169.821 117.343 167.493 120.188 164.648C121.096 163.74 118.317 166.406 117.391 167.296C115.772 168.852 119.708 163.446 120.916 161.552C121.09 161.279 121.537 160.464 121.27 160.648C120.389 161.255 119.545 162.027 118.79 162.783C118.484 163.089 117.658 164.091 117.969 163.79C118.492 163.284 118.924 162.687 119.471 162.205C120.651 161.163 117.497 164.659 116.478 165.86C115.233 167.325 114.194 168.973 113.494 170.773C113.406 171 113 171.761 113.438 171.874C114.694 172.197 116.235 171.983 117.522 171.976C117.818 171.975 119.906 172.212 119.927 171.603C119.934 171.409 120.065 170.145 119.871 170.065C118.527 169.505 115.971 172.674 115.265 173.524C114.934 173.924 114.491 174.429 114.296 174.922C114.092 175.439 115.897 174.812 115.927 174.801C116.258 174.688 119.946 173.438 119.853 173.02C119.793 172.75 118.059 173.089 117.848 173.235C117.798 173.27 117.542 173.453 117.727 173.477C118.629 173.598 119.586 173.149 120.319 172.685C123.381 170.747 125.188 167.467 127.247 164.592C127.597 164.102 128.669 162.88 128.076 162.988C127.364 163.117 126.633 164.017 126.174 164.498C125.99 164.692 123.751 167.542 124.571 167.874C125.257 168.152 126.752 167.192 127.237 166.885C128.963 165.792 130.37 164.137 131.517 162.466C131.592 162.356 133.125 159.172 132.104 160.079C131.541 160.58 130.403 162.084 130.501 162.913C130.53 163.16 130.965 162.673 130.967 162.671C131.505 161.974 131.847 160.941 132.058 160.098C132.332 159.002 132.155 157.91 131.713 156.89C131.372 156.103 131.304 156.834 131.181 157.263C130.971 158 131.34 155.736 131.34 154.97C131.34 153.868 131.017 153.445 131.004 154.802C130.989 156.441 131.161 158.094 130.473 159.631C130.37 159.86 128.706 162.499 129.065 161.198C129.38 160.054 129.751 159.997 129.242 161.31C129.006 161.918 128.419 162.581 129.158 162.746C129.952 162.922 127.504 167.559 127.321 167.911C126.626 169.248 126.154 170.529 124.664 170.969C124.13 171.127 123.382 171.245 122.911 171.547C122.75 171.65 121.915 172.425 122.613 172.256C123.767 171.976 124.87 170.977 125.783 170.289C127.055 169.329 128.22 168.369 129.195 167.109C129.959 166.122 130.636 164.75 131.582 163.939C132.367 163.267 132.729 162.492 133.009 161.515C133.034 161.427 132.96 161.611 132.925 161.636C132.667 161.82 132.199 159.926 132.179 159.855C131.777 158.461 131.689 155.8 130.491 154.802C129.904 154.312 129.086 154.29 128.58 153.683C127.889 152.854 127.348 151.909 126.603 151.128C125.971 150.465 125.432 149.669 124.72 149.086C124.258 148.709 123.384 148.613 122.836 148.312C121.154 147.39 119.785 146.487 117.802 146.466C116.348 146.451 115.311 146.75 113.979 147.296C113.586 147.457 112.909 147.581 112.711 147.977" stroke="#CAE5FF" stroke-width="3" stroke-linecap="round"/>
<path d="M79.8694 151.548C79.1465 152.271 78.7869 153.46 78.5554 154.435C78.3 155.511 77.8666 156.525 77.6713 157.599C77.4434 158.852 77.363 160.213 77.9714 161.386C79.9031 165.112 81.8532 169.351 85.8876 171.144C87.1386 171.7 88.3966 172.45 89.7646 172.685C90.2101 172.761 90.6723 172.78 91.111 172.896C91.2235 172.925 92.0005 173.253 91.5814 173.293C91.0422 173.344 89.4959 173.563 89.0671 173.155C88.6505 172.759 88.4086 172.13 88.1587 171.63C87.3878 170.089 86.6819 168.664 85.5226 167.364C84.3704 166.072 83.0901 164.902 81.8565 163.69C81.2419 163.086 80.4852 162.609 79.9586 161.922C79.4287 161.23 79.0601 160.352 78.8474 159.513C78.6456 158.717 78.2634 157.852 78.2634 157.031C78.2634 156.023 77.2223 157.611 77.1279 157.761C76.1581 159.304 75.7521 160.933 76.1546 162.773C76.3984 163.888 76.7482 164.772 77.1847 165.791C77.7533 167.117 79.134 168.461 80.3398 169.246C81.8314 170.217 82.8751 171.701 84.4277 172.604C85.5679 173.267 86.8837 173.523 88.0451 174.104C88.6148 174.389 89.2275 174.593 89.8295 174.794C90.5487 175.033 91.2675 175.015 91.9789 175.264C93.1372 175.669 94.3018 175.81 95.4909 176.108C97.2378 176.544 99.088 176.367 100.893 176.367" stroke="#CAE5FF" stroke-width="3" stroke-linecap="round"/>
<path d="M74.4525 156.921C74.5748 156.31 75.8213 155.638 76.214 155.129C76.8122 154.354 77.283 153.44 77.7305 152.586C78.1469 151.791 78.5173 151.088 79.0018 150.335C79.4378 149.656 80.222 148.591 80.9319 148.236" stroke="#409AF0" stroke-width="3" stroke-linecap="round"/>
<path d="M78.1926 168.287C78.3452 170.767 79.1315 173.537 80.2119 175.792C80.915 177.259 81.1734 178.895 81.5658 180.465C82.3194 183.479 83.4691 186.366 84.2892 189.362C84.5826 190.434 85.2634 191.387 85.5426 192.442C85.6893 192.996 85.985 193.965 86.765 193.757C88.0395 193.417 88.3588 192.266 88.3588 191.196C88.3588 187.743 87.7229 184.438 86.8347 181.107C86.2039 178.742 86.0659 176.282 85.589 173.889C85.2998 172.437 84.8553 171.03 84.4517 169.618C84.2271 168.832 84.0042 171.194 83.8714 172.001C83.4719 174.428 83.3266 176.8 83.3453 179.258C83.3643 181.738 84.462 183.936 84.7689 186.36C84.929 187.625 85.7128 188.879 85.7128 190.151C85.7128 190.5 85.7128 190.848 85.7128 191.196C85.7128 192.399 85.8311 188.79 85.9913 187.598C86.3435 184.979 86.6773 181.859 85.8443 179.297C85.2531 177.477 84.7032 175.646 84.0416 173.85C83.5298 172.461 83.2734 170.945 82.649 169.602C82.4772 169.233 82.2931 168.503 81.8134 168.434C80.1021 168.19 80.1251 171.053 80.3512 172.047C80.5739 173.027 80.8943 174.156 81.3956 175.034C81.4918 175.202 81.5349 173.678 81.5349 173.471C81.5349 172.764 81.5349 171.351 81.5349 171.351" stroke="#CAE5FF" stroke-width="3" stroke-linecap="round"/>
<path d="M90.7943 175.238C90.8976 178.232 92.4195 181.057 92.7516 184.045C93.031 186.56 93.3087 189.09 93.7846 191.575C94.129 193.374 94.698 195.2 95.1845 196.903C96.0038 199.771 97.5499 194.431 97.8893 193.532C98.592 191.672 98.5181 189.059 98.6097 187.09C98.7489 184.098 98.6233 181.075 98.6233 178.078C98.6233 177.872 98.6437 175.252 98.0796 176.597C96.6118 180.097 96.2213 184.676 95.9321 188.435C95.7837 190.365 95.8277 192.366 95.4971 194.266C95.3497 195.114 95.4428 196.834 95.4428 194.647C95.4428 191.309 95.5767 187.939 95.1981 184.616C94.8339 181.419 93.9353 178.362 93.2409 175.238C92.6956 172.784 92.7516 176.563 92.7516 177.195C92.7516 178.435 92.8767 179.658 93.7846 180.566C94.3899 181.171 94.7631 179.479 94.9535 178.907" stroke="#CAE5FF" stroke-width="3" stroke-linecap="round"/>
<path d="M122.29 175.374C122.29 176.177 122.194 191.134 123.7 190.704C124.619 190.441 124.879 188.187 125.036 187.494C125.583 185.09 125.544 182.559 126.078 180.172C126.522 178.187 126.457 176.22 126.457 174.195C126.457 174.104 126.473 173.081 126.351 173.238C125.652 174.137 125.456 175.415 124.942 176.415C124.19 177.878 123.51 179.714 123.279 181.35C123.155 182.229 123.276 183.119 123.142 184.001C123.058 184.557 122.909 186.224 122.858 185.664C122.794 184.96 122.858 184.225 122.858 183.517" stroke="#CAE5FF" stroke-width="3" stroke-linecap="round"/>
<path d="M130.434 170.639C130.434 176.257 130.434 181.876 130.434 187.495C130.434 187.644 130.425 191.311 131.191 190.63C132.024 189.89 132.242 188.534 132.706 187.579C133.083 186.805 133.592 185.751 133.653 184.885C133.736 183.724 134.152 182.359 134.411 181.224C134.772 179.646 134.814 177.956 134.937 176.342C135.175 173.212 135.358 170.027 135.358 166.893C135.358 166.227 135.424 164.231 135.358 164.894C135.159 166.879 134.319 168.977 133.695 170.87C132.3 175.107 131.676 179.613 131.233 184.043C131.199 184.386 131.377 185.37 131.181 185.664C130.573 186.576 131.002 183.477 131.002 182.381C131.002 179.093 131.098 175.875 131.465 172.607C131.634 171.099 131.759 169.63 131.759 168.114C131.759 166.443 131.759 167.248 131.759 168.324C131.759 170.059 131.429 171.754 131.381 173.48C131.329 175.341 131.148 177.245 130.96 179.098C130.843 180.252 130.465 181.515 130.434 182.655C130.409 183.559 130.454 184.465 130.434 185.369C130.412 186.329 129.901 187.258 129.866 188.21C129.823 189.37 129.676 190.488 129.676 191.661C129.676 191.895 129.542 192.788 129.718 192.945C130.055 193.244 130.538 192.413 130.665 192.271C131.486 191.359 131.18 190.037 131.528 188.862C131.785 187.994 131.759 186.689 131.759 185.79" stroke="#CAE5FF" stroke-width="3" stroke-linecap="round"/>
<path d="M131.76 181.245V184.464" stroke="#CAE5FF" stroke-width="3" stroke-linecap="round"/>
<path d="M128.2 147.05C128.291 146.048 128.748 145.108 128.824 144.077C128.917 142.801 128.813 141.52 128.861 140.243C128.88 139.714 129.58 139.995 129.888 140.114C130.765 140.453 130.74 140.709 131.181 141.444C131.774 142.432 132.363 144.327 132.126 145.508C131.812 147.079 130.475 147.62 129.273 148.288C128.63 148.645 130.897 147.945 131.246 147.297C131.8 146.268 131.324 145.3 131.007 144.279C130.975 144.175 130.64 143.197 130.383 143.453C130.237 143.6 130.347 144.304 130.347 144.49C130.347 145.556 130.187 146.372 129.851 147.38" stroke="#CAE5FF" stroke-width="3" stroke-linecap="round"/>
<path d="M56.8882 162.24C57.7378 162.26 58.5185 162.701 59.3725 162.743C60.132 162.781 60.8634 162.528 61.6292 162.528C62.3373 162.528 63.4139 162.6 64.0057 162.184C64.3322 161.955 64.2806 161.752 64.7406 161.821C65.1222 161.878 65.4499 162.024 65.8389 162.024C66.6105 162.024 67.0774 161.677 67.7122 161.273C68.0586 161.053 68.4381 160.866 68.7506 160.586C69.0631 160.307 69.4245 160.017 69.7571 159.756C70.2143 159.396 70.5927 158.816 71.0113 158.398C71.4013 158.008 71.8215 157.542 72.1296 157.08C72.7237 156.188 73.3415 155.29 73.8391 154.332C74.4605 153.135 75.3 152.096 75.9959 150.937C76.5541 150.006 76.8239 148.973 77.306 148.009C77.602 147.417 77.8622 146.761 78.0968 146.136" stroke="#CAE5FF" stroke-width="3" stroke-linecap="round"/>
<path d="M113.604 139C109.722 139 107.851 143.999 107.758 147.351C107.689 149.849 106.785 152.338 107.665 154.868C108.047 155.966 108.404 157.658 109.104 158.533C110.131 159.817 104.992 161.223 104 161.966" stroke="black" stroke-width="2.4" stroke-linecap="round"/>
<path d="M98.6042 139C94.7215 139 92.8513 143.999 92.7581 147.351C92.6888 149.849 91.7854 152.338 92.6654 154.868C93.0473 155.966 93.4035 157.658 94.1037 158.533C95.1311 159.817 89.9919 161.223 89 161.966" stroke="black" stroke-width="2.4" stroke-linecap="round"/>
<path d="M149.103 115.992C150.416 117.76 152.771 120.064 152.959 122.412C153.079 123.921 152.975 125.481 152.975 126.996C152.975 128.87 151.969 129.602 150.659 130.818C150.024 131.407 148.458 132.583 147.614 132.672C145.758 132.867 142.424 134.124 140.614 133.118C139.099 132.276 140.64 134.727 140.83 135.054C141.509 136.229 142.245 137.421 142.848 138.629" stroke="white" stroke-width="2.4" stroke-linecap="round"/>
<path d="M66.3 107.354C62.7912 107.354 61.3668 105.104 59.1515 102.572C57.1416 100.275 56.3221 97.0497 56.1895 94.0665C56.0795 91.5925 55.8604 88.6304 56.7025 86.2727C57.263 84.7033 58.3703 83.8437 59.5155 82.6984C60.0897 82.1243 60.8251 81.0524 61.6832 80.8617C62.0249 80.7858 62.7428 81.0664 62.4113 80.6797C61.8016 79.9683 59.6419 79.9008 58.6881 79.3559C57.9773 78.9497 57.4595 78.212 56.7686 77.8666" stroke="white" stroke-width="2.4" stroke-linecap="round"/>
</svg>
