<svg width="200" height="200" viewBox="0 0 200 200" fill="none" xmlns="http://www.w3.org/2000/svg">
<circle cx="96.4722" cy="136.656" r="42.5" fill="#FBD24E"/>
<path d="M66.9724 131.758C70.6728 133.484 74.6065 136.066 78.8313 135.774C80.9587 135.627 82.8186 134.46 84.8188 133.85C85.3318 133.693 85.7762 133.391 86.302 133.377" stroke="black" stroke-width="2.345" stroke-linecap="round"/>
<path d="M103.727 133.58C104.301 134.735 105.484 135.184 106.657 135.511C108.42 136.002 109.98 136.399 111.803 136.559C113.947 136.747 115.862 137.031 117.968 136.388C119.116 136.038 120.096 135.362 121.288 135.195" stroke="black" stroke-width="2.345" stroke-linecap="round"/>
<path d="M90.6748 104.389C88.6859 104.389 88.8104 107.716 88.8104 109.05C88.8104 111.3 88.2271 113.644 91.2272 113.711C93.0172 113.751 95.5888 112.397 95.94 110.465C96.0972 109.601 96.1109 108.428 95.0251 108.428C92.3486 108.428 92.7579 112.69 95.0941 113.469C95.7826 113.699 98.7917 114.199 99.3581 113.538C99.9604 112.835 100.26 110.938 100.929 110.603" stroke="white" stroke-width="1.70601" stroke-linecap="round"/>
<path d="M71.4623 141.626C69.5759 141.626 66.0534 140.977 65.2254 143.277C64.7848 144.501 64.561 145.532 66.1222 145.988C67.6426 146.432 73.1759 147.264 74.0711 145.295C74.7313 143.843 73.3976 142.314 72.1145 141.85C70.5266 141.277 67.1204 141.269 66.7337 143.461C66.2478 146.214 71.6291 144.209 72.8075 143.685C72.8721 143.656 74.2639 143.025 74.1731 142.951C73.4329 142.346 71.2009 142.727 70.3413 142.727C69.3301 142.727 67.1862 142.32 66.326 143.094C65.7604 143.603 66.6348 143.848 67.0292 143.909C68.6395 144.16 69.9168 143.788 71.3196 143.033C71.3763 143.002 72.6534 142.43 71.9412 142.37C70.9109 142.284 69.3363 142.115 68.3744 142.564C68.0185 142.73 67.305 143.386 67.763 143.817C68.8949 144.883 72.1667 144.065 73.4597 143.634C73.6559 143.569 75.6058 142.912 75.1718 142.36C74.5427 141.559 71.7988 141.936 70.9221 142.024C69.7795 142.138 68.2813 142.719 67.9056 143.929C67.6643 144.707 67.5977 146.038 68.5171 146.365C70.4653 147.058 72.468 146.373 73.9794 145.122C74.7999 144.443 75.2992 143.719 75.1106 142.635C74.9518 141.722 73.6367 141.666 72.9196 141.636C71.3406 141.571 70.3106 142.287 69.5871 143.705C69.1692 144.524 68.9824 145.643 70.0253 146.008C71.0275 146.359 72.4603 146.254 73.0011 145.213C73.2861 144.665 73.4996 144.112 72.9298 143.828" stroke="#F49D0C" stroke-width="2.35" stroke-linecap="round"/>
<path d="M123.444 142.263C122.06 142.263 120.244 141.952 118.901 142.315C117.912 142.582 117.524 144.587 117.404 145.4C117.237 146.527 116.76 147.477 117.997 148.071C120.529 149.286 124.472 149.059 127.057 148.071C128.285 147.602 128.937 146.918 129.948 146.264C130.934 145.626 128.902 145.27 128.567 145.154C127.809 144.894 119.665 142.77 119.507 144.264C119.352 145.737 119.63 146.144 121.198 146.316C123.701 146.59 127.12 145.986 128.967 144.07C130.075 142.921 122.965 141.786 121.714 142.87C121.1 143.403 120.804 144.999 121.172 145.735C121.66 146.71 125.19 146.31 125.999 145.929C127.364 145.285 127.289 143.537 125.534 144.122" stroke="#F49D0C" stroke-width="2.35" stroke-linecap="round"/>
<path d="M96.3092 143.889C95.3664 143.889 93.8286 143.49 93.3754 144.397C92.783 145.582 92.2471 146.611 92.2471 147.951C92.2471 150.154 94.4318 150.65 96.3092 150.744C97.4862 150.803 98.461 151.385 99.4828 150.363C100.26 149.586 100.371 148.881 100.371 147.824C100.371 146.662 100.466 146.156 99.6661 145.356C99.1598 144.85 98.4744 144.464 97.8325 144.143" stroke="black" stroke-width="2.4" stroke-linecap="round"/>
<path d="M53.4596 145.601C46.6134 145.601 38.2849 128.947 43.8703 123.362C44.902 122.33 45.5666 121.022 46.7267 120.12C47.8527 119.244 48.5445 119.159 46.7494 118.646C45.1048 118.176 43.3715 115.812 41.626 115.812" stroke="white" stroke-width="2.4" stroke-linecap="round"/>
<path d="M81.6803 177.804C77.9558 177.804 77.3015 181.395 77.3015 184.453C77.3015 185.786 77.2211 187.536 78.1773 188.605C79.1508 189.693 80.1936 190.33 81.2262 191.362C82.1973 192.333 84.061 193.296 85.3293 193.86C85.8244 194.08 86.1899 194.399 86.6429 194.671C86.7702 194.747 85.4855 194.735 85.1833 194.735C82.1834 194.735 79.3703 196.487 76.4258 196.487" stroke="white" stroke-width="2.4" stroke-linecap="round"/>
<path d="M102.698 180.431C102.698 183.272 102.527 185.631 104.742 187.729C107.452 190.296 111.301 190.154 114.764 189.318C116.741 188.841 118.45 187.685 120.197 186.724C120.444 186.588 122.446 185.201 122.241 186.124C121.85 187.88 120.713 189.792 120.084 191.508C119.863 192.111 119.492 194.512 119.046 194.735" stroke="white" stroke-width="2.4" stroke-linecap="round"/>
<path d="M136.272 149.916C138.719 151.918 141.771 152.792 143.38 155.781C144.819 158.453 145.411 161.427 145.411 164.412C145.411 165.634 145.546 166.942 144.938 168.036C144.645 168.564 143.555 170.018 143.555 170.557C143.555 171.223 148.198 174.472 148.878 174.812" stroke="white" stroke-width="2.4" stroke-linecap="round"/>
<path d="M79.1992 86.7832C81.6922 88.5074 84.5521 89.8811 87.1351 91.4693C90.1635 93.3314 93.0321 95.4498 96.0365 97.356C99.0544 99.2709 102.052 101.21 105.057 103.137C107.126 104.465 109.083 105.952 111.215 107.179C112.975 108.192 114.644 108.861 116.362 109.693C118.687 110.82 121.23 111.407 123.547 112.482C125.292 113.292 126.837 114.242 128.677 114.865C131.8 115.924 134.871 116.799 138.062 117.485C140.513 118.012 143.495 117.537 146.001 117.192C148.303 116.875 144.13 110.227 143.338 108.668C142.057 106.147 141.003 103.349 139.362 101.102C138.018 99.2624 137.028 97.0678 136.724 94.8641" stroke="#409AF0" stroke-width="2.4" stroke-linecap="round"/>
<path d="M77.6284 86.9996C84.8143 86.01 92.2146 85.3909 99.2777 84.4181C104.552 83.6917 110.366 84.4269 114.167 79.8781C117.84 75.483 123.058 73.0809 127.724 70.187C129.069 69.3532 131.741 68.8306 132.5 67.262C132.684 66.8823 133.111 67.8463 133.44 68.1107C133.876 68.4611 134.411 69.0839 134.747 69.531C135.492 70.5242 136.388 71.3828 137.218 72.3025C138.213 73.4052 139.229 74.4834 140.269 75.572C141.641 77.0094 143.177 79.2922 145.07 79.934C147.436 80.7357 150.279 82.3958 152.319 83.8257C154.423 85.3012 159.038 84.9897 161.523 84.6474C162.499 84.513 163.486 84.3187 164.468 84.2418C165.358 84.1722 163.386 85.5075 163.071 85.7233C159.343 88.2769 153.779 91.3151 149.126 91.9559C144.807 92.5507 140.488 93.1456 136.169 93.7404" stroke="#409AF0" stroke-width="2.4" stroke-linecap="round"/>
<path d="M112.655 83.8542C111.72 84.9058 113.974 84.2115 114.36 84.093C117.068 83.2621 119.379 81.5417 121.506 79.727C122.15 79.1782 123.188 78.3894 123.536 77.5781C123.688 77.2224 122.751 77.6362 122.393 77.7827C120.521 78.5484 118.963 79.862 117.498 81.2278C115.685 82.9187 112.765 85.1368 111.734 87.4698C110.752 89.691 114.905 87.4973 115.469 87.0946C117.93 85.3367 120.056 83.0111 121.336 80.2557C122.052 78.7119 120.499 78.7218 119.34 79.1471C117.48 79.8299 111.341 86.8899 115.895 86.8899C118.515 86.8899 120.623 84.6839 121.643 82.4046C122.62 80.2191 119.302 81.1304 118.317 81.8418C117.359 82.5335 115.439 84.3206 115.793 85.6961C116.191 87.2436 121.578 86.2182 122.547 85.7814C122.882 85.6301 125.877 83.0967 124.559 82.9503C123.44 82.826 122.455 82.8737 121.557 83.5472" stroke="#409AF0" stroke-width="2.4" stroke-linecap="round"/>
<path d="M118.488 83.8532C121.458 83.4407 124.525 81.7032 126.981 80.05C127.766 79.5216 129.802 78.5084 130.153 77.543C130.301 77.1355 130.793 76.6159 130.767 76.1786C130.714 75.2799 127.406 76.3147 127.015 76.4174C125.255 76.8797 123.474 77.2908 121.745 77.867C121.53 77.9387 119.919 78.7508 120.961 78.9244C122.656 79.2069 124.088 77.7 121.251 78.0546C119.701 78.2483 118.22 79.7282 117.089 80.7151C116.137 81.5467 115.975 82.9033 115.111 83.7167C114.688 84.1149 115.091 82.5053 115.179 82.3183C115.38 81.8914 114.65 82.7882 114.497 82.9322C113.254 84.1066 110.943 84.5343 109.449 85.3881C108.959 85.6682 109.264 85.9474 108.426 86.0021C106.993 86.0955 105.458 86.5784 104.06 86.923C102.496 87.3082 100.258 87.3742 98.8409 88.0827C97.1258 88.9403 95.3796 88.7649 93.4858 88.7649C91.894 88.7649 90.3023 88.7649 88.7105 88.7649C87.943 88.7649 87.1756 88.7649 86.4081 88.7649C84.1495 88.7649 88.4192 88.7649 89.0345 88.7649C91.4595 88.7649 93.8726 88.4579 96.2316 88.4579C97.0911 88.4579 98.0682 88.2876 98.8409 88.6967C99.8382 89.2247 98.8024 91.0931 98.2952 91.5278C95.7738 93.689 96.8338 94.7369 99.796 96.3372C106.646 100.038 114.582 102.944 122.086 105.018C122.747 105.201 131.073 106.888 131.006 106.638C130.483 104.678 127.506 102.896 126.026 101.726C123.394 99.646 120.82 97.2237 117.84 95.655C117.475 95.463 114.412 94.0755 114.463 94.6317C114.71 97.3467 120.267 99.3682 122.342 100.055C122.574 100.132 125.821 101.337 125.821 100.805C125.821 99.6398 124.722 98.5112 123.979 97.7868C121.059 94.9355 117.553 92.6128 114.088 90.4874C112.305 89.3941 106.929 85.5072 104.35 86.7354C103.595 87.0946 104.463 89.1737 104.657 89.5665C105.612 91.5078 107.418 92.95 109.108 94.2224C111.296 95.8702 113.731 97.33 116.203 98.5202C117.557 99.1724 114.157 96.3192 113.678 95.9961C113.275 95.724 109.29 92.9174 109.04 94.0177C108.411 96.7846 112.128 98.7696 114.054 99.7481C114.956 100.206 118.244 101.697 115.998 99.6628C112.709 96.6841 109.322 93.2337 105.373 91.1355C103.078 89.9164 104.848 94.2911 105.629 95.0069C105.938 95.2907 109.269 97.6085 109.193 96.8147C108.9 93.7352 102.713 89.8398 99.7619 91.3572C97.7734 92.3799 100.478 93.9836 101.604 93.9836" stroke="#409AF0" stroke-width="5" stroke-linecap="round"/>
<path d="M90.2451 90.9141C91.3367 95.4985 98.3471 96.0399 101.774 97.6677C102.027 97.7877 103.341 98.8139 102.763 98.2135C101.274 96.6673 99.7647 95.2753 98.1585 93.8475C96.998 92.816 93.5592 89.8249 94.9863 90.4366C97.6358 91.572 99.7931 93.6193 102.661 94.4615C103.835 94.8064 105.072 94.8627 106.242 95.2119C106.515 95.2931 107.014 95.731 107.061 95.4506C107.216 94.5217 102.317 91.6853 101.484 91.0846C100.48 90.3607 98.9417 89.2976 101.228 90.0443C103.319 90.7269 105.308 91.9466 107.539 92.125C110.397 92.3537 104.859 87.7523 109.943 89.7203C111.715 90.4061 113.74 91.4008 115.708 91.204C116.644 91.1104 117.026 90.1593 117.891 89.8567C119.652 89.2404 122.145 89.6862 124.013 89.6862" stroke="#409AF0" stroke-width="5" stroke-linecap="round"/>
<path d="M124.934 83.2397C124.455 83.664 122.27 88.07 123.57 88.4414C124.428 88.6865 125.41 85.9139 125.685 85.4568C126.588 83.9552 129.452 79.8978 127.885 80.6815C125.617 81.8154 123.935 86.8977 122.99 88.9701C122.269 90.5513 120.76 93.2805 120.995 95.1609C121.182 96.6591 124.814 93.2322 124.934 93.0973C127.1 90.6635 129.044 87.7516 130.545 84.8599C130.558 84.836 131.653 82.5206 131.176 82.694C129.831 83.1832 129.429 85.5816 129.232 86.753C128.882 88.8339 128.725 91.1634 128.959 93.2679C129.007 93.6969 129.769 95.1089 130.392 94.3935C131.163 93.5077 132.469 87.7005 130.46 87.2987C128.481 86.9028 127.904 93.3564 127.697 94.5981" stroke="#409AF0" stroke-width="5" stroke-linecap="round"/>
<path d="M131.688 83.2392C131.688 81.3678 131.071 88.9 132.933 88.7138C134.656 88.5415 135.258 84.8639 135.628 83.6144C136.114 81.9743 136.404 79.8524 134.587 78.9756C130.759 77.1273 130.357 83.3407 132.217 85.2005C136.016 89.0001 136.78 81.6604 135.781 79.2826C135.404 78.3838 133.887 75.6329 132.643 75.6329C132.066 75.6329 132.269 77.6049 132.319 78.0035C132.374 78.446 133.384 79.0296 133.513 78.4469C133.737 77.439 133.375 76.196 133.053 75.2577C132.764 74.4173 132.252 73.1122 131.552 72.5119C131.214 72.2227 131.284 72.656 130.921 72.9382C129.78 73.8253 127.514 73.4324 126.179 74.1832C125.339 74.6559 124.964 75.365 124.389 75.9399C122.91 77.4191 125.334 75.2844 125.855 74.8825C127.288 73.777 129.208 71.8809 131.074 71.8809C132.266 71.8809 133.728 74.5921 134.451 75.4964C135.795 77.176 137.191 78.8611 138.681 80.4082C139.967 81.7446 141.575 83.5675 143.354 84.1602" stroke="#409AF0" stroke-width="5" stroke-linecap="round"/>
<path d="M137.828 85.3881C136.275 85.3881 135.427 86.2143 135.696 87.8269C136.108 90.2959 143.32 87.007 143.32 84.3478C143.32 82.8599 137.44 83.087 137.521 86.0021C137.595 88.6603 147.764 86.8509 147.651 83.9214C147.607 82.7609 143.6 82.421 142.586 81.8578C140.251 80.5603 138.762 78.3654 136.771 76.6391C135.958 75.9348 134.434 74.6206 133.905 73.7228C133.484 73.0067 132.664 72.6047 132.302 71.8809" stroke="#409AF0" stroke-width="5" stroke-linecap="round"/>
<path d="M147.651 85.3883C148.599 85.3883 150.334 85.0709 151.182 85.5418C151.584 85.7652 152.155 86.0717 152.495 86.3775C152.939 86.7775 153.387 86.4787 153.928 86.6333C154.72 86.8596 153.409 87.3399 153.331 87.3837C152.764 87.6985 151.368 88.1171 150.721 88.1511C149.546 88.213 147.901 88.2584 146.969 89.0039C146.384 89.4724 144.569 89.2284 143.814 89.3961C142.424 89.7051 140.908 89.3939 139.516 89.7031C137.123 90.2349 134.793 90.3 132.302 90.3" stroke="#409AF0" stroke-width="5" stroke-linecap="round"/>
<path d="M156.861 87.5375C157.45 87.5375 157.851 87.4121 158.396 87.2305" stroke="#409AF0" stroke-width="5" stroke-linecap="round"/>
<path d="M130.46 94.5981C130.46 98.0224 129.97 101.818 131.978 104.831C132.663 105.858 131.744 102.35 131.347 101.181C130.74 99.393 129.639 96.9164 128.311 95.519C126.478 93.5892 126.825 99.0945 127.544 100.09C129.864 103.302 133.114 100.13 133.769 97.4632C134.234 95.5706 134.451 93.6095 134.451 91.6647C134.451 91.0071 134.451 93.6775 134.451 94.1035C134.451 97.4787 134.194 91.8614 134.144 93.6771C134.021 98.1067 135.906 100.715 138.135 104.183C138.423 104.631 141.083 110.211 139.908 110.254C136.018 110.398 132.516 107.657 128.959 106.434C127.018 105.767 124.974 106.435 123.093 105.82C122.34 105.574 121.147 105.015 120.534 104.49C118.564 102.801 124.673 107.738 127.083 108.702C128.089 109.104 129.462 109.947 130.58 109.947C131.807 109.947 128.14 109.517 127.015 109.026C123.982 107.704 120.853 106.233 117.72 105.189C115.994 104.613 114.481 103.401 112.809 102.887C111.566 102.504 110.344 101.352 108.971 101.352C106.265 101.352 110.451 103.535 111.257 104.115C114.163 106.207 116.811 107.684 120.176 108.719C121.362 109.084 122.632 109.05 123.775 109.401C125.184 109.835 126.752 110.539 128.158 110.851C129.035 111.046 129.896 111.482 130.767 111.482C131.875 111.482 133.616 111.701 134.604 112.25C135.598 112.801 136.783 112.791 137.828 113.256C138.713 113.649 139.771 113.938 140.744 113.938C141.655 113.938 142.1 114.859 143.046 114.859C144.056 114.859 141.852 113.358 141.358 112.864C139.238 110.743 137.575 107.887 135.491 105.803C134.997 105.309 134.258 104.973 133.683 104.575C133.514 104.457 132.119 103.52 132.132 103.637C132.346 105.674 136.144 108.213 137.436 109.572C138.269 110.449 139.004 111.404 139.67 112.403" stroke="#409AF0" stroke-width="5" stroke-linecap="round"/>
<path d="M128.925 113.938C130.93 113.938 132.905 113.967 134.758 114.791C135.955 115.323 137.722 115.78 139.056 115.78C140.936 115.78 141.819 116.089 141.819 113.938C141.819 112.915 141.56 110.432 140.591 109.947" stroke="#409AF0" stroke-width="5" stroke-linecap="round"/>
<path d="M83.4917 88.7651C84.7552 88.7651 85.9952 89.0721 87.1755 89.0721" stroke="#409AF0" stroke-width="5" stroke-linecap="round"/>
<path d="M95.7985 97.7026C93.3104 97.7026 91.565 97.0439 89.677 95.4706C89.1063 94.995 87.9054 94.4817 87.2232 94.1784C86.2791 93.7589 85.4337 93.2772 84.5214 92.821C82.0237 91.5722 79.3589 90.5012 76.8858 89.1272C75.3427 88.2699 73.8935 87.5493 72.3044 86.8431C71.6477 86.5512 71.1347 86.1945 70.6076 85.7728C70.2359 85.4754 70.5262 85.8104 71.1297 85.6683C71.8127 85.5076 72.4086 85.4856 73.1137 85.4856C76.0113 85.4856 78.9089 85.4856 81.8065 85.4856C85.5438 85.4856 89.2811 85.4856 93.0184 85.4856C96.5404 85.4856 100.72 86.0873 104.152 85.3029C105.099 85.0865 105.122 85.2803 103.969 85.4856C100.813 86.0482 97.5259 86.7782 94.3367 87.078C91.5377 87.3412 88.742 87.7736 85.9571 88.083C82.7915 88.4348 79.2399 89.0918 76.1157 88.1222C75.5924 87.9598 75.1609 88.0645 74.6538 87.7828C74.3782 87.6297 73.6354 87.053 73.9229 87.1824C77.2389 88.6746 80.5957 90.0897 83.7121 91.9596C85.6265 93.1082 87.723 94.0373 89.5857 95.2226C90.3032 95.6793 91.7219 95.7151 92.5616 96.0058C93.6085 96.3682 94.9495 97.1294 96.0335 97.2327C96.8407 97.3096 97.3997 97.7818 98.148 97.9897C98.6363 98.1253 100.117 98.4074 99.6098 98.4074C97.1619 98.4074 95.3922 97.1908 93.1098 96.7758C91.7299 96.525 94.3272 97.931 94.6761 98.1724C98.4484 100.784 102.349 101.217 106.606 102.636" stroke="#409AF0" stroke-width="2.4" stroke-linecap="round"/>
<path d="M121.865 112.453C122.381 112.969 122.905 113.45 123.31 114.057C123.791 114.778 125.406 115.078 126.141 115.581C127.357 116.413 130.061 118.011 131.525 118.174C135.429 118.608 138.815 120.863 142.531 121.896C144.278 122.381 146.441 122.074 148.252 122.074C150.475 122.074 152.408 122.786 154.567 122.786C155.547 122.786 161.985 123.142 159.278 121.638C157.188 120.477 154.746 118.214 153.063 116.531C151.382 114.85 149.245 113.619 147.342 112.097C145.321 110.48 143.27 108.68 142.175 106.217C141.588 104.897 140.29 104.072 139.602 102.832C138.452 100.763 138.816 103.654 139.028 104.515C139.915 108.122 141.843 111.318 143.937 114.353C146.184 117.612 149.369 119.016 152.865 120.569C153.19 120.714 154.092 120.763 154.429 120.629C154.629 120.549 153.286 119.821 153.221 119.777C152.033 118.986 150.901 118.104 149.717 117.303C148.393 116.407 144.352 113.878 145.54 114.947C147.867 117.041 151.162 119.111 153.934 120.569C154.348 120.787 155.076 121.125 155.339 121.519C156.172 122.769 152.969 119.673 151.835 118.689C150.78 117.772 148.696 116.449 147.955 115.304C147.284 114.265 149.719 116.562 150.014 116.808C151.437 117.998 153.028 118.952 154.448 120.114C154.777 120.383 156.142 121.431 155.181 120.47C153.588 118.877 151.305 117.728 149.499 116.353C148.688 115.734 145.96 111.599 146.886 115.304C147.228 116.672 148.954 117.205 149.282 118.352C149.727 119.911 145.293 119.223 144.313 119.223C142.353 119.223 140.393 119.223 138.434 119.223C137.984 119.223 136.994 118.408 137.622 118.946C138.675 119.848 141.031 120.615 142.452 120.648C144.224 120.691 146.1 120.449 147.856 120.668C149.469 120.87 150.858 121.361 152.508 121.361" stroke="#409AF0" stroke-width="2.4" stroke-linecap="round"/>
<path d="M110.751 82.192C112.78 82.3949 114.287 84.7195 116.116 85.4647C117.916 86.1982 119.868 87.1226 121.481 88.2114C122.803 89.1039 124.083 90.0725 125.396 90.9815C125.866 91.3071 126.342 91.8698 126.951 91.8698C128.735 91.8698 130.351 92.8818 132.07 93.2256C133.241 93.4597 134.107 93.9165 135.144 94.4996C135.447 94.6701 137.539 95.9103 136.932 95.1308C136.017 93.9539 135.416 92.538 134.361 91.4023C133.173 90.1232 131.931 89.276 130.457 88.2932C128.29 86.8485 126.12 84.5738 123.585 83.9219C121.208 83.3109 119.433 81.5454 117.378 80.4038C116.707 80.031 115.805 79.457 115.064 79.457C114.338 79.457 113.728 80.4026 113.17 80.8362C111.621 82.0411 113.624 82.5412 114.795 83.0803C116.649 83.9337 118.243 85.3907 119.751 86.727C119.815 86.7842 121.608 88.3248 121.644 88.1997C121.873 87.4237 117.984 84.6487 117.366 84.179C116.456 83.4869 115.499 82.9749 114.702 82.1453C114.12 81.5409 113.8 81.1082 114.842 81.7713C116.856 83.053 119.074 84.0842 120.826 85.7452C122.035 86.8913 123.354 88.1983 124.742 89.1231C125.096 89.3592 123.075 87.7773 122.696 87.5101C121.544 86.6985 120.452 85.8227 119.201 85.1608C117.734 84.3837 119.855 85.2521 120.195 85.4063C124.087 87.1707 127.977 89.2543 131.532 91.6243C131.554 91.639 132.758 92.4787 132.573 92.5711C132.069 92.823 130.303 91.148 129.966 90.8997C127.364 88.9802 124.775 87.2009 121.936 85.6634C121.615 85.4895 120.678 85.1711 121.025 85.0556C121.738 84.8178 123.36 86.4452 123.795 86.8322C124.861 87.78 125.925 88.6858 127.149 89.427C127.574 89.6838 128.378 89.8319 128.634 90.2802C128.795 90.5618 128.351 90.0959 128.283 90.0465C127.289 89.3173 126.292 88.5768 125.314 87.8257C124.551 87.2389 123.704 86.6827 123 86.0257C122.769 85.8097 122.392 85.455 122.93 85.9089C124.858 87.5342 126.82 89.7447 129.218 90.6542C129.425 90.7328 129.754 90.967 129.382 90.6776C128.543 90.0251 127.747 89.3173 126.904 88.6673C125.984 87.958 125.028 87.3893 124.052 86.7738C124.015 86.7504 123.289 86.1118 123.561 86.0257C124.146 85.841 125.335 87.0435 125.735 87.3348C127.077 88.3105 128.442 89.252 129.779 90.2335C131.703 91.6455 133.853 92.8323 135.693 94.3477C137.033 95.451 135.483 94.5216 134.945 94.1373C134.349 93.7113 133.781 93.1012 133.064 92.9217C132.878 92.8754 131.327 92.5132 132.012 93.0269C132.406 93.3229 133.242 94.101 132.187 93.9503C131.04 93.7864 129.858 92.9595 128.856 92.3958C128.762 92.3429 127.605 91.5936 127.605 91.9867C127.605 92.4219 129.507 93.4089 129.896 93.6464C131.121 94.3948 132.398 94.9453 133.578 95.7619C134.285 96.2515 135.244 96.3568 135.997 96.7554C136.416 96.9771 136.847 97.087 137.26 97.2931C137.618 97.4725 138.028 98.1611 138.312 97.8775C138.824 97.3654 136.327 93.9737 135.787 93.9737" stroke="#0A60BD" stroke-width="2.4" stroke-linecap="round"/>
<path d="M115.853 80.8745C116.75 81.4416 117.606 82.0961 118.491 82.6718C118.933 82.96 119.721 83.3497 119.897 83.8749" stroke="#0A60BD" stroke-width="2.4" stroke-linecap="round"/>
<path d="M112.592 81.1353C111.994 81.1353 109.479 82.7263 110.243 83.1935C110.617 83.4221 110.919 83.8883 111.287 84.1646C112.075 84.7554 112.858 85.3575 113.635 85.9619C116.132 87.9037 118.979 89.5472 121.796 90.9916C124.697 92.4793 127.813 93.6911 130.826 94.9631C131.68 95.3237 132.301 95.6128 133.203 95.8038C134.206 96.0162 135.754 96.5485 136.587 97.1735C137.296 97.7048 138.94 97.9584 139.334 98.7462" stroke="#0A60BD" stroke-width="2.4" stroke-linecap="round"/>
<path d="M116.095 89.1477C116.297 88.4911 117.04 87.72 117.468 87.1857C117.939 86.5961 118.202 85.7895 118.758 85.265C119.322 84.7325 120.005 84.2168 120.39 83.5328C120.563 83.2243 121.104 82.7427 121.397 82.596C121.75 82.4198 122.239 82.0698 122.564 82.3603C123.323 83.0393 124.225 83.7158 125.115 84.2162C125.733 84.5639 126.404 85.0851 127.077 85.3298C127.529 85.4942 127.8 85.7861 128.185 85.9897C128.852 86.3428 127.992 87.162 127.784 87.5569C127.409 88.269 126.767 88.8525 126.488 89.619C126.398 89.865 126.068 90.2734 125.899 90.4733C125.58 90.8503 125.316 91.3805 124.944 91.6988C124.555 92.0328 124.363 92.5664 124.025 92.942C123.867 93.1174 124.023 93.2954 123.707 93.2837C123.371 93.2713 122.876 92.9981 122.564 92.8595C122.049 92.6308 121.375 92.5181 120.92 92.1643C120.502 91.8388 119.921 91.4476 119.429 91.2687C118.462 90.9168 117.464 90.3432 116.625 89.784" stroke="#FBD24E" stroke-width="2.4" stroke-linecap="round"/>
<path d="M50.8939 106.452C52.1461 106.327 53.7577 104.069 54.2944 103.052C54.9037 101.897 55.6216 100.685 55.9407 99.4086C56.764 96.1152 55.7341 92.9185 53.2149 90.6645C52.7802 90.2756 52.1955 90.1013 51.6766 89.8818C51.2113 89.685 50.8078 89.0238 50.3542 88.7213C49.3226 88.0336 48.3357 87.3673 47.2506 86.7782C45.5997 85.882 43.1214 82.7083 43.1214 80.8948C43.1214 79.1791 42.9769 77.7994 44.093 76.3879C44.7825 75.5158 45.5298 74.2904 46.5219 73.7161C48.4254 72.614 50.889 71.8442 53.0799 71.719C53.8975 71.6722 54.7273 71.2766 55.5089 71.2332C56.5407 71.1758 55.0409 71.2569 54.4833 71.4221C52.9135 71.8872 50.8431 72.5255 49.2477 72.6905C47.1602 72.9065 45.2175 74.8935 43.4992 75.8481C41.0551 77.2059 38.1934 79.7069 37.5889 82.5951C37.3785 83.6001 37.5349 84.7792 37.5349 85.8066C37.5349 87.1449 38.8982 87.7183 39.7749 88.5324C40.5144 89.2191 41.966 89.8747 42.9325 90.2327C44.1379 90.6791 45.1456 91.4931 46.333 91.9329C47.3481 92.3089 48.8569 93.3504 49.6255 94.1189C49.9952 94.4886 51.0828 95.7647 51.1368 96.251C51.1762 96.6053 51.4328 96.8999 51.5686 97.2225C51.7295 97.6045 51.5161 98.0559 51.6766 98.437C52.0942 99.4289 51.8655 100.776 51.8655 101.837C51.8655 103.755 51.6635 104.957 50.8399 106.695C50.4568 107.504 48.3066 109.34 47.3855 109.34C46.756 109.34 48.3421 108.521 48.8428 108.139C49.4455 107.68 49.7783 107.082 50.3002 106.56C51.1816 105.679 51.3513 104.45 52.0004 103.43C53.1397 101.639 53.0725 97.7009 51.5012 96.1295C50.5919 95.2203 49.3304 94.3083 48.2086 93.7006C46.9382 93.0124 46.05 91.8994 44.7947 91.2717C43.0759 90.4123 40.7768 89.0163 40.2067 87.0211C39.7413 85.3923 39.9638 83.5066 39.9638 81.7989C39.9638 81.276 40.4496 80.9969 40.4496 80.3416C40.4496 79.8891 40.7009 79.906 40.9354 79.6129C41.2705 79.194 41.1783 80.9762 41.1783 81.0703C41.1783 82.787 41.056 83.6604 42.3927 84.8486C43.3642 85.7121 44.1504 86.8094 45.186 87.6148C46.802 88.8717 48.7233 89.7386 50.3002 91.0288C51.2379 91.796 52.0952 92.5945 52.9585 93.4577C53.5708 94.0701 53.6461 94.9837 54.1595 95.6437C54.5619 96.1612 54.2944 97.5806 54.2944 98.1941C54.2944 99.2062 54.2944 100.218 54.2944 101.23C54.2944 101.598 54.2944 101.955 54.2944 101.325C54.2944 100.153 54.1086 99.3846 53.5657 98.329C52.7448 96.7328 51.1585 95.544 49.9089 94.2943C48.2813 92.6668 46.4253 91.5035 44.7002 90.0438C42.357 88.061 41.9069 85.8271 41.9069 82.784C41.9069 82.2937 41.9069 81.8034 41.9069 81.3132C41.9069 80.6357 41.9069 82.8486 41.9069 83.0809C41.9069 86.0883 42.84 88.047 45.3884 89.8818C47.4125 91.3392 51.1915 90.8483 52.3513 93.4577C52.9822 94.8773 52.5942 95.897 52.5942 97.4654" stroke="#FBD24E" stroke-width="2.4" stroke-linecap="round"/>
<path d="M50.2568 78.711C54.589 78.711 59.3369 77.1262 61.1682 72.789C62.0748 70.6416 63.2341 67.7335 62.0541 65.4915C61.448 64.3398 59.9732 64.0899 59.1864 63.0784C58.4793 62.1692 57.1288 61.7682 56.5518 60.7585C55.8252 59.4869 55.7024 57.9704 56.1322 56.5735C56.5952 55.0688 57.4893 54.1952 58.4403 53.0064C58.5419 52.8794 57.852 54.6911 57.7642 55.1397C57.5267 56.3535 57.4458 57.7836 57.7642 58.9866C57.9542 59.7045 58.7703 60.6467 59.3729 61.0849C60.2441 61.7185 60.8517 62.8235 61.5878 63.6029C63.0955 65.1993 64.4463 67.8428 64.5255 70.0612C64.605 72.288 64.6669 74.5283 63.3131 76.4028C62.1182 78.0573 60.3124 80.1798 58.0207 80.1798C56.8644 80.1798 55.7026 80.2119 54.5468 80.1798C53.8257 80.1598 53.1767 79.5503 52.4601 79.5503C52.2499 79.5503 51.6564 79.3614 51.8656 79.3405C52.763 79.2507 53.7158 79.3405 54.6167 79.3405C55.751 79.3405 57.0232 79.502 58.1489 79.3288C59.2572 79.1583 60.2933 77.6617 60.9117 76.8225C61.4614 76.0764 62.242 75.3756 62.4155 74.421C62.6125 73.3377 62.4272 72.0464 62.4272 70.9471" stroke="#409AF0" stroke-width="2.4" stroke-linecap="round"/>
<path d="M40.4731 55.9482V66.4948" stroke="#CAE5FF" stroke-width="2.4" stroke-linecap="round"/>
<path d="M36.1504 61.3084C38.2851 61.3084 40.4568 61.1355 42.5475 61.1355C43.143 61.1355 44.925 61.2093 44.3341 61.1355C43.5666 61.0395 42.9403 60.1195 42.2977 59.7523C41.9857 59.574 41.2796 58.8157 41.1739 58.446C40.7764 57.0547 41.1542 58.9623 41.587 59.4737C42.5209 60.5775 44.0457 61.6541 45.4867 61.6541" stroke="#CAE5FF" stroke-width="2.4" stroke-linecap="round"/>
<path d="M44.6225 61.8262C42.3181 61.8262 41.6065 64.5733 40.8188 66.1485" stroke="#CAE5FF" stroke-width="2.4" stroke-linecap="round"/>
<path d="M40.3002 66.1481C40.1801 64.9471 38.6433 63.5179 37.6203 62.9496C37.1043 62.6629 36.5458 62.5255 36.0643 62.258C35.6249 62.0139 34.5373 61.7643 35.219 61.5568C37.0167 61.0097 38.0573 60.8257 39.2244 59.3668C39.9209 58.4962 39.6086 56.6549 39.6086 55.6016" stroke="#CAE5FF" stroke-width="2.4" stroke-linecap="round"/>
<path d="M66.6958 56.3063C69.5857 56.3063 67.459 54.4323 67.0435 55.2634" stroke="#CAE5FF" stroke-width="2.4" stroke-linecap="round"/>
<path d="M39.5155 99.5294C39.5155 100.14 40.1829 100.14 40.1829 99.5294C40.1829 99.0985 39.4946 98.6811 39.293 99.0844" stroke="#CAE5FF" stroke-width="2.4" stroke-linecap="round"/>
</svg>
