<svg width="85" height="85" viewBox="0 0 85 85" fill="none" xmlns="http://www.w3.org/2000/svg">
<circle cx="42.5" cy="42.5" r="42.5" fill="#BDDAFA"/>
<path d="M13.0001 37.6023C16.7005 39.3287 20.6342 41.9102 24.859 41.618C26.9864 41.4709 28.8463 40.3043 30.8465 39.6938C31.3595 39.5372 31.8039 39.2353 32.3297 39.221" stroke="black" stroke-width="2.345" stroke-linecap="round"/>
<path d="M49.7544 39.4238C50.3284 40.579 51.5119 41.0283 52.685 41.3551C54.4477 41.8462 56.008 42.2436 57.8312 42.4034C59.9752 42.5914 61.8895 42.8749 63.9961 42.2326C65.1443 41.8824 66.1235 41.2062 67.3153 41.039" stroke="black" stroke-width="2.345" stroke-linecap="round"/>
<path d="M29.6759 55.2588H52.384" stroke="black" stroke-width="2.45" stroke-linecap="round"/>
<path d="M36.7026 10.2329C34.7137 10.2329 34.8382 13.5599 34.8382 14.8939C34.8382 17.1445 34.255 19.4883 37.255 19.555C39.045 19.5948 41.6166 18.2412 41.9679 16.3095C42.1251 15.4448 42.1388 14.2725 41.0529 14.2725C38.3764 14.2725 38.7858 18.5346 41.122 19.3133C41.8105 19.5428 44.8195 20.0432 45.3859 19.3824C45.9882 18.6797 46.2876 16.7823 46.9569 16.4476" stroke="white" stroke-width="1.70601" stroke-linecap="round"/>
<path d="M13.796 42.9922C14.6523 43.7629 16.3946 43.6898 17.4496 44.2759C18.0068 44.5854 19.4402 44.0111 19.7207 44.5721" stroke="#409AF0" stroke-width="2.35" stroke-linecap="round"/>
<path d="M62.1832 46.4226C63.1739 46.4226 65.0744 46.4491 65.9198 45.7727C66.5383 45.278 66.189 44.9604 67.1545 44.9604" stroke="#409AF0" stroke-width="2.35" stroke-linecap="round"/>
</svg>
