<svg width="85" height="85" viewBox="0 0 85 85" fill="none" xmlns="http://www.w3.org/2000/svg">
<circle cx="42.5" cy="42.5" r="42.5" fill="#FBD24E"/>
<path d="M15.5761 43.4986C18.7673 40.8458 22.2618 38.3897 26.9697 37.9152C29.3403 37.6762 32.1535 37.9446 33.7288 38.7936" stroke="black" stroke-width="2.345" stroke-linecap="round"/>
<path d="M48.0955 38.3613C48.9143 37.3646 53.0188 36.3696 54.2353 36.3147C56.0633 36.2322 59.6094 36.1468 66.5937 40.7247" stroke="black" stroke-width="2.345" stroke-linecap="round"/>
<path d="M34.667 11.2563C32.6781 11.2563 32.8025 14.5833 32.8025 15.9174C32.8025 18.168 32.2193 20.5118 35.2194 20.5784C37.0094 20.6182 39.581 19.2646 39.9322 17.333C40.0894 16.4683 40.1031 15.2959 39.0173 15.2959C36.3408 15.2959 36.7501 19.558 39.0863 20.3367C39.7748 20.5662 42.7838 21.0667 43.3503 20.4058C43.9526 19.7032 44.2519 17.8057 44.9212 17.4711" stroke="white" stroke-width="1.70601" stroke-linecap="round"/>
<path d="M28.6526 52.0036C30.9792 53.2251 32.6483 54.0649 35.2517 54.4018C36.8408 54.6075 38.4136 55.0138 39.9838 55.3353C41.3978 55.625 42.924 55.4932 44.3617 55.4802C46.4102 55.4617 48.604 54.5764 50.3814 53.589C51.6204 52.9007 52.7702 51.8956 54.0029 51.2793" stroke="black" stroke-width="2.35" stroke-linecap="round"/>
<path d="M16.0796 50.6784C13.5934 50.6784 11.8988 52.2276 11.9699 54.7881C12.0208 56.6192 14.6034 56.9495 16.0796 56.9495C18.3413 56.9495 20.3722 54.9531 21.1634 52.9311C22.3599 49.8734 16.7493 50.1318 15.0446 50.4653C12.3077 51.0008 13.3867 55.7312 15.8665 56.0971C17.7099 56.3691 19.2101 55.6805 19.3521 53.6922C19.4414 52.4419 19.3555 51.0106 17.7843 50.9524C16.5474 50.9066 16.6933 54.157 16.6428 55.0164C16.5449 56.6806 17.3614 56.1146 17.6626 54.9099C17.849 54.164 17.8792 52.8703 16.8863 52.8703C16.254 52.8703 14.9121 53.4123 15.9883 54.2401C16.2258 54.4229 18.0894 55.2198 18.2562 54.6359C18.4294 54.0297 17.3334 53.6922 16.9015 53.6922" stroke="#FBD24E" stroke-width="2.35" stroke-linecap="round"/>
<path d="M17.4902 47.4705C15.6039 47.4705 12.0814 46.8214 11.2534 49.1214C10.8127 50.3454 10.589 51.3762 12.1502 51.8322C13.6705 52.2764 19.2039 53.1087 20.0991 51.1393C20.7592 49.687 19.4256 48.1581 18.1424 47.6947C16.5546 47.1213 13.1484 47.1131 12.7616 49.3049C12.2758 52.058 17.657 50.0528 18.8354 49.5291C18.9001 49.5004 20.2918 48.8696 20.201 48.7953C19.4609 48.1898 17.2289 48.5711 16.3692 48.5711C15.3581 48.5711 13.2141 48.1639 12.354 48.938C11.7883 49.4471 12.6628 49.6919 13.0572 49.7533C14.6675 50.0038 15.9447 49.6322 17.3475 48.8769C17.4043 48.8463 18.6813 48.2738 17.9692 48.2145C16.9389 48.1286 15.3642 47.9592 14.4024 48.4081C14.0464 48.5742 13.333 49.2306 13.7909 49.6616C14.9229 50.7269 18.1946 49.9091 19.4876 49.4781C19.6838 49.4127 21.6338 48.7567 21.1997 48.2043C20.5706 47.4036 17.8268 47.7803 16.9501 47.868C15.8075 47.9822 14.3092 48.5632 13.9336 49.7737C13.6922 50.5514 13.6256 51.8824 14.545 52.2093C16.4932 52.902 18.496 52.2168 20.0074 50.966C20.8278 50.287 21.3271 49.5636 21.1386 48.4794C20.9798 47.5664 19.6646 47.5106 18.9475 47.4807C17.3685 47.4149 16.3386 48.1314 15.6151 49.5495C15.1971 50.3686 15.0103 51.4876 16.0533 51.8526C17.0555 52.2034 18.4882 52.0978 19.0291 51.0577C19.3141 50.5096 19.5275 49.9567 18.9577 49.6718" stroke="#F49D0C" stroke-width="2.35" stroke-linecap="round"/>
<path d="M69.4712 45.1077C68.0877 45.1077 66.2713 44.7963 64.9283 45.1593C63.9392 45.4266 63.5516 47.4317 63.4313 48.2438C63.2643 49.3708 62.7873 50.3212 64.0249 50.9153C66.5568 52.1306 70.4993 51.903 73.0848 50.9153C74.3125 50.4462 74.9646 49.7627 75.9757 49.1084C76.962 48.4702 74.93 48.1138 74.5948 47.9986C73.8369 47.738 65.6922 45.6142 65.5349 47.1081C65.3799 48.581 65.658 48.9886 67.2256 49.1601C69.729 49.4339 73.148 48.8298 74.9948 46.9145C76.103 45.7653 68.993 44.6299 67.7418 45.7142C67.1273 46.2468 66.8319 47.8435 67.1998 48.5793C67.6871 49.554 71.2176 49.1545 72.0265 48.7729C73.3917 48.129 73.3165 46.3812 71.5619 46.9661" stroke="#F49D0C" stroke-width="2.35" stroke-linecap="round"/>
</svg>
