<svg width="180" height="118" viewBox="0 0 180 118" fill="none" xmlns="http://www.w3.org/2000/svg">
<rect x="62" width="56" height="56" rx="6.18499" fill="url(#paint0_linear_542_707)"/>
<rect x="62" y="62" width="56" height="56" rx="6.18499" fill="url(#paint1_linear_542_707)"/>
<rect y="62" width="56" height="56" rx="6.18499" fill="url(#paint2_linear_542_707)"/>
<rect x="124" y="62" width="56" height="56" rx="6.18499" fill="url(#paint3_linear_542_707)"/>
<path fill-rule="evenodd" clip-rule="evenodd" d="M101.239 36.2974L90.1198 19L79 36.2974H101.239ZM101.239 84L90.1198 101.297L79 84H101.239ZM160.297 90.1198L143 79V101.24L160.297 90.1198ZM36.2974 79L19 90.1198L36.2974 101.24V79Z" fill="url(#paint4_linear_542_707)"/>
<defs>
<linearGradient id="paint0_linear_542_707" x1="90" y1="0" x2="90" y2="56" gradientUnits="userSpaceOnUse">
<stop stop-color="white"/>
<stop offset="1" stop-color="#DBEAF9"/>
</linearGradient>
<linearGradient id="paint1_linear_542_707" x1="90" y1="62" x2="90" y2="118" gradientUnits="userSpaceOnUse">
<stop stop-color="white"/>
<stop offset="1" stop-color="#DBEAF9"/>
</linearGradient>
<linearGradient id="paint2_linear_542_707" x1="28" y1="62" x2="28" y2="118" gradientUnits="userSpaceOnUse">
<stop stop-color="white"/>
<stop offset="1" stop-color="#DBEAF9"/>
</linearGradient>
<linearGradient id="paint3_linear_542_707" x1="152" y1="62" x2="152" y2="118" gradientUnits="userSpaceOnUse">
<stop stop-color="white"/>
<stop offset="1" stop-color="#DBEAF9"/>
</linearGradient>
<linearGradient id="paint4_linear_542_707" x1="90" y1="-24" x2="90" y2="219.5" gradientUnits="userSpaceOnUse">
<stop stop-color="#409AF0"/>
<stop offset="1" stop-color="#409AF0" stop-opacity="0"/>
</linearGradient>
</defs>
</svg>
