<svg width="329" height="18" viewBox="0 0 329 18" fill="none" xmlns="http://www.w3.org/2000/svg">
<path d="M113.477 13.6L117.173 4.11866H119.316L122.972 13.6H120.91L120.32 11.9796H116.129L115.539 13.6H113.477ZM116.745 10.2521H119.718L118.245 6.15419L116.745 10.2521ZM125.056 13.6L122.579 6.54255H124.628L126.315 12.0733L127.989 6.54255H130.052L127.574 13.6H125.056ZM134.01 13.6937C133.269 13.6937 132.64 13.5464 132.122 13.2518C131.604 12.9572 131.207 12.542 130.93 12.0064C130.654 11.4618 130.515 10.8279 130.515 10.1047C130.515 9.37266 130.658 8.73433 130.944 8.18973C131.229 7.63621 131.631 7.20321 132.149 6.89074C132.676 6.57827 133.296 6.42203 134.01 6.42203C134.546 6.42203 135.015 6.51131 135.417 6.68986C135.827 6.86842 136.171 7.1184 136.448 7.4398C136.733 7.7612 136.943 8.13617 137.077 8.5647C137.22 8.98431 137.287 9.43962 137.278 9.93065C137.278 10.0556 137.274 10.1762 137.265 10.2922C137.256 10.4083 137.238 10.5244 137.211 10.6404H132.377C132.403 10.9082 132.479 11.1538 132.604 11.377C132.729 11.6001 132.903 11.7787 133.127 11.9126C133.359 12.0376 133.644 12.1001 133.984 12.1001C134.207 12.1001 134.412 12.0778 134.6 12.0331C134.787 11.9796 134.948 11.8992 135.082 11.7921C135.216 11.685 135.309 11.56 135.363 11.4171H137.211C137.095 11.9439 136.876 12.3769 136.555 12.7161C136.242 13.0554 135.863 13.3054 135.417 13.4661C134.97 13.6178 134.501 13.6937 134.01 13.6937ZM132.417 9.32803H135.483C135.475 9.08698 135.412 8.86378 135.296 8.65844C135.189 8.44417 135.024 8.27455 134.801 8.14956C134.586 8.01564 134.309 7.94868 133.97 7.94868C133.631 7.94868 133.345 8.01564 133.113 8.14956C132.89 8.28347 132.72 8.45757 132.604 8.67183C132.497 8.87717 132.435 9.0959 132.417 9.32803ZM138.486 13.6V6.54255H140.173L140.294 7.38623C140.472 7.1184 140.673 6.91752 140.896 6.7836C141.12 6.64076 141.352 6.54702 141.593 6.50238C141.834 6.44881 142.079 6.42203 142.329 6.42203C142.445 6.42203 142.552 6.42649 142.651 6.43542C142.749 6.43542 142.82 6.43542 142.865 6.43542V8.2433H142.423C142.003 8.2433 141.637 8.31472 141.325 8.45757C141.012 8.60041 140.771 8.82361 140.602 9.12715C140.441 9.4307 140.361 9.81905 140.361 10.2922V13.6H138.486ZM145.98 13.6937C145.658 13.6937 145.346 13.6535 145.042 13.5732C144.747 13.4839 144.484 13.35 144.252 13.1714C144.02 12.9929 143.837 12.7697 143.703 12.5019C143.569 12.234 143.502 11.9216 143.502 11.5644C143.502 11.0823 143.6 10.6984 143.797 10.4128C143.993 10.1181 144.256 9.89494 144.587 9.74317C144.917 9.5914 145.297 9.48873 145.725 9.43516C146.163 9.38159 146.613 9.35481 147.078 9.35481H148.095C148.095 9.0959 148.046 8.86824 147.948 8.67183C147.859 8.46649 147.72 8.31026 147.533 8.20312C147.345 8.08706 147.104 8.02903 146.81 8.02903C146.622 8.02903 146.439 8.05582 146.261 8.10938C146.091 8.15402 145.948 8.22098 145.832 8.31026C145.716 8.39954 145.64 8.5156 145.605 8.65844H143.703C143.757 8.26562 143.882 7.93083 144.078 7.65406C144.274 7.36838 144.52 7.13625 144.814 6.9577C145.109 6.77914 145.43 6.64969 145.779 6.56934C146.136 6.48006 146.502 6.43542 146.877 6.43542C147.903 6.43542 148.662 6.73004 149.153 7.31927C149.644 7.89958 149.89 8.7254 149.89 9.79674V13.6H148.203L148.176 12.6893C147.953 13.0018 147.698 13.2295 147.412 13.3723C147.136 13.5152 146.868 13.6044 146.609 13.6402C146.35 13.6759 146.14 13.6937 145.98 13.6937ZM146.408 12.2072C146.721 12.2072 147.006 12.1447 147.265 12.0198C147.524 11.8948 147.729 11.7251 147.881 11.5109C148.033 11.2966 148.109 11.0556 148.109 10.7877V10.6136H146.823C146.636 10.6136 146.453 10.6226 146.274 10.6404C146.105 10.6583 145.948 10.694 145.805 10.7475C145.672 10.7922 145.564 10.8681 145.484 10.9752C145.404 11.0823 145.364 11.2252 145.364 11.4037C145.364 11.5823 145.408 11.7341 145.497 11.8591C145.596 11.9751 145.725 12.0644 145.886 12.1269C146.046 12.1805 146.221 12.2072 146.408 12.2072ZM154.756 16.8675C154.202 16.8675 153.693 16.7783 153.229 16.5997C152.765 16.4301 152.372 16.1578 152.051 15.7828C151.729 15.4079 151.511 14.9258 151.395 14.3365H153.31C153.372 14.5151 153.47 14.6624 153.604 14.7784C153.747 14.9034 153.917 14.9972 154.113 15.0597C154.318 15.1222 154.533 15.1534 154.756 15.1534C155.176 15.1534 155.501 15.0641 155.734 14.8856C155.966 14.707 156.126 14.4704 156.216 14.1758C156.305 13.8901 156.35 13.5732 156.35 13.225V12.7295C156.189 12.9884 155.988 13.1848 155.747 13.3188C155.506 13.4527 155.251 13.5464 154.984 13.6C154.725 13.6625 154.475 13.6937 154.234 13.6937C153.493 13.6937 152.89 13.5286 152.426 13.1982C151.962 12.8679 151.622 12.4349 151.408 11.8992C151.194 11.3546 151.087 10.7699 151.087 10.1449C151.087 9.45748 151.207 8.83253 151.448 8.27008C151.689 7.70763 152.051 7.26124 152.533 6.93091C153.015 6.60058 153.618 6.43542 154.341 6.43542C154.778 6.43542 155.167 6.50684 155.506 6.64969C155.845 6.7836 156.135 6.98448 156.376 7.25231L156.537 6.54255H158.251V12.7027C158.251 13.5598 158.14 14.2963 157.916 14.9124C157.693 15.5373 157.323 16.0194 156.805 16.3587C156.296 16.6979 155.613 16.8675 154.756 16.8675ZM154.649 12.0064C155.042 12.0064 155.363 11.9171 155.613 11.7385C155.872 11.56 156.064 11.3234 156.189 11.0288C156.314 10.7252 156.376 10.3994 156.376 10.0512C156.376 9.68514 156.314 9.35927 156.189 9.07358C156.064 8.77897 155.876 8.54684 155.626 8.37722C155.376 8.19866 155.055 8.10938 154.662 8.10938C154.234 8.10938 153.894 8.21205 153.644 8.41739C153.394 8.6138 153.216 8.86378 153.109 9.16733C153.011 9.46194 152.961 9.77442 152.961 10.1047C152.961 10.444 153.015 10.7609 153.122 11.0556C153.229 11.3412 153.408 11.5734 153.658 11.7519C153.908 11.9216 154.238 12.0064 154.649 12.0064ZM162.952 13.6937C162.211 13.6937 161.581 13.5464 161.063 13.2518C160.546 12.9572 160.148 12.542 159.872 12.0064C159.595 11.4618 159.456 10.8279 159.456 10.1047C159.456 9.37266 159.599 8.73433 159.885 8.18973C160.171 7.63621 160.572 7.20321 161.09 6.89074C161.617 6.57827 162.237 6.42203 162.952 6.42203C163.487 6.42203 163.956 6.51131 164.358 6.68986C164.768 6.86842 165.112 7.1184 165.389 7.4398C165.675 7.7612 165.884 8.13617 166.018 8.5647C166.161 8.98431 166.228 9.43962 166.219 9.93065C166.219 10.0556 166.215 10.1762 166.206 10.2922C166.197 10.4083 166.179 10.5244 166.152 10.6404H161.318C161.345 10.9082 161.421 11.1538 161.545 11.377C161.67 11.6001 161.845 11.7787 162.068 11.9126C162.3 12.0376 162.586 12.1001 162.925 12.1001C163.148 12.1001 163.353 12.0778 163.541 12.0331C163.728 11.9796 163.889 11.8992 164.023 11.7921C164.157 11.685 164.251 11.56 164.304 11.4171H166.152C166.036 11.9439 165.817 12.3769 165.496 12.7161C165.184 13.0554 164.804 13.3054 164.358 13.4661C163.911 13.6178 163.443 13.6937 162.952 13.6937ZM161.358 9.32803H164.425C164.416 9.08698 164.353 8.86378 164.237 8.65844C164.13 8.44417 163.965 8.27455 163.742 8.14956C163.527 8.01564 163.251 7.94868 162.911 7.94868C162.572 7.94868 162.286 8.01564 162.054 8.14956C161.831 8.28347 161.662 8.45757 161.545 8.67183C161.438 8.87717 161.376 9.0959 161.358 9.32803ZM171.474 13.6V4.11866H173.389V11.8323H178.197V13.6H171.474ZM182.583 13.6937C181.869 13.6937 181.244 13.5509 180.708 13.2652C180.172 12.9706 179.757 12.5554 179.463 12.0198C179.168 11.4752 179.021 10.8324 179.021 10.0914C179.021 9.33249 179.168 8.68076 179.463 8.13617C179.766 7.58264 180.186 7.15857 180.722 6.86395C181.257 6.56934 181.873 6.42203 182.57 6.42203C183.284 6.42203 183.904 6.5738 184.431 6.87735C184.958 7.18089 185.368 7.60496 185.663 8.14956C185.958 8.69415 186.105 9.34588 186.105 10.1047C186.105 10.8458 185.958 11.4886 185.663 12.0331C185.377 12.5688 184.971 12.9795 184.444 13.2652C183.927 13.5509 183.306 13.6937 182.583 13.6937ZM182.556 11.9796C182.967 11.9796 183.297 11.8903 183.547 11.7117C183.797 11.5332 183.976 11.3011 184.083 11.0154C184.199 10.7208 184.257 10.4128 184.257 10.0914C184.257 9.76995 184.199 9.46194 184.083 9.16733C183.976 8.87271 183.797 8.63166 183.547 8.44417C183.306 8.24776 182.976 8.14956 182.556 8.14956C182.154 8.14956 181.829 8.24776 181.579 8.44417C181.329 8.63166 181.146 8.87271 181.03 9.16733C180.922 9.46194 180.869 9.76995 180.869 10.0914C180.869 10.4217 180.922 10.7297 181.03 11.0154C181.146 11.3011 181.329 11.5332 181.579 11.7117C181.829 11.8903 182.154 11.9796 182.556 11.9796ZM187.305 13.6V6.54255H189.06L189.153 7.35945C189.35 7.1184 189.573 6.93091 189.823 6.797C190.082 6.65415 190.341 6.55595 190.6 6.50238C190.868 6.44881 191.109 6.42203 191.323 6.42203C192.001 6.42203 192.528 6.56934 192.903 6.86395C193.287 7.15857 193.559 7.55586 193.72 8.05581C193.89 8.54684 193.974 9.0959 193.974 9.70299V13.6H192.1V9.94404C192.1 9.72978 192.082 9.51551 192.046 9.30124C192.01 9.08698 191.943 8.89056 191.845 8.71201C191.756 8.53345 191.626 8.39061 191.457 8.28347C191.287 8.17634 191.064 8.12277 190.787 8.12277C190.43 8.12277 190.131 8.21205 189.89 8.39061C189.649 8.56916 189.47 8.81021 189.354 9.11376C189.238 9.4173 189.18 9.7521 189.18 10.1181V13.6H187.305ZM198.641 13.6937C197.9 13.6937 197.271 13.5464 196.753 13.2518C196.235 12.9572 195.838 12.542 195.561 12.0064C195.284 11.4618 195.146 10.8279 195.146 10.1047C195.146 9.37266 195.289 8.73433 195.574 8.18973C195.86 7.63621 196.262 7.20321 196.78 6.89074C197.306 6.57827 197.927 6.42203 198.641 6.42203C199.177 6.42203 199.645 6.51131 200.047 6.68986C200.458 6.86842 200.802 7.1184 201.078 7.4398C201.364 7.7612 201.574 8.13617 201.708 8.5647C201.851 8.98431 201.918 9.43962 201.909 9.93065C201.909 10.0556 201.904 10.1762 201.895 10.2922C201.886 10.4083 201.868 10.5244 201.842 10.6404H197.007C197.034 10.9082 197.11 11.1538 197.235 11.377C197.36 11.6001 197.534 11.7787 197.757 11.9126C197.989 12.0376 198.275 12.1001 198.614 12.1001C198.837 12.1001 199.043 12.0778 199.23 12.0331C199.418 11.9796 199.578 11.8992 199.712 11.7921C199.846 11.685 199.94 11.56 199.994 11.4171H201.842C201.726 11.9439 201.507 12.3769 201.185 12.7161C200.873 13.0554 200.494 13.3054 200.047 13.4661C199.601 13.6178 199.132 13.6937 198.641 13.6937ZM197.047 9.32803H200.114C200.105 9.08698 200.043 8.86378 199.927 8.65844C199.819 8.44417 199.654 8.27455 199.431 8.14956C199.217 8.01564 198.94 7.94868 198.601 7.94868C198.262 7.94868 197.976 8.01564 197.744 8.14956C197.521 8.28347 197.351 8.45757 197.235 8.67183C197.128 8.87717 197.065 9.0959 197.047 9.32803ZM203.116 13.6V4.11866H204.991V13.6H203.116ZM206.477 13.6V6.54255H208.352V13.6H206.477ZM207.415 5.83279C207.067 5.83279 206.785 5.73012 206.571 5.52479C206.357 5.31052 206.25 5.03822 206.25 4.70789C206.25 4.35971 206.361 4.07848 206.585 3.86422C206.808 3.64995 207.089 3.54281 207.428 3.54281C207.741 3.54281 208.009 3.64995 208.232 3.86422C208.464 4.06955 208.58 4.34632 208.58 4.6945C208.58 5.03376 208.468 5.31052 208.245 5.52479C208.031 5.73012 207.754 5.83279 207.415 5.83279ZM209.838 13.6V6.54255H211.593L211.686 7.35945C211.883 7.1184 212.106 6.93091 212.356 6.797C212.615 6.65415 212.874 6.55595 213.133 6.50238C213.401 6.44881 213.642 6.42203 213.856 6.42203C214.534 6.42203 215.061 6.56934 215.436 6.86395C215.82 7.15857 216.092 7.55586 216.253 8.05581C216.423 8.54684 216.508 9.0959 216.508 9.70299V13.6H214.633V9.94404C214.633 9.72978 214.615 9.51551 214.579 9.30124C214.543 9.08698 214.476 8.89056 214.378 8.71201C214.289 8.53345 214.159 8.39061 213.99 8.28347C213.82 8.17634 213.597 8.12277 213.32 8.12277C212.963 8.12277 212.664 8.21205 212.423 8.39061C212.182 8.56916 212.003 8.81021 211.887 9.11376C211.771 9.4173 211.713 9.7521 211.713 10.1181V13.6H209.838ZM221.174 13.6937C220.433 13.6937 219.804 13.5464 219.286 13.2518C218.768 12.9572 218.371 12.542 218.094 12.0064C217.817 11.4618 217.679 10.8279 217.679 10.1047C217.679 9.37266 217.822 8.73433 218.107 8.18973C218.393 7.63621 218.795 7.20321 219.313 6.89074C219.839 6.57827 220.46 6.42203 221.174 6.42203C221.71 6.42203 222.178 6.51131 222.58 6.68986C222.991 6.86842 223.335 7.1184 223.611 7.4398C223.897 7.7612 224.107 8.13617 224.241 8.5647C224.384 8.98431 224.451 9.43962 224.442 9.93065C224.442 10.0556 224.437 10.1762 224.428 10.2922C224.419 10.4083 224.401 10.5244 224.375 10.6404H219.54C219.567 10.9082 219.643 11.1538 219.768 11.377C219.893 11.6001 220.067 11.7787 220.29 11.9126C220.522 12.0376 220.808 12.1001 221.147 12.1001C221.371 12.1001 221.576 12.0778 221.763 12.0331C221.951 11.9796 222.112 11.8992 222.245 11.7921C222.379 11.685 222.473 11.56 222.527 11.4171H224.375C224.259 11.9439 224.04 12.3769 223.719 12.7161C223.406 13.0554 223.027 13.3054 222.58 13.4661C222.134 13.6178 221.665 13.6937 221.174 13.6937ZM219.58 9.32803H222.647C222.638 9.08698 222.576 8.86378 222.46 8.65844C222.353 8.44417 222.187 8.27455 221.964 8.14956C221.75 8.01564 221.473 7.94868 221.134 7.94868C220.795 7.94868 220.509 8.01564 220.277 8.14956C220.054 8.28347 219.884 8.45757 219.768 8.67183C219.661 8.87717 219.598 9.0959 219.58 9.32803ZM228.408 13.6937C228.078 13.6937 227.739 13.658 227.39 13.5866C227.042 13.5152 226.721 13.3946 226.426 13.225C226.132 13.0465 225.882 12.8099 225.676 12.5152C225.471 12.2117 225.337 11.8367 225.275 11.3903H227.176C227.23 11.551 227.323 11.6894 227.457 11.8055C227.6 11.9216 227.761 12.0064 227.94 12.0599C228.127 12.1135 228.314 12.1403 228.502 12.1403C228.627 12.1403 228.752 12.1314 228.877 12.1135C229.002 12.0956 229.118 12.0599 229.225 12.0064C229.332 11.9528 229.417 11.8858 229.48 11.8055C229.542 11.7162 229.573 11.6046 229.573 11.4707C229.573 11.3279 229.529 11.2163 229.439 11.1359C229.35 11.0556 229.225 10.9931 229.064 10.9484C228.904 10.8949 228.721 10.8458 228.515 10.8011C228.149 10.7208 227.756 10.6315 227.337 10.5333C226.917 10.4351 226.556 10.2922 226.252 10.1047C226.127 10.0155 226.016 9.91726 225.917 9.81013C225.819 9.70299 225.739 9.58247 225.676 9.44855C225.614 9.31463 225.565 9.17625 225.529 9.03341C225.493 8.88164 225.475 8.72094 225.475 8.55131C225.475 8.16741 225.556 7.84155 225.716 7.57371C225.886 7.29695 226.109 7.07376 226.386 6.90413C226.663 6.7345 226.971 6.61398 227.31 6.54255C227.649 6.4622 227.998 6.42203 228.355 6.42203C228.837 6.42203 229.283 6.50238 229.694 6.66308C230.104 6.81485 230.444 7.0559 230.712 7.38623C230.979 7.70763 231.145 8.12724 231.207 8.64505H229.413C229.377 8.44864 229.256 8.2924 229.051 8.17634C228.846 8.05135 228.591 7.98886 228.288 7.98886C228.181 7.98886 228.064 7.99778 227.94 8.01564C227.823 8.0335 227.716 8.06474 227.618 8.10938C227.52 8.15402 227.44 8.21652 227.377 8.29687C227.315 8.36829 227.283 8.46649 227.283 8.59148C227.283 8.68969 227.31 8.77897 227.364 8.85932C227.426 8.93967 227.511 9.00663 227.618 9.06019C227.734 9.11376 227.873 9.16286 228.033 9.2075C228.337 9.27892 228.64 9.34588 228.944 9.40838C229.256 9.46194 229.533 9.51997 229.774 9.58247C230.069 9.64496 230.337 9.74763 230.578 9.89048C230.828 10.0333 231.029 10.2297 231.18 10.4797C231.341 10.7208 231.421 11.0377 231.421 11.4305C231.421 11.8769 231.332 12.2474 231.154 12.542C230.975 12.8277 230.734 13.0554 230.43 13.225C230.136 13.3946 229.81 13.5152 229.453 13.5866C229.105 13.658 228.756 13.6937 228.408 13.6937ZM235.274 13.6937C234.944 13.6937 234.604 13.658 234.256 13.5866C233.908 13.5152 233.587 13.3946 233.292 13.225C232.997 13.0465 232.748 12.8099 232.542 12.5152C232.337 12.2117 232.203 11.8367 232.14 11.3903H234.042C234.096 11.551 234.189 11.6894 234.323 11.8055C234.466 11.9216 234.627 12.0064 234.805 12.0599C234.993 12.1135 235.18 12.1403 235.368 12.1403C235.493 12.1403 235.618 12.1314 235.743 12.1135C235.868 12.0956 235.984 12.0599 236.091 12.0064C236.198 11.9528 236.283 11.8858 236.345 11.8055C236.408 11.7162 236.439 11.6046 236.439 11.4707C236.439 11.3279 236.395 11.2163 236.305 11.1359C236.216 11.0556 236.091 10.9931 235.93 10.9484C235.77 10.8949 235.587 10.8458 235.381 10.8011C235.015 10.7208 234.622 10.6315 234.203 10.5333C233.783 10.4351 233.422 10.2922 233.118 10.1047C232.993 10.0155 232.881 9.91726 232.783 9.81013C232.685 9.70299 232.605 9.58247 232.542 9.44855C232.48 9.31463 232.431 9.17625 232.395 9.03341C232.359 8.88164 232.341 8.72094 232.341 8.55131C232.341 8.16741 232.422 7.84155 232.582 7.57371C232.752 7.29695 232.975 7.07376 233.252 6.90413C233.529 6.7345 233.837 6.61398 234.176 6.54255C234.515 6.4622 234.863 6.42203 235.221 6.42203C235.703 6.42203 236.149 6.50238 236.56 6.66308C236.97 6.81485 237.31 7.0559 237.577 7.38623C237.845 7.70763 238.01 8.12724 238.073 8.64505H236.278C236.243 8.44864 236.122 8.2924 235.917 8.17634C235.712 8.05135 235.457 7.98886 235.154 7.98886C235.046 7.98886 234.93 7.99778 234.805 8.01564C234.689 8.0335 234.582 8.06474 234.484 8.10938C234.386 8.15402 234.305 8.21652 234.243 8.29687C234.18 8.36829 234.149 8.46649 234.149 8.59148C234.149 8.68969 234.176 8.77897 234.23 8.85932C234.292 8.93967 234.377 9.00663 234.484 9.06019C234.6 9.11376 234.738 9.16286 234.899 9.2075C235.203 9.27892 235.506 9.34588 235.81 9.40838C236.122 9.46194 236.399 9.51997 236.64 9.58247C236.935 9.64496 237.202 9.74763 237.444 9.89048C237.694 10.0333 237.894 10.2297 238.046 10.4797C238.207 10.7208 238.287 11.0377 238.287 11.4305C238.287 11.8769 238.198 12.2474 238.019 12.542C237.841 12.8277 237.6 13.0554 237.296 13.225C237.002 13.3946 236.676 13.5152 236.319 13.5866C235.97 13.658 235.622 13.6937 235.274 13.6937ZM243.429 13.6V4.11866H247.125C247.848 4.11866 248.477 4.23026 249.013 4.45345C249.558 4.66772 249.977 5.0159 250.272 5.498C250.566 5.97118 250.714 6.60505 250.714 7.39962C250.714 8.14063 250.548 8.76111 250.218 9.26107C249.897 9.76102 249.455 10.136 248.892 10.386C248.33 10.627 247.692 10.7475 246.977 10.7475H245.344V13.6H243.429ZM245.344 9.03341H246.951C247.522 9.03341 247.973 8.89949 248.303 8.63166C248.642 8.3549 248.812 7.93975 248.812 7.38623C248.812 6.8952 248.669 6.5247 248.383 6.27472C248.107 6.02474 247.66 5.89975 247.044 5.89975H245.344V9.03341ZM255.006 13.6937C254.265 13.6937 253.636 13.5464 253.118 13.2518C252.6 12.9572 252.203 12.542 251.926 12.0064C251.65 11.4618 251.511 10.8279 251.511 10.1047C251.511 9.37266 251.654 8.73433 251.94 8.18973C252.225 7.63621 252.627 7.20321 253.145 6.89074C253.672 6.57827 254.292 6.42203 255.006 6.42203C255.542 6.42203 256.011 6.51131 256.413 6.68986C256.823 6.86842 257.167 7.1184 257.444 7.4398C257.729 7.7612 257.939 8.13617 258.073 8.5647C258.216 8.98431 258.283 9.43962 258.274 9.93065C258.274 10.0556 258.27 10.1762 258.261 10.2922C258.252 10.4083 258.234 10.5244 258.207 10.6404H253.373C253.399 10.9082 253.475 11.1538 253.6 11.377C253.725 11.6001 253.899 11.7787 254.123 11.9126C254.355 12.0376 254.64 12.1001 254.98 12.1001C255.203 12.1001 255.408 12.0778 255.596 12.0331C255.783 11.9796 255.944 11.8992 256.078 11.7921C256.212 11.685 256.305 11.56 256.359 11.4171H258.207C258.091 11.9439 257.872 12.3769 257.551 12.7161C257.238 13.0554 256.859 13.3054 256.413 13.4661C255.966 13.6178 255.497 13.6937 255.006 13.6937ZM253.413 9.32803H256.48C256.471 9.08698 256.408 8.86378 256.292 8.65844C256.185 8.44417 256.02 8.27455 255.797 8.14956C255.582 8.01564 255.306 7.94868 254.966 7.94868C254.627 7.94868 254.341 8.01564 254.109 8.14956C253.886 8.28347 253.716 8.45757 253.6 8.67183C253.493 8.87717 253.431 9.0959 253.413 9.32803ZM259.482 13.6V6.54255H261.169L261.29 7.38623C261.468 7.1184 261.669 6.91752 261.892 6.7836C262.116 6.64076 262.348 6.54702 262.589 6.50238C262.83 6.44881 263.075 6.42203 263.325 6.42203C263.441 6.42203 263.548 6.42649 263.647 6.43542C263.745 6.43542 263.816 6.43542 263.861 6.43542V8.2433H263.419C262.999 8.2433 262.633 8.31472 262.321 8.45757C262.008 8.60041 261.767 8.82361 261.598 9.12715C261.437 9.4307 261.357 9.81905 261.357 10.2922V13.6H259.482ZM267.769 13.6937C267.046 13.6937 266.425 13.5464 265.907 13.2518C265.398 12.9572 265.01 12.542 264.742 12.0064C264.474 11.4618 264.341 10.8234 264.341 10.0914C264.341 9.35035 264.479 8.70754 264.756 8.16295C265.032 7.60943 265.43 7.18089 265.948 6.87735C266.474 6.5738 267.108 6.42203 267.849 6.42203C268.421 6.42203 268.929 6.5247 269.376 6.73004C269.822 6.93538 270.179 7.22999 270.447 7.61389C270.724 7.99778 270.885 8.47096 270.929 9.03341H269.095C269.014 8.72094 268.858 8.49328 268.626 8.35043C268.403 8.20759 268.135 8.13617 267.822 8.13617C267.421 8.13617 267.099 8.23437 266.858 8.43078C266.626 8.62719 266.456 8.87717 266.349 9.18072C266.251 9.48426 266.202 9.78781 266.202 10.0914C266.202 10.4217 266.256 10.7342 266.363 11.0288C266.47 11.3145 266.639 11.551 266.872 11.7385C267.113 11.9171 267.425 12.0064 267.809 12.0064C268.13 12.0064 268.412 11.9349 268.653 11.7921C268.894 11.6403 269.05 11.4082 269.121 11.0957H270.996C270.952 11.676 270.777 12.1581 270.474 12.542C270.17 12.9259 269.782 13.2161 269.309 13.4125C268.845 13.6 268.331 13.6937 267.769 13.6937ZM275.356 13.6937C274.615 13.6937 273.985 13.5464 273.467 13.2518C272.949 12.9572 272.552 12.542 272.275 12.0064C271.999 11.4618 271.86 10.8279 271.86 10.1047C271.86 9.37266 272.003 8.73433 272.289 8.18973C272.575 7.63621 272.976 7.20321 273.494 6.89074C274.021 6.57827 274.641 6.42203 275.356 6.42203C275.891 6.42203 276.36 6.51131 276.762 6.68986C277.172 6.86842 277.516 7.1184 277.793 7.4398C278.078 7.7612 278.288 8.13617 278.422 8.5647C278.565 8.98431 278.632 9.43962 278.623 9.93065C278.623 10.0556 278.619 10.1762 278.61 10.2922C278.601 10.4083 278.583 10.5244 278.556 10.6404H273.722C273.749 10.9082 273.824 11.1538 273.949 11.377C274.074 11.6001 274.248 11.7787 274.472 11.9126C274.704 12.0376 274.989 12.1001 275.329 12.1001C275.552 12.1001 275.757 12.0778 275.945 12.0331C276.132 11.9796 276.293 11.8992 276.427 11.7921C276.561 11.685 276.655 11.56 276.708 11.4171H278.556C278.44 11.9439 278.221 12.3769 277.9 12.7161C277.587 13.0554 277.208 13.3054 276.762 13.4661C276.315 13.6178 275.847 13.6937 275.356 13.6937ZM273.762 9.32803H276.829C276.82 9.08698 276.757 8.86378 276.641 8.65844C276.534 8.44417 276.369 8.27455 276.146 8.14956C275.931 8.01564 275.655 7.94868 275.315 7.94868C274.976 7.94868 274.69 8.01564 274.458 8.14956C274.235 8.28347 274.065 8.45757 273.949 8.67183C273.842 8.87717 273.78 9.0959 273.762 9.32803ZM279.831 13.6V6.54255H281.585L281.679 7.35945C281.875 7.1184 282.099 6.93091 282.349 6.797C282.607 6.65415 282.866 6.55595 283.125 6.50238C283.393 6.44881 283.634 6.42203 283.848 6.42203C284.527 6.42203 285.054 6.56934 285.429 6.86395C285.813 7.15857 286.085 7.55586 286.246 8.05581C286.415 8.54684 286.5 9.0959 286.5 9.70299V13.6H284.625V9.94404C284.625 9.72978 284.607 9.51551 284.572 9.30124C284.536 9.08698 284.469 8.89056 284.371 8.71201C284.281 8.53345 284.152 8.39061 283.982 8.28347C283.813 8.17634 283.59 8.12277 283.313 8.12277C282.956 8.12277 282.657 8.21205 282.416 8.39061C282.174 8.56916 281.996 8.81021 281.88 9.11376C281.764 9.4173 281.706 9.7521 281.706 10.1181V13.6H279.831ZM290.818 13.6937C290.024 13.6937 289.435 13.4705 289.051 13.0241C288.676 12.5777 288.488 11.9662 288.488 11.1895V8.21652H287.43V6.54255H288.488V4.64093H290.363V6.54255H292.506V8.21652H290.363V10.8011C290.363 11.0332 290.39 11.2341 290.443 11.4037C290.506 11.5734 290.604 11.7073 290.738 11.8055C290.881 11.8948 291.073 11.9394 291.314 11.9394C291.528 11.9394 291.707 11.9082 291.85 11.8457C292.001 11.7742 292.126 11.6984 292.225 11.618L292.814 13.0643C292.626 13.2161 292.416 13.3411 292.184 13.4393C291.961 13.5286 291.734 13.591 291.501 13.6268C291.269 13.6714 291.042 13.6937 290.818 13.6937ZM295.825 13.6937C295.504 13.6937 295.191 13.6535 294.888 13.5732C294.593 13.4839 294.33 13.35 294.098 13.1714C293.866 12.9929 293.683 12.7697 293.549 12.5019C293.415 12.234 293.348 11.9216 293.348 11.5644C293.348 11.0823 293.446 10.6984 293.642 10.4128C293.839 10.1181 294.102 9.89494 294.432 9.74317C294.763 9.5914 295.142 9.48873 295.571 9.43516C296.008 9.38159 296.459 9.35481 296.923 9.35481H297.941C297.941 9.0959 297.892 8.86824 297.794 8.67183C297.705 8.46649 297.566 8.31026 297.379 8.20312C297.191 8.08706 296.95 8.02903 296.656 8.02903C296.468 8.02903 296.285 8.05582 296.106 8.10938C295.937 8.15402 295.794 8.22098 295.678 8.31026C295.562 8.39954 295.486 8.5156 295.45 8.65844H293.549C293.602 8.26562 293.727 7.93083 293.924 7.65406C294.12 7.36838 294.366 7.13625 294.66 6.9577C294.955 6.77914 295.276 6.64969 295.624 6.56934C295.981 6.48006 296.348 6.43542 296.722 6.43542C297.749 6.43542 298.508 6.73004 298.999 7.31927C299.49 7.89958 299.736 8.7254 299.736 9.79674V13.6H298.048L298.021 12.6893C297.798 13.0018 297.544 13.2295 297.258 13.3723C296.981 13.5152 296.714 13.6044 296.455 13.6402C296.196 13.6759 295.986 13.6937 295.825 13.6937ZM296.254 12.2072C296.566 12.2072 296.852 12.1447 297.111 12.0198C297.37 11.8948 297.575 11.7251 297.727 11.5109C297.879 11.2966 297.955 11.0556 297.955 10.7877V10.6136H296.669C296.481 10.6136 296.298 10.6226 296.12 10.6404C295.95 10.6583 295.794 10.694 295.651 10.7475C295.517 10.7922 295.41 10.8681 295.33 10.9752C295.249 11.0823 295.209 11.2252 295.209 11.4037C295.209 11.5823 295.254 11.7341 295.343 11.8591C295.441 11.9751 295.571 12.0644 295.731 12.1269C295.892 12.1805 296.066 12.2072 296.254 12.2072ZM304.602 16.8675C304.048 16.8675 303.539 16.7783 303.075 16.5997C302.611 16.4301 302.218 16.1578 301.896 15.7828C301.575 15.4079 301.356 14.9258 301.24 14.3365H303.155C303.218 14.5151 303.316 14.6624 303.45 14.7784C303.593 14.9034 303.762 14.9972 303.959 15.0597C304.164 15.1222 304.378 15.1534 304.602 15.1534C305.021 15.1534 305.347 15.0641 305.579 14.8856C305.811 14.707 305.972 14.4704 306.061 14.1758C306.151 13.8901 306.195 13.5732 306.195 13.225V12.7295C306.035 12.9884 305.834 13.1848 305.593 13.3188C305.352 13.4527 305.097 13.5464 304.829 13.6C304.57 13.6625 304.32 13.6937 304.079 13.6937C303.338 13.6937 302.736 13.5286 302.271 13.1982C301.807 12.8679 301.468 12.4349 301.254 11.8992C301.039 11.3546 300.932 10.7699 300.932 10.1449C300.932 9.45748 301.053 8.83253 301.294 8.27008C301.535 7.70763 301.896 7.26124 302.379 6.93091C302.861 6.60058 303.463 6.43542 304.186 6.43542C304.624 6.43542 305.012 6.50684 305.352 6.64969C305.691 6.7836 305.981 6.98448 306.222 7.25231L306.383 6.54255H308.097V12.7027C308.097 13.5598 307.985 14.2963 307.762 14.9124C307.539 15.5373 307.168 16.0194 306.651 16.3587C306.142 16.6979 305.459 16.8675 304.602 16.8675ZM304.494 12.0064C304.887 12.0064 305.209 11.9171 305.459 11.7385C305.718 11.56 305.91 11.3234 306.035 11.0288C306.16 10.7252 306.222 10.3994 306.222 10.0512C306.222 9.68514 306.16 9.35927 306.035 9.07358C305.91 8.77897 305.722 8.54684 305.472 8.37722C305.222 8.19866 304.901 8.10938 304.508 8.10938C304.079 8.10938 303.74 8.21205 303.49 8.41739C303.24 8.6138 303.062 8.86378 302.954 9.16733C302.856 9.46194 302.807 9.77442 302.807 10.1047C302.807 10.444 302.861 10.7609 302.968 11.0556C303.075 11.3412 303.254 11.5734 303.503 11.7519C303.753 11.9216 304.084 12.0064 304.494 12.0064ZM312.797 13.6937C312.056 13.6937 311.427 13.5464 310.909 13.2518C310.391 12.9572 309.994 12.542 309.717 12.0064C309.44 11.4618 309.302 10.8279 309.302 10.1047C309.302 9.37266 309.445 8.73433 309.731 8.18973C310.016 7.63621 310.418 7.20321 310.936 6.89074C311.463 6.57827 312.083 6.42203 312.797 6.42203C313.333 6.42203 313.802 6.51131 314.203 6.68986C314.614 6.86842 314.958 7.1184 315.235 7.4398C315.52 7.7612 315.73 8.13617 315.864 8.5647C316.007 8.98431 316.074 9.43962 316.065 9.93065C316.065 10.0556 316.06 10.1762 316.051 10.2922C316.043 10.4083 316.025 10.5244 315.998 10.6404H311.164C311.19 10.9082 311.266 11.1538 311.391 11.377C311.516 11.6001 311.69 11.7787 311.913 11.9126C312.146 12.0376 312.431 12.1001 312.771 12.1001C312.994 12.1001 313.199 12.0778 313.387 12.0331C313.574 11.9796 313.735 11.8992 313.869 11.7921C314.003 11.685 314.096 11.56 314.15 11.4171H315.998C315.882 11.9439 315.663 12.3769 315.342 12.7161C315.029 13.0554 314.65 13.3054 314.203 13.4661C313.757 13.6178 313.288 13.6937 312.797 13.6937ZM311.204 9.32803H314.27C314.261 9.08698 314.199 8.86378 314.083 8.65844C313.976 8.44417 313.811 8.27455 313.587 8.14956C313.373 8.01564 313.096 7.94868 312.757 7.94868C312.418 7.94868 312.132 8.01564 311.9 8.14956C311.677 8.28347 311.507 8.45757 311.391 8.67183C311.284 8.87717 311.222 9.0959 311.204 9.32803Z" fill="white"/>
<g filter="url(#filter0_d_532_352)">
<line x1="3.99756" y1="8.5" x2="103.998" y2="8.5" stroke="url(#paint0_linear_532_352)" stroke-width="2" stroke-dasharray="4 4"/>
</g>
<defs>
<filter id="filter0_d_532_352" x="-0.00244141" y="7.5" width="108" height="10" filterUnits="userSpaceOnUse" color-interpolation-filters="sRGB">
<feFlood flood-opacity="0" result="BackgroundImageFix"/>
<feColorMatrix in="SourceAlpha" type="matrix" values="0 0 0 0 0 0 0 0 0 0 0 0 0 0 0 0 0 0 127 0" result="hardAlpha"/>
<feOffset dy="4"/>
<feGaussianBlur stdDeviation="2"/>
<feComposite in2="hardAlpha" operator="out"/>
<feColorMatrix type="matrix" values="0 0 0 0 0 0 0 0 0 0 0 0 0 0 0 0 0 0 0.25 0"/>
<feBlend mode="normal" in2="BackgroundImageFix" result="effect1_dropShadow_532_352"/>
<feBlend mode="normal" in="SourceGraphic" in2="effect1_dropShadow_532_352" result="shape"/>
</filter>
<linearGradient id="paint0_linear_532_352" x1="97.6433" y1="-2.50832" x2="3.99322" y2="-2.59066" gradientUnits="userSpaceOnUse">
<stop stop-color="#F49D0C"/>
<stop offset="0.328125" stop-color="#FEF3C7"/>
<stop offset="0.609375" stop-color="#8BC1F6"/>
<stop offset="1" stop-color="#409AF0"/>
</linearGradient>
</defs>
</svg>
