<svg width="391" height="17" viewBox="0 0 391 17" fill="none" xmlns="http://www.w3.org/2000/svg">
<path d="M121.155 13L124.851 3.51868H126.994L130.65 13H128.588L127.998 11.3796H123.807L123.218 13H121.155ZM124.423 9.65208H127.396L125.923 5.55422L124.423 9.65208ZM132.735 13L130.257 5.94258H132.306L133.993 11.4733L135.667 5.94258H137.73L135.252 13H132.735ZM141.689 13.0937C140.948 13.0937 140.318 12.9464 139.8 12.6518C139.283 12.3572 138.885 11.9421 138.608 11.4064C138.332 10.8618 138.193 10.2279 138.193 9.50477C138.193 8.77269 138.336 8.13435 138.622 7.58976C138.908 7.03623 139.309 6.60324 139.827 6.29076C140.354 5.97829 140.974 5.82205 141.689 5.82205C142.224 5.82205 142.693 5.91133 143.095 6.08989C143.505 6.26844 143.849 6.51842 144.126 6.83982C144.412 7.16122 144.621 7.53619 144.755 7.96472C144.898 8.38433 144.965 8.83965 144.956 9.33068C144.956 9.45567 144.952 9.57619 144.943 9.69225C144.934 9.80831 144.916 9.92437 144.889 10.0404H140.055C140.082 10.3083 140.157 10.5538 140.282 10.777C140.407 11.0002 140.581 11.1787 140.805 11.3126C141.037 11.4376 141.323 11.5001 141.662 11.5001C141.885 11.5001 142.09 11.4778 142.278 11.4332C142.465 11.3796 142.626 11.2993 142.76 11.1921C142.894 11.085 142.988 10.96 143.041 10.8172H144.889C144.773 11.3439 144.554 11.7769 144.233 12.1161C143.92 12.4554 143.541 12.7054 143.095 12.8661C142.648 13.0179 142.18 13.0937 141.689 13.0937ZM140.095 8.72805H143.162C143.153 8.487 143.09 8.2638 142.974 8.05847C142.867 7.8442 142.702 7.67457 142.479 7.54958C142.264 7.41566 141.988 7.34871 141.648 7.34871C141.309 7.34871 141.023 7.41566 140.791 7.54958C140.568 7.6835 140.398 7.85759 140.282 8.07186C140.175 8.2772 140.113 8.49593 140.095 8.72805ZM146.164 13V5.94258H147.851L147.972 6.78626C148.15 6.51842 148.351 6.31755 148.574 6.18363C148.798 6.04078 149.03 5.94704 149.271 5.9024C149.512 5.84884 149.757 5.82205 150.007 5.82205C150.123 5.82205 150.231 5.82652 150.329 5.83544C150.427 5.83544 150.498 5.83544 150.543 5.83544V7.64332H150.101C149.682 7.64332 149.315 7.71475 149.003 7.85759C148.691 8.00043 148.449 8.22363 148.28 8.52717C148.119 8.83072 148.039 9.21908 148.039 9.69225V13H146.164ZM153.658 13.0937C153.336 13.0937 153.024 13.0536 152.72 12.9732C152.426 12.8839 152.162 12.75 151.93 12.5715C151.698 12.3929 151.515 12.1697 151.381 11.9019C151.247 11.634 151.18 11.3216 151.18 10.9645C151.18 10.4824 151.278 10.0985 151.475 9.81278C151.671 9.51816 151.935 9.29497 152.265 9.14319C152.595 8.99142 152.975 8.88875 153.403 8.83518C153.841 8.78162 154.292 8.75483 154.756 8.75483H155.774C155.774 8.49593 155.724 8.26827 155.626 8.07186C155.537 7.86652 155.399 7.71028 155.211 7.60315C155.024 7.48709 154.783 7.42906 154.488 7.42906C154.3 7.42906 154.117 7.45584 153.939 7.50941C153.769 7.55405 153.626 7.621 153.51 7.71028C153.394 7.79956 153.318 7.91562 153.283 8.05847H151.381C151.435 7.66564 151.56 7.33085 151.756 7.05409C151.952 6.7684 152.198 6.53628 152.493 6.35772C152.787 6.17916 153.109 6.04971 153.457 5.96936C153.814 5.88008 154.18 5.83544 154.555 5.83544C155.582 5.83544 156.34 6.13006 156.832 6.7193C157.323 7.2996 157.568 8.12542 157.568 9.19676V13H155.881L155.854 12.0894C155.631 12.4018 155.376 12.6295 155.091 12.7723C154.814 12.9152 154.546 13.0045 154.287 13.0402C154.028 13.0759 153.818 13.0937 153.658 13.0937ZM154.086 11.6073C154.399 11.6073 154.684 11.5448 154.943 11.4198C155.202 11.2948 155.408 11.1252 155.559 10.9109C155.711 10.6966 155.787 10.4556 155.787 10.1877V10.0137H154.501C154.314 10.0137 154.131 10.0226 153.952 10.0404C153.783 10.0583 153.626 10.094 153.484 10.1476C153.35 10.1922 153.243 10.2681 153.162 10.3752C153.082 10.4824 153.042 10.6252 153.042 10.8038C153.042 10.9823 153.086 11.1341 153.176 11.2591C153.274 11.3751 153.403 11.4644 153.564 11.5269C153.725 11.5805 153.899 11.6073 154.086 11.6073ZM162.434 16.2676C161.881 16.2676 161.372 16.1783 160.907 15.9997C160.443 15.8301 160.05 15.5578 159.729 15.1828C159.408 14.8079 159.189 14.3258 159.073 13.7365H160.988C161.05 13.9151 161.148 14.0624 161.282 14.1785C161.425 14.3035 161.595 14.3972 161.791 14.4597C161.997 14.5222 162.211 14.5534 162.434 14.5534C162.854 14.5534 163.18 14.4642 163.412 14.2856C163.644 14.107 163.804 13.8705 163.894 13.5758C163.983 13.2902 164.028 12.9732 164.028 12.625V12.1295C163.867 12.3884 163.666 12.5849 163.425 12.7188C163.184 12.8527 162.93 12.9464 162.662 13C162.403 13.0625 162.153 13.0937 161.912 13.0937C161.171 13.0937 160.568 12.9286 160.104 12.5982C159.64 12.2679 159.3 11.8349 159.086 11.2993C158.872 10.7547 158.765 10.1699 158.765 9.54494C158.765 8.8575 158.885 8.23256 159.126 7.67011C159.367 7.10766 159.729 6.66127 160.211 6.33094C160.693 6.00061 161.296 5.83544 162.019 5.83544C162.456 5.83544 162.845 5.90687 163.184 6.04971C163.523 6.18363 163.813 6.3845 164.054 6.65234L164.215 5.94258H165.929V12.1028C165.929 12.9598 165.818 13.6964 165.594 14.3124C165.371 14.9373 165.001 15.4194 164.483 15.7587C163.974 16.0979 163.291 16.2676 162.434 16.2676ZM162.327 11.4064C162.72 11.4064 163.041 11.3171 163.291 11.1386C163.55 10.96 163.742 10.7234 163.867 10.4288C163.992 10.1253 164.054 9.79939 164.054 9.4512C164.054 9.08516 163.992 8.7593 163.867 8.47361C163.742 8.17899 163.554 7.94687 163.305 7.77724C163.055 7.59868 162.733 7.50941 162.34 7.50941C161.912 7.50941 161.573 7.61208 161.323 7.81742C161.073 8.01383 160.894 8.2638 160.787 8.56735C160.689 8.86197 160.64 9.17444 160.64 9.50477C160.64 9.84402 160.693 10.161 160.8 10.4556C160.907 10.7413 161.086 10.9734 161.336 11.1519C161.586 11.3216 161.916 11.4064 162.327 11.4064ZM170.63 13.0937C169.889 13.0937 169.259 12.9464 168.742 12.6518C168.224 12.3572 167.826 11.9421 167.55 11.4064C167.273 10.8618 167.135 10.2279 167.135 9.50477C167.135 8.77269 167.277 8.13435 167.563 7.58976C167.849 7.03623 168.251 6.60324 168.768 6.29076C169.295 5.97829 169.916 5.82205 170.63 5.82205C171.165 5.82205 171.634 5.91133 172.036 6.08989C172.447 6.26844 172.79 6.51842 173.067 6.83982C173.353 7.16122 173.563 7.53619 173.696 7.96472C173.839 8.38433 173.906 8.83965 173.897 9.33068C173.897 9.45567 173.893 9.57619 173.884 9.69225C173.875 9.80831 173.857 9.92437 173.83 10.0404H168.996C169.023 10.3083 169.099 10.5538 169.224 10.777C169.349 11.0002 169.523 11.1787 169.746 11.3126C169.978 11.4376 170.264 11.5001 170.603 11.5001C170.826 11.5001 171.032 11.4778 171.219 11.4332C171.406 11.3796 171.567 11.2993 171.701 11.1921C171.835 11.085 171.929 10.96 171.982 10.8172H173.83C173.714 11.3439 173.496 11.7769 173.174 12.1161C172.862 12.4554 172.482 12.7054 172.036 12.8661C171.59 13.0179 171.121 13.0937 170.63 13.0937ZM169.036 8.72805H172.103C172.094 8.487 172.031 8.2638 171.915 8.05847C171.808 7.8442 171.643 7.67457 171.42 7.54958C171.206 7.41566 170.929 7.34871 170.59 7.34871C170.25 7.34871 169.965 7.41566 169.733 7.54958C169.509 7.6835 169.34 7.85759 169.224 8.07186C169.117 8.2772 169.054 8.49593 169.036 8.72805ZM179.153 13V3.51868H181.068V13H179.153ZM185.567 13.0937C185.236 13.0937 184.897 13.058 184.549 12.9866C184.201 12.9152 183.879 12.7947 183.585 12.625C183.29 12.4465 183.04 12.2099 182.835 11.9153C182.629 11.6117 182.496 11.2368 182.433 10.7904H184.335C184.388 10.9511 184.482 11.0895 184.616 11.2055C184.759 11.3216 184.919 11.4064 185.098 11.46C185.286 11.5135 185.473 11.5403 185.66 11.5403C185.785 11.5403 185.91 11.5314 186.035 11.5135C186.16 11.4957 186.276 11.46 186.384 11.4064C186.491 11.3528 186.576 11.2859 186.638 11.2055C186.701 11.1162 186.732 11.0046 186.732 10.8707C186.732 10.7279 186.687 10.6163 186.598 10.5359C186.509 10.4556 186.384 10.3931 186.223 10.3484C186.062 10.2949 185.879 10.2458 185.674 10.2011C185.308 10.1208 184.915 10.0315 184.495 9.9333C184.076 9.8351 183.714 9.69225 183.411 9.50477C183.286 9.41549 183.174 9.31728 183.076 9.21015C182.978 9.10302 182.897 8.98249 182.835 8.84858C182.772 8.71466 182.723 8.57628 182.688 8.43343C182.652 8.28166 182.634 8.12096 182.634 7.95133C182.634 7.56744 182.714 7.24157 182.875 6.97374C183.045 6.69698 183.268 6.47378 183.545 6.30415C183.821 6.13453 184.129 6.014 184.469 5.94258C184.808 5.86223 185.156 5.82205 185.513 5.82205C185.995 5.82205 186.442 5.9024 186.852 6.0631C187.263 6.21488 187.602 6.45593 187.87 6.78626C188.138 7.10766 188.303 7.52726 188.366 8.04507H186.571C186.535 7.84866 186.415 7.69243 186.21 7.57636C186.004 7.45138 185.75 7.38888 185.446 7.38888C185.339 7.38888 185.223 7.39781 185.098 7.41566C184.982 7.43352 184.875 7.46477 184.777 7.50941C184.678 7.55405 184.598 7.61654 184.536 7.69689C184.473 7.76831 184.442 7.86652 184.442 7.99151C184.442 8.08971 184.469 8.17899 184.522 8.25934C184.585 8.33969 184.669 8.40665 184.777 8.46022C184.893 8.51378 185.031 8.56289 185.192 8.60753C185.495 8.67895 185.799 8.74591 186.102 8.8084C186.415 8.86197 186.692 8.92 186.933 8.98249C187.227 9.04499 187.495 9.14766 187.736 9.2905C187.986 9.43335 188.187 9.62976 188.339 9.87974C188.5 10.1208 188.58 10.4377 188.58 10.8305C188.58 11.2769 188.491 11.6474 188.312 11.9421C188.133 12.2277 187.892 12.4554 187.589 12.625C187.294 12.7947 186.968 12.9152 186.611 12.9866C186.263 13.058 185.915 13.0937 185.567 13.0937ZM192.968 13.0937C192.254 13.0937 191.629 12.9509 191.093 12.6652C190.558 12.3706 190.143 11.9554 189.848 11.4198C189.553 10.8752 189.406 10.2324 189.406 9.49138C189.406 8.73251 189.553 8.08079 189.848 7.53619C190.152 6.98267 190.571 6.5586 191.107 6.26398C191.642 5.96936 192.259 5.82205 192.955 5.82205C193.669 5.82205 194.29 5.97383 194.816 6.27737C195.343 6.58092 195.754 7.00499 196.048 7.54958C196.343 8.09418 196.49 8.74591 196.49 9.50477C196.49 10.2458 196.343 10.8886 196.048 11.4332C195.763 11.9688 195.356 12.3795 194.83 12.6652C194.312 12.9509 193.691 13.0937 192.968 13.0937ZM192.941 11.3796C193.352 11.3796 193.682 11.2903 193.932 11.1118C194.182 10.9332 194.361 10.7011 194.468 10.4154C194.584 10.1208 194.642 9.81278 194.642 9.49138C194.642 9.16998 194.584 8.86197 194.468 8.56735C194.361 8.27273 194.182 8.03168 193.932 7.8442C193.691 7.64779 193.361 7.54958 192.941 7.54958C192.54 7.54958 192.214 7.64779 191.964 7.8442C191.714 8.03168 191.531 8.27273 191.415 8.56735C191.308 8.86197 191.254 9.16998 191.254 9.49138C191.254 9.82171 191.308 10.1297 191.415 10.4154C191.531 10.7011 191.714 10.9332 191.964 11.1118C192.214 11.2903 192.54 11.3796 192.941 11.3796ZM197.691 13V3.51868H199.565V13H197.691ZM203.288 13.0937C202.967 13.0937 202.654 13.0536 202.351 12.9732C202.056 12.8839 201.793 12.75 201.56 12.5715C201.328 12.3929 201.145 12.1697 201.011 11.9019C200.878 11.634 200.811 11.3216 200.811 10.9645C200.811 10.4824 200.909 10.0985 201.105 9.81278C201.302 9.51816 201.565 9.29497 201.895 9.14319C202.226 8.99142 202.605 8.88875 203.034 8.83518C203.471 8.78162 203.922 8.75483 204.386 8.75483H205.404C205.404 8.49593 205.355 8.26827 205.257 8.07186C205.167 7.86652 205.029 7.71028 204.841 7.60315C204.654 7.48709 204.413 7.42906 204.118 7.42906C203.931 7.42906 203.748 7.45584 203.569 7.50941C203.4 7.55405 203.257 7.621 203.141 7.71028C203.025 7.79956 202.949 7.91562 202.913 8.05847H201.011C201.065 7.66564 201.19 7.33085 201.386 7.05409C201.583 6.7684 201.828 6.53628 202.123 6.35772C202.418 6.17916 202.739 6.04971 203.087 5.96936C203.444 5.88008 203.81 5.83544 204.185 5.83544C205.212 5.83544 205.971 6.13006 206.462 6.7193C206.953 7.2996 207.198 8.12542 207.198 9.19676V13H205.511L205.484 12.0894C205.261 12.4018 205.007 12.6295 204.721 12.7723C204.444 12.9152 204.176 13.0045 203.917 13.0402C203.659 13.0759 203.449 13.0937 203.288 13.0937ZM203.717 11.6073C204.029 11.6073 204.315 11.5448 204.574 11.4198C204.833 11.2948 205.038 11.1252 205.19 10.9109C205.341 10.6966 205.417 10.4556 205.417 10.1877V10.0137H204.132C203.944 10.0137 203.761 10.0226 203.583 10.0404C203.413 10.0583 203.257 10.094 203.114 10.1476C202.98 10.1922 202.873 10.2681 202.793 10.3752C202.712 10.4824 202.672 10.6252 202.672 10.8038C202.672 10.9823 202.717 11.1341 202.806 11.2591C202.904 11.3751 203.034 11.4644 203.194 11.5269C203.355 11.5805 203.529 11.6073 203.717 11.6073ZM211.864 13C211.274 13 210.779 12.9286 210.377 12.7857C209.984 12.6429 209.685 12.4018 209.48 12.0626C209.283 11.7144 209.185 11.2412 209.185 10.6431V7.61654H208.141V5.94258H209.185V4.05435H211.06V5.94258H212.6V7.61654H211.06V10.3752C211.06 10.6698 211.114 10.902 211.221 11.0716C211.328 11.2412 211.569 11.326 211.944 11.326H212.533V13H211.864ZM213.567 13V5.94258H215.442V13H213.567ZM214.505 5.23282C214.156 5.23282 213.875 5.13015 213.661 4.92481C213.447 4.71054 213.339 4.43824 213.339 4.10792C213.339 3.75973 213.451 3.47851 213.674 3.26424C213.897 3.04997 214.179 2.94284 214.518 2.94284C214.83 2.94284 215.098 3.04997 215.321 3.26424C215.554 3.46958 215.67 3.74634 215.67 4.09453C215.67 4.43378 215.558 4.71054 215.335 4.92481C215.121 5.13015 214.844 5.23282 214.505 5.23282ZM220.222 13.0937C219.508 13.0937 218.883 12.9509 218.348 12.6652C217.812 12.3706 217.397 11.9554 217.102 11.4198C216.808 10.8752 216.66 10.2324 216.66 9.49138C216.66 8.73251 216.808 8.08079 217.102 7.53619C217.406 6.98267 217.825 6.5586 218.361 6.26398C218.897 5.96936 219.513 5.82205 220.209 5.82205C220.923 5.82205 221.544 5.97383 222.07 6.27737C222.597 6.58092 223.008 7.00499 223.303 7.54958C223.597 8.09418 223.744 8.74591 223.744 9.50477C223.744 10.2458 223.597 10.8886 223.303 11.4332C223.017 11.9688 222.611 12.3795 222.084 12.6652C221.566 12.9509 220.946 13.0937 220.222 13.0937ZM220.196 11.3796C220.606 11.3796 220.937 11.2903 221.187 11.1118C221.437 10.9332 221.615 10.7011 221.722 10.4154C221.838 10.1208 221.896 9.81278 221.896 9.49138C221.896 9.16998 221.838 8.86197 221.722 8.56735C221.615 8.27273 221.437 8.03168 221.187 7.8442C220.946 7.64779 220.615 7.54958 220.196 7.54958C219.794 7.54958 219.468 7.64779 219.218 7.8442C218.968 8.03168 218.785 8.27273 218.669 8.56735C218.562 8.86197 218.508 9.16998 218.508 9.49138C218.508 9.82171 218.562 10.1297 218.669 10.4154C218.785 10.7011 218.968 10.9332 219.218 11.1118C219.468 11.2903 219.794 11.3796 220.196 11.3796ZM224.945 13V5.94258H226.699L226.793 6.75947C226.989 6.51842 227.212 6.33094 227.462 6.19702C227.721 6.05418 227.98 5.95597 228.239 5.9024C228.507 5.84884 228.748 5.82205 228.962 5.82205C229.641 5.82205 230.168 5.96936 230.543 6.26398C230.926 6.5586 231.199 6.95588 231.359 7.45584C231.529 7.94687 231.614 8.49593 231.614 9.10302V13H229.739V9.34407C229.739 9.1298 229.721 8.91553 229.685 8.70127C229.65 8.487 229.583 8.29059 229.485 8.11203C229.395 7.93348 229.266 7.79063 229.096 7.6835C228.927 7.57636 228.703 7.5228 228.427 7.5228C228.07 7.5228 227.77 7.61208 227.529 7.79063C227.288 7.96919 227.11 8.21024 226.994 8.51378C226.878 8.81733 226.82 9.15212 226.82 9.51816V13H224.945ZM237.1 13V3.51868H240.796C241.52 3.51868 242.149 3.63028 242.685 3.85347C243.229 4.06774 243.649 4.41593 243.944 4.89803C244.238 5.3712 244.385 6.00507 244.385 6.79965C244.385 7.54065 244.22 8.16114 243.89 8.66109C243.569 9.16105 243.127 9.53602 242.564 9.78599C242.002 10.027 241.363 10.1476 240.649 10.1476H239.015V13H237.1ZM239.015 8.43343H240.622C241.194 8.43343 241.645 8.29952 241.975 8.03168C242.314 7.75492 242.484 7.33978 242.484 6.78626C242.484 6.29523 242.341 5.92472 242.055 5.67474C241.779 5.42477 241.332 5.29978 240.716 5.29978H239.015V8.43343ZM248.678 13.0937C247.937 13.0937 247.308 12.9464 246.79 12.6518C246.272 12.3572 245.875 11.9421 245.598 11.4064C245.321 10.8618 245.183 10.2279 245.183 9.50477C245.183 8.77269 245.326 8.13435 245.612 7.58976C245.897 7.03623 246.299 6.60324 246.817 6.29076C247.343 5.97829 247.964 5.82205 248.678 5.82205C249.214 5.82205 249.683 5.91133 250.084 6.08989C250.495 6.26844 250.839 6.51842 251.115 6.83982C251.401 7.16122 251.611 7.53619 251.745 7.96472C251.888 8.38433 251.955 8.83965 251.946 9.33068C251.946 9.45567 251.941 9.57619 251.932 9.69225C251.923 9.80831 251.906 9.92437 251.879 10.0404H247.044C247.071 10.3083 247.147 10.5538 247.272 10.777C247.397 11.0002 247.571 11.1787 247.794 11.3126C248.026 11.4376 248.312 11.5001 248.651 11.5001C248.875 11.5001 249.08 11.4778 249.267 11.4332C249.455 11.3796 249.616 11.2993 249.75 11.1921C249.883 11.085 249.977 10.96 250.031 10.8172H251.879C251.763 11.3439 251.544 11.7769 251.223 12.1161C250.91 12.4554 250.531 12.7054 250.084 12.8661C249.638 13.0179 249.169 13.0937 248.678 13.0937ZM247.085 8.72805H250.151C250.142 8.487 250.08 8.2638 249.964 8.05847C249.857 7.8442 249.692 7.67457 249.468 7.54958C249.254 7.41566 248.977 7.34871 248.638 7.34871C248.299 7.34871 248.013 7.41566 247.781 7.54958C247.558 7.6835 247.388 7.85759 247.272 8.07186C247.165 8.2772 247.102 8.49593 247.085 8.72805ZM253.154 13V5.94258H254.841L254.962 6.78626C255.14 6.51842 255.341 6.31755 255.564 6.18363C255.787 6.04078 256.019 5.94704 256.261 5.9024C256.502 5.84884 256.747 5.82205 256.997 5.82205C257.113 5.82205 257.22 5.82652 257.318 5.83544C257.417 5.83544 257.488 5.83544 257.533 5.83544V7.64332H257.091C256.671 7.64332 256.305 7.71475 255.993 7.85759C255.68 8.00043 255.439 8.22363 255.27 8.52717C255.109 8.83072 255.028 9.21908 255.028 9.69225V13H253.154ZM261.441 13.0937C260.717 13.0937 260.097 12.9464 259.579 12.6518C259.07 12.3572 258.682 11.9421 258.414 11.4064C258.146 10.8618 258.012 10.2235 258.012 9.49138C258.012 8.75037 258.151 8.10757 258.427 7.56297C258.704 7.00945 259.102 6.58092 259.619 6.27737C260.146 5.97383 260.78 5.82205 261.521 5.82205C262.092 5.82205 262.601 5.92472 263.048 6.13006C263.494 6.3354 263.851 6.63002 264.119 7.01391C264.396 7.39781 264.556 7.87098 264.601 8.43343H262.766C262.686 8.12096 262.53 7.8933 262.298 7.75046C262.074 7.60761 261.807 7.53619 261.494 7.53619C261.092 7.53619 260.771 7.6344 260.53 7.83081C260.298 8.02722 260.128 8.2772 260.021 8.58074C259.923 8.88429 259.874 9.18783 259.874 9.49138C259.874 9.82171 259.927 10.1342 260.034 10.4288C260.142 10.7145 260.311 10.9511 260.543 11.1386C260.784 11.3171 261.097 11.4064 261.481 11.4064C261.802 11.4064 262.083 11.335 262.324 11.1921C262.566 11.0403 262.722 10.8082 262.793 10.4958H264.668C264.623 11.0761 264.449 11.5582 264.146 11.9421C263.842 12.326 263.454 12.6161 262.981 12.8125C262.516 13 262.003 13.0937 261.441 13.0937ZM269.027 13.0937C268.286 13.0937 267.657 12.9464 267.139 12.6518C266.621 12.3572 266.224 11.9421 265.947 11.4064C265.67 10.8618 265.532 10.2279 265.532 9.50477C265.532 8.77269 265.675 8.13435 265.961 7.58976C266.246 7.03623 266.648 6.60324 267.166 6.29076C267.693 5.97829 268.313 5.82205 269.027 5.82205C269.563 5.82205 270.032 5.91133 270.433 6.08989C270.844 6.26844 271.188 6.51842 271.465 6.83982C271.75 7.16122 271.96 7.53619 272.094 7.96472C272.237 8.38433 272.304 8.83965 272.295 9.33068C272.295 9.45567 272.29 9.57619 272.281 9.69225C272.273 9.80831 272.255 9.92437 272.228 10.0404H267.394C267.42 10.3083 267.496 10.5538 267.621 10.777C267.746 11.0002 267.92 11.1787 268.143 11.3126C268.376 11.4376 268.661 11.5001 269.001 11.5001C269.224 11.5001 269.429 11.4778 269.617 11.4332C269.804 11.3796 269.965 11.2993 270.099 11.1921C270.233 11.085 270.326 10.96 270.38 10.8172H272.228C272.112 11.3439 271.893 11.7769 271.572 12.1161C271.259 12.4554 270.88 12.7054 270.433 12.8661C269.987 13.0179 269.518 13.0937 269.027 13.0937ZM267.434 8.72805H270.5C270.491 8.487 270.429 8.2638 270.313 8.05847C270.206 7.8442 270.041 7.67457 269.817 7.54958C269.603 7.41566 269.326 7.34871 268.987 7.34871C268.648 7.34871 268.362 7.41566 268.13 7.54958C267.907 7.6835 267.737 7.85759 267.621 8.07186C267.514 8.2772 267.452 8.49593 267.434 8.72805ZM273.503 13V5.94258H275.257L275.351 6.75947C275.547 6.51842 275.77 6.33094 276.02 6.19702C276.279 6.05418 276.538 5.95597 276.797 5.9024C277.065 5.84884 277.306 5.82205 277.52 5.82205C278.199 5.82205 278.726 5.96936 279.1 6.26398C279.484 6.5586 279.757 6.95588 279.917 7.45584C280.087 7.94687 280.172 8.49593 280.172 9.10302V13H278.297V9.34407C278.297 9.1298 278.279 8.91553 278.243 8.70127C278.208 8.487 278.141 8.29059 278.043 8.11203C277.953 7.93348 277.824 7.79063 277.654 7.6835C277.485 7.57636 277.261 7.5228 276.985 7.5228C276.627 7.5228 276.328 7.61208 276.087 7.79063C275.846 7.96919 275.668 8.21024 275.552 8.51378C275.436 8.81733 275.378 9.15212 275.378 9.51816V13H273.503ZM284.49 13.0937C283.696 13.0937 283.106 12.8705 282.723 12.4242C282.348 11.9778 282.16 11.3662 282.16 10.5895V7.61654H281.102V5.94258H282.16V4.04096H284.035V5.94258H286.178V7.61654H284.035V10.2011C284.035 10.4333 284.062 10.6341 284.115 10.8038C284.178 10.9734 284.276 11.1073 284.41 11.2055C284.553 11.2948 284.745 11.3394 284.986 11.3394C285.2 11.3394 285.379 11.3082 285.521 11.2457C285.673 11.1743 285.798 11.0984 285.896 11.018L286.486 12.4643C286.298 12.6161 286.088 12.7411 285.856 12.8393C285.633 12.9286 285.405 12.9911 285.173 13.0268C284.941 13.0714 284.713 13.0937 284.49 13.0937ZM289.497 13.0937C289.176 13.0937 288.863 13.0536 288.56 12.9732C288.265 12.8839 288.002 12.75 287.77 12.5715C287.537 12.3929 287.354 12.1697 287.22 11.9019C287.087 11.634 287.02 11.3216 287.02 10.9645C287.02 10.4824 287.118 10.0985 287.314 9.81278C287.511 9.51816 287.774 9.29497 288.104 9.14319C288.435 8.99142 288.814 8.88875 289.243 8.83518C289.68 8.78162 290.131 8.75483 290.595 8.75483H291.613C291.613 8.49593 291.564 8.26827 291.466 8.07186C291.376 7.86652 291.238 7.71028 291.05 7.60315C290.863 7.48709 290.622 7.42906 290.327 7.42906C290.14 7.42906 289.957 7.45584 289.778 7.50941C289.609 7.55405 289.466 7.621 289.35 7.71028C289.234 7.79956 289.158 7.91562 289.122 8.05847H287.22C287.274 7.66564 287.399 7.33085 287.595 7.05409C287.792 6.7684 288.037 6.53628 288.332 6.35772C288.627 6.17916 288.948 6.04971 289.296 5.96936C289.653 5.88008 290.019 5.83544 290.394 5.83544C291.421 5.83544 292.18 6.13006 292.671 6.7193C293.162 7.2996 293.407 8.12542 293.407 9.19676V13H291.72L291.693 12.0894C291.47 12.4018 291.216 12.6295 290.93 12.7723C290.653 12.9152 290.385 13.0045 290.126 13.0402C289.868 13.0759 289.658 13.0937 289.497 13.0937ZM289.926 11.6073C290.238 11.6073 290.524 11.5448 290.783 11.4198C291.042 11.2948 291.247 11.1252 291.399 10.9109C291.55 10.6966 291.626 10.4556 291.626 10.1877V10.0137H290.341C290.153 10.0137 289.97 10.0226 289.792 10.0404C289.622 10.0583 289.466 10.094 289.323 10.1476C289.189 10.1922 289.082 10.2681 289.002 10.3752C288.921 10.4824 288.881 10.6252 288.881 10.8038C288.881 10.9823 288.926 11.1341 289.015 11.2591C289.113 11.3751 289.243 11.4644 289.403 11.5269C289.564 11.5805 289.738 11.6073 289.926 11.6073ZM298.273 16.2676C297.72 16.2676 297.211 16.1783 296.747 15.9997C296.283 15.8301 295.89 15.5578 295.568 15.1828C295.247 14.8079 295.028 14.3258 294.912 13.7365H296.827C296.89 13.9151 296.988 14.0624 297.122 14.1785C297.265 14.3035 297.434 14.3972 297.631 14.4597C297.836 14.5222 298.05 14.5534 298.273 14.5534C298.693 14.5534 299.019 14.4642 299.251 14.2856C299.483 14.107 299.644 13.8705 299.733 13.5758C299.822 13.2902 299.867 12.9732 299.867 12.625V12.1295C299.706 12.3884 299.505 12.5849 299.264 12.7188C299.023 12.8527 298.769 12.9464 298.501 13C298.242 13.0625 297.992 13.0937 297.751 13.0937C297.01 13.0937 296.407 12.9286 295.943 12.5982C295.479 12.2679 295.14 11.8349 294.925 11.2993C294.711 10.7547 294.604 10.1699 294.604 9.54494C294.604 8.8575 294.725 8.23256 294.966 7.67011C295.207 7.10766 295.568 6.66127 296.05 6.33094C296.532 6.00061 297.135 5.83544 297.858 5.83544C298.296 5.83544 298.684 5.90687 299.023 6.04971C299.363 6.18363 299.653 6.3845 299.894 6.65234L300.055 5.94258H301.769V12.1028C301.769 12.9598 301.657 13.6964 301.434 14.3124C301.211 14.9373 300.84 15.4194 300.322 15.7587C299.813 16.0979 299.13 16.2676 298.273 16.2676ZM298.166 11.4064C298.559 11.4064 298.88 11.3171 299.13 11.1386C299.389 10.96 299.581 10.7234 299.706 10.4288C299.831 10.1253 299.894 9.79939 299.894 9.4512C299.894 9.08516 299.831 8.7593 299.706 8.47361C299.581 8.17899 299.394 7.94687 299.144 7.77724C298.894 7.59868 298.572 7.50941 298.18 7.50941C297.751 7.50941 297.412 7.61208 297.162 7.81742C296.912 8.01383 296.733 8.2638 296.626 8.56735C296.528 8.86197 296.479 9.17444 296.479 9.50477C296.479 9.84402 296.532 10.161 296.64 10.4556C296.747 10.7413 296.925 10.9734 297.175 11.1519C297.425 11.3216 297.756 11.4064 298.166 11.4064ZM306.469 13.0937C305.728 13.0937 305.099 12.9464 304.581 12.6518C304.063 12.3572 303.666 11.9421 303.389 11.4064C303.112 10.8618 302.974 10.2279 302.974 9.50477C302.974 8.77269 303.117 8.13435 303.402 7.58976C303.688 7.03623 304.09 6.60324 304.608 6.29076C305.134 5.97829 305.755 5.82205 306.469 5.82205C307.005 5.82205 307.473 5.91133 307.875 6.08989C308.286 6.26844 308.63 6.51842 308.906 6.83982C309.192 7.16122 309.402 7.53619 309.536 7.96472C309.679 8.38433 309.746 8.83965 309.737 9.33068C309.737 9.45567 309.732 9.57619 309.723 9.69225C309.714 9.80831 309.697 9.92437 309.67 10.0404H304.835C304.862 10.3083 304.938 10.5538 305.063 10.777C305.188 11.0002 305.362 11.1787 305.585 11.3126C305.817 11.4376 306.103 11.5001 306.442 11.5001C306.666 11.5001 306.871 11.4778 307.058 11.4332C307.246 11.3796 307.407 11.2993 307.54 11.1921C307.674 11.085 307.768 10.96 307.822 10.8172H309.67C309.554 11.3439 309.335 11.7769 309.014 12.1161C308.701 12.4554 308.322 12.7054 307.875 12.8661C307.429 13.0179 306.96 13.0937 306.469 13.0937ZM304.876 8.72805H307.942C307.933 8.487 307.871 8.2638 307.755 8.05847C307.648 7.8442 307.482 7.67457 307.259 7.54958C307.045 7.41566 306.768 7.34871 306.429 7.34871C306.09 7.34871 305.804 7.41566 305.572 7.54958C305.349 7.6835 305.179 7.85759 305.063 8.07186C304.956 8.2772 304.893 8.49593 304.876 8.72805ZM315.889 8.56735C315.577 8.56735 315.304 8.46914 315.072 8.27273C314.84 8.07632 314.724 7.7951 314.724 7.42906C314.724 7.17015 314.778 6.95588 314.885 6.78626C315.001 6.6077 315.148 6.46932 315.327 6.37111C315.505 6.27291 315.697 6.2238 315.903 6.2238C316.224 6.2238 316.496 6.33094 316.719 6.5452C316.943 6.75054 317.054 7.0407 317.054 7.41566C317.054 7.7817 316.938 8.06739 316.706 8.27273C316.474 8.46914 316.202 8.56735 315.889 8.56735ZM315.889 13.1205C315.577 13.1205 315.304 13.0223 315.072 12.8259C314.84 12.6206 314.724 12.3349 314.724 11.9688C314.724 11.7189 314.778 11.5046 314.885 11.326C315.001 11.1475 315.148 11.0091 315.327 10.9109C315.505 10.8127 315.697 10.7636 315.903 10.7636C316.224 10.7636 316.496 10.8707 316.719 11.085C316.943 11.2993 317.054 11.5894 317.054 11.9554C317.054 12.3215 316.938 12.6072 316.706 12.8125C316.474 13.0179 316.202 13.1205 315.889 13.1205ZM325.938 13.1071C325.269 13.1071 324.697 12.9821 324.224 12.7322C323.751 12.4822 323.363 12.1385 323.059 11.701C322.756 11.2635 322.532 10.7681 322.39 10.2145C322.256 9.65208 322.189 9.06284 322.189 8.44682C322.189 7.76831 322.265 7.12998 322.416 6.53181C322.568 5.92472 322.805 5.38906 323.126 4.92481C323.447 4.45164 323.854 4.08113 324.345 3.8133C324.845 3.54547 325.443 3.41155 326.139 3.41155C326.675 3.41155 327.161 3.50529 327.599 3.69277C328.045 3.88026 328.42 4.16595 328.724 4.54984C329.027 4.92481 329.224 5.40691 329.313 5.99615H327.492C327.385 5.73724 327.202 5.5319 326.943 5.38013C326.693 5.22835 326.398 5.15247 326.059 5.15247C325.746 5.15247 325.474 5.2105 325.242 5.32656C325.01 5.43369 324.809 5.58547 324.639 5.78188C324.479 5.96936 324.345 6.18363 324.238 6.42468C324.13 6.66573 324.055 6.92017 324.01 7.18801C323.965 7.44691 323.943 7.70582 323.943 7.96472C324.157 7.67011 324.403 7.43798 324.68 7.26836C324.965 7.09873 325.251 6.98267 325.537 6.92017C325.822 6.84875 326.081 6.81304 326.313 6.81304C326.947 6.81304 327.492 6.93803 327.947 7.18801C328.402 7.43798 328.751 7.79063 328.992 8.24595C329.242 8.69234 329.367 9.22354 329.367 9.83956C329.367 10.5002 329.219 11.0761 328.925 11.5671C328.63 12.0581 328.224 12.4375 327.706 12.7054C327.197 12.9732 326.608 13.1071 325.938 13.1071ZM325.952 11.3528C326.273 11.3528 326.541 11.2859 326.755 11.1519C326.978 11.018 327.148 10.8439 327.264 10.6297C327.38 10.4065 327.438 10.1699 327.438 9.91991C327.438 9.65208 327.38 9.41103 327.264 9.19676C327.148 8.97356 326.983 8.79501 326.769 8.66109C326.554 8.52717 326.291 8.46022 325.979 8.46022C325.684 8.46022 325.412 8.52717 325.162 8.66109C324.921 8.78608 324.733 8.96017 324.599 9.18337C324.465 9.39763 324.398 9.64315 324.398 9.91991C324.398 10.1699 324.461 10.4065 324.586 10.6297C324.711 10.8439 324.889 11.018 325.121 11.1519C325.354 11.2859 325.63 11.3528 325.952 11.3528ZM334.335 13.1071C333.639 13.1071 333.05 12.9821 332.568 12.7322C332.085 12.4822 331.693 12.1385 331.389 11.701C331.086 11.2546 330.867 10.7413 330.733 10.161C330.599 9.57173 330.532 8.94678 330.532 8.28612C330.532 7.60761 330.599 6.97374 330.733 6.3845C330.876 5.79527 331.099 5.27746 331.402 4.83107C331.715 4.38468 332.112 4.03649 332.594 3.78652C333.085 3.53654 333.675 3.41155 334.362 3.41155C335.076 3.41155 335.674 3.541 336.157 3.79991C336.648 4.05881 337.04 4.42039 337.335 4.88464C337.639 5.33995 337.853 5.85776 337.978 6.43807C338.112 7.01838 338.179 7.62547 338.179 8.25934C338.179 8.91107 338.112 9.52709 337.978 10.1074C337.844 10.6877 337.63 11.2055 337.335 11.6608C337.04 12.1072 336.648 12.4599 336.157 12.7188C335.665 12.9777 335.058 13.1071 334.335 13.1071ZM334.335 11.3394C334.773 11.3394 335.116 11.2412 335.366 11.0448C335.625 10.8395 335.817 10.5761 335.942 10.2547C336.076 9.9333 336.161 9.59851 336.197 9.25033C336.241 8.89321 336.264 8.56289 336.264 8.25934C336.264 7.97365 336.241 7.65672 336.197 7.30853C336.161 6.95142 336.081 6.61663 335.956 6.30415C335.831 5.98275 335.643 5.71938 335.393 5.51404C335.143 5.30871 334.804 5.20604 334.375 5.20604C333.947 5.20604 333.603 5.30871 333.344 5.51404C333.085 5.71046 332.889 5.96936 332.755 6.29076C332.63 6.61216 332.545 6.94696 332.501 7.29514C332.456 7.64332 332.434 7.96472 332.434 8.25934C332.434 8.55396 332.451 8.87982 332.487 9.23693C332.532 9.59405 332.617 9.9333 332.742 10.2547C332.867 10.5761 333.054 10.8395 333.304 11.0448C333.563 11.2412 333.907 11.3394 334.335 11.3394ZM340.554 13.1741C340.232 13.1741 339.96 13.0759 339.737 12.8795C339.513 12.6831 339.402 12.4018 339.402 12.0358C339.402 11.6608 339.513 11.3662 339.737 11.1519C339.969 10.9377 340.241 10.8305 340.554 10.8305C340.866 10.8305 341.134 10.9377 341.357 11.1519C341.58 11.3573 341.692 11.6474 341.692 12.0224C341.692 12.3974 341.58 12.6831 341.357 12.8795C341.134 13.0759 340.866 13.1741 340.554 13.1741ZM346.797 13.1071C346.128 13.1071 345.557 12.9821 345.083 12.7322C344.61 12.4822 344.222 12.1385 343.918 11.701C343.615 11.2635 343.392 10.7681 343.249 10.2145C343.115 9.65208 343.048 9.06284 343.048 8.44682C343.048 7.76831 343.124 7.12998 343.275 6.53181C343.427 5.92472 343.664 5.38906 343.985 4.92481C344.307 4.45164 344.713 4.08113 345.204 3.8133C345.704 3.54547 346.302 3.41155 346.998 3.41155C347.534 3.41155 348.021 3.50529 348.458 3.69277C348.904 3.88026 349.279 4.16595 349.583 4.54984C349.886 4.92481 350.083 5.40691 350.172 5.99615H348.351C348.244 5.73724 348.061 5.5319 347.802 5.38013C347.552 5.22835 347.257 5.15247 346.918 5.15247C346.606 5.15247 346.333 5.2105 346.101 5.32656C345.869 5.43369 345.668 5.58547 345.498 5.78188C345.338 5.96936 345.204 6.18363 345.097 6.42468C344.99 6.66573 344.914 6.92017 344.869 7.18801C344.824 7.44691 344.802 7.70582 344.802 7.96472C345.016 7.67011 345.262 7.43798 345.539 7.26836C345.824 7.09873 346.11 6.98267 346.396 6.92017C346.681 6.84875 346.94 6.81304 347.172 6.81304C347.806 6.81304 348.351 6.93803 348.806 7.18801C349.262 7.43798 349.61 7.79063 349.851 8.24595C350.101 8.69234 350.226 9.22354 350.226 9.83956C350.226 10.5002 350.078 11.0761 349.784 11.5671C349.489 12.0581 349.083 12.4375 348.565 12.7054C348.056 12.9732 347.467 13.1071 346.797 13.1071ZM346.811 11.3528C347.132 11.3528 347.4 11.2859 347.614 11.1519C347.838 11.018 348.007 10.8439 348.123 10.6297C348.239 10.4065 348.297 10.1699 348.297 9.91991C348.297 9.65208 348.239 9.41103 348.123 9.19676C348.007 8.97356 347.842 8.79501 347.628 8.66109C347.413 8.52717 347.15 8.46022 346.838 8.46022C346.543 8.46022 346.271 8.52717 346.021 8.66109C345.78 8.78608 345.592 8.96017 345.458 9.18337C345.324 9.39763 345.257 9.64315 345.257 9.91991C345.257 10.1699 345.32 10.4065 345.445 10.6297C345.57 10.8439 345.748 11.018 345.981 11.1519C346.213 11.2859 346.489 11.3528 346.811 11.3528ZM354.833 13.0937C354.377 13.0937 353.94 13.0402 353.52 12.933C353.101 12.8259 352.717 12.6563 352.369 12.4242C352.021 12.192 351.73 11.8974 351.498 11.5403C351.266 11.1743 351.123 10.7368 351.07 10.2279H352.971C353.034 10.4779 353.154 10.6877 353.333 10.8573C353.52 11.018 353.744 11.1341 354.003 11.2055C354.27 11.2769 354.552 11.3126 354.846 11.3126C355.043 11.3126 355.235 11.2948 355.422 11.2591C355.618 11.2234 355.793 11.1609 355.944 11.0716C356.105 10.9823 356.23 10.8618 356.319 10.71C356.409 10.5582 356.453 10.3663 356.453 10.1342C356.453 9.91991 356.413 9.74136 356.333 9.59851C356.252 9.45567 356.145 9.3396 356.011 9.25033C355.877 9.16105 355.717 9.09855 355.529 9.06284C355.351 9.02713 355.159 9.00928 354.953 9.00928H353.855V7.37549H354.592C354.824 7.37549 355.034 7.35317 355.221 7.30853C355.409 7.25496 355.565 7.18354 355.69 7.09426C355.824 6.99606 355.926 6.88 355.998 6.74608C356.069 6.60324 356.105 6.44254 356.105 6.26398C356.105 5.99614 356.047 5.78634 355.931 5.63457C355.815 5.47387 355.654 5.35781 355.449 5.28639C355.243 5.21496 355.007 5.17925 354.739 5.17925C354.489 5.17925 354.252 5.21943 354.029 5.29978C353.815 5.3712 353.636 5.47833 353.494 5.62118C353.351 5.76402 353.257 5.93811 353.212 6.14345H351.351C351.405 5.66135 351.534 5.25067 351.739 4.91142C351.945 4.56323 352.208 4.27754 352.529 4.05435C352.851 3.83116 353.208 3.67045 353.601 3.57225C354.003 3.46512 354.418 3.41155 354.846 3.41155C355.257 3.41155 355.65 3.45619 356.025 3.54547C356.4 3.63474 356.734 3.78205 357.029 3.98739C357.333 4.1838 357.574 4.44717 357.752 4.7775C357.931 5.10783 358.02 5.50512 358.02 5.96936C358.02 6.25505 357.971 6.52288 357.873 6.77286C357.783 7.02284 357.65 7.24604 357.471 7.44245C357.301 7.62993 357.1 7.78617 356.868 7.91116C357.217 8.00936 357.502 8.17006 357.725 8.39326C357.949 8.61645 358.114 8.87982 358.221 9.18337C358.337 9.48691 358.395 9.81278 358.395 10.161C358.395 10.7323 358.288 11.21 358.074 11.5939C357.868 11.9688 357.591 12.2679 357.243 12.4911C356.895 12.7054 356.511 12.8616 356.092 12.9598C355.672 13.0491 355.252 13.0937 354.833 13.0937ZM360.876 13L367.036 3.51868H368.965L362.831 13H360.876ZM367.96 13.0937C367.505 13.0937 367.103 13 366.755 12.8125C366.416 12.6161 366.148 12.3438 365.952 11.9956C365.764 11.6474 365.67 11.2368 365.67 10.7636C365.67 10.2904 365.769 9.87974 365.965 9.53155C366.161 9.18337 366.434 8.91553 366.782 8.72805C367.13 8.53164 367.532 8.43343 367.987 8.43343C368.434 8.43343 368.826 8.52717 369.166 8.71466C369.505 8.90214 369.768 9.16998 369.956 9.51816C370.143 9.85742 370.237 10.2681 370.237 10.7502C370.237 11.2234 370.139 11.6385 369.942 11.9956C369.755 12.3438 369.487 12.6161 369.139 12.8125C368.8 13 368.407 13.0937 367.96 13.0937ZM367.96 11.6876C368.157 11.6876 368.318 11.6474 368.443 11.5671C368.568 11.4778 368.657 11.3617 368.71 11.2189C368.773 11.0761 368.804 10.9288 368.804 10.777C368.804 10.6252 368.773 10.4824 368.71 10.3484C368.657 10.2056 368.568 10.0895 368.443 10.0003C368.318 9.91098 368.157 9.86634 367.96 9.86634C367.648 9.86634 367.425 9.96455 367.291 10.161C367.157 10.3484 367.09 10.5582 367.09 10.7904C367.099 11.0225 367.17 11.2323 367.304 11.4198C367.438 11.5983 367.657 11.6876 367.96 11.6876ZM361.921 8.07186C361.457 8.07186 361.055 7.97812 360.716 7.79063C360.376 7.59422 360.108 7.32192 359.912 6.97374C359.725 6.62555 359.631 6.21934 359.631 5.75509C359.631 5.27299 359.725 4.85785 359.912 4.50967C360.108 4.16148 360.381 3.89365 360.729 3.70617C361.077 3.50975 361.479 3.41155 361.934 3.41155C362.389 3.41155 362.782 3.50529 363.113 3.69277C363.452 3.88026 363.715 4.14809 363.903 4.49628C364.09 4.83553 364.184 5.24621 364.184 5.72831C364.184 6.20148 364.09 6.61663 363.903 6.97374C363.715 7.32192 363.447 7.59422 363.099 7.79063C362.76 7.97812 362.367 8.07186 361.921 8.07186ZM361.921 6.65234C362.117 6.65234 362.278 6.61216 362.403 6.53181C362.528 6.44253 362.617 6.33094 362.671 6.19702C362.724 6.05418 362.751 5.9024 362.751 5.7417C362.751 5.58993 362.72 5.44709 362.657 5.31317C362.604 5.17032 362.514 5.05426 362.389 4.96498C362.273 4.87571 362.117 4.83107 361.921 4.83107C361.608 4.83107 361.381 4.92927 361.238 5.12569C361.104 5.31317 361.041 5.52744 361.05 5.76849C361.05 6.00061 361.117 6.20595 361.251 6.3845C361.394 6.56306 361.617 6.65234 361.921 6.65234Z" fill="white"/>
<g filter="url(#filter0_d_573_349)">
<line x1="4" y1="7.90002" x2="104" y2="7.90002" stroke="url(#paint0_linear_573_349)" stroke-width="2" stroke-dasharray="4 4"/>
</g>
<defs>
<filter id="filter0_d_573_349" x="0" y="6.90002" width="108" height="10" filterUnits="userSpaceOnUse" color-interpolation-filters="sRGB">
<feFlood flood-opacity="0" result="BackgroundImageFix"/>
<feColorMatrix in="SourceAlpha" type="matrix" values="0 0 0 0 0 0 0 0 0 0 0 0 0 0 0 0 0 0 127 0" result="hardAlpha"/>
<feOffset dy="4"/>
<feGaussianBlur stdDeviation="2"/>
<feComposite in2="hardAlpha" operator="out"/>
<feColorMatrix type="matrix" values="0 0 0 0 0 0 0 0 0 0 0 0 0 0 0 0 0 0 0.25 0"/>
<feBlend mode="normal" in2="BackgroundImageFix" result="effect1_dropShadow_573_349"/>
<feBlend mode="normal" in="SourceGraphic" in2="effect1_dropShadow_573_349" result="shape"/>
</filter>
<linearGradient id="paint0_linear_573_349" x1="97.6457" y1="-3.10829" x2="3.99566" y2="-3.19063" gradientUnits="userSpaceOnUse">
<stop stop-color="#F49D0C"/>
<stop offset="0.328125" stop-color="#FEF3C7"/>
<stop offset="0.609375" stop-color="#8BC1F6"/>
<stop offset="1" stop-color="#409AF0"/>
</linearGradient>
</defs>
</svg>
