<svg width="130" height="15" viewBox="0 0 130 15" fill="none" xmlns="http://www.w3.org/2000/svg">
<path d="M4.37505 11.1071C3.71448 11.1071 3.09854 11.0045 2.52723 10.7991C1.96485 10.5938 1.49174 10.268 1.10789 9.82168C0.73297 9.37535 0.496413 8.79958 0.39822 8.09437H2.35316C2.4335 8.39788 2.58079 8.64336 2.79503 8.83082C3.00927 9.00935 3.26368 9.13879 3.55826 9.21913C3.86177 9.29947 4.17866 9.33964 4.50895 9.33964C4.7589 9.33964 5.00438 9.3084 5.2454 9.24591C5.48642 9.18342 5.68281 9.0763 5.83456 8.92455C5.99524 8.7728 6.07558 8.56748 6.07558 8.30861C6.07558 8.11222 6.03095 7.95154 5.94168 7.82657C5.86134 7.7016 5.74083 7.6034 5.58015 7.53199C5.4284 7.45165 5.24094 7.38024 5.01777 7.31775C4.83031 7.26419 4.63392 7.21956 4.42861 7.18385C4.23222 7.14814 4.03584 7.10351 3.83945 7.04995C3.65199 6.99639 3.46899 6.9339 3.29046 6.86249C2.95125 6.77322 2.62542 6.6661 2.31299 6.54113C2.00056 6.40723 1.72383 6.24209 1.48281 6.0457C1.24179 5.84039 1.04987 5.58598 0.90704 5.28247C0.77314 4.97896 0.70619 4.61297 0.70619 4.18449C0.70619 3.7203 0.782066 3.32753 0.93382 3.00617C1.0945 2.68481 1.30428 2.42147 1.56315 2.21616C1.83095 2.00192 2.12553 1.83678 2.44689 1.72073C2.77718 1.60468 3.10746 1.52434 3.43775 1.47971C3.76804 1.43508 4.08047 1.41276 4.37505 1.41276C4.99099 1.41276 5.54444 1.51988 6.03541 1.73412C6.52638 1.94836 6.92808 2.26972 7.24051 2.6982C7.55294 3.12668 7.73148 3.66674 7.77611 4.31839H5.9149C5.87919 4.05059 5.781 3.83189 5.62032 3.66228C5.45964 3.49267 5.25433 3.3677 5.00438 3.28736C4.76336 3.20702 4.4911 3.16685 4.18759 3.16685C3.9912 3.16685 3.79928 3.1847 3.61182 3.22041C3.42436 3.25612 3.25475 3.31414 3.103 3.39448C2.96017 3.46589 2.84413 3.56409 2.75486 3.68906C2.67452 3.81403 2.63435 3.96579 2.63435 4.14432C2.63435 4.32285 2.68345 4.47907 2.78164 4.61297C2.87983 4.73794 3.02266 4.84953 3.21012 4.94772C3.40651 5.03699 3.63414 5.12179 3.89301 5.20213C4.16081 5.2914 4.442 5.36281 4.73658 5.41637C5.03116 5.46993 5.31235 5.54134 5.58015 5.63061C5.91936 5.71988 6.23626 5.827 6.53084 5.95197C6.82542 6.06802 7.08429 6.21977 7.30746 6.40723C7.53063 6.58576 7.7047 6.81786 7.82967 7.10351C7.95464 7.38024 8.01713 7.72391 8.01713 8.13454C8.01713 8.67907 7.91447 9.14325 7.70916 9.5271C7.51277 9.90202 7.24051 10.2055 6.89237 10.4376C6.55316 10.6697 6.16485 10.8393 5.72744 10.9464C5.29003 11.0536 4.83924 11.1071 4.37505 11.1071ZM12.5718 11C11.9827 11 11.4872 10.9286 11.0855 10.7858C10.6928 10.6429 10.3937 10.4019 10.1884 10.0627C9.99202 9.71456 9.89382 9.24145 9.89382 8.64336V5.61722H8.8494V3.94347H9.89382V2.05548H11.7684V3.94347H13.3083V5.61722H11.7684V8.37556C11.7684 8.67014 11.822 8.90223 11.9291 9.07184C12.0362 9.24145 12.2772 9.32625 12.6522 9.32625H13.2413V11H12.5718ZM14.2752 11V3.94347H15.9623L16.0828 4.78704C16.2614 4.51924 16.4622 4.31839 16.6854 4.18449C16.9085 4.04166 17.1406 3.94793 17.3817 3.9033C17.6227 3.84974 17.8682 3.82296 18.1181 3.82296C18.2342 3.82296 18.3413 3.82742 18.4395 3.83635C18.5377 3.83635 18.6091 3.83635 18.6537 3.83635V5.644H18.2118C17.7923 5.644 17.4263 5.71541 17.1139 5.85824C16.8014 6.00107 16.5604 6.22423 16.3908 6.52774C16.2301 6.83125 16.1498 7.21956 16.1498 7.69267V11H14.2752ZM22.695 11.0937C21.9808 11.0937 21.356 10.9509 20.8204 10.6652C20.2848 10.3707 19.8697 9.95558 19.5751 9.41998C19.2805 8.87545 19.1332 8.23273 19.1332 7.49182C19.1332 6.73305 19.2805 6.08141 19.5751 5.53688C19.8786 4.98343 20.2982 4.55941 20.8338 4.26483C21.3694 3.97025 21.9853 3.82296 22.6816 3.82296C23.3957 3.82296 24.0161 3.97471 24.5428 4.27822C25.0695 4.58173 25.4801 5.00574 25.7747 5.55027C26.0693 6.0948 26.2165 6.74644 26.2165 7.50521C26.2165 8.24612 26.0693 8.88884 25.7747 9.43337C25.489 9.96897 25.0829 10.3796 24.5562 10.6652C24.0384 10.9509 23.418 11.0937 22.695 11.0937ZM22.6682 9.37981C23.0788 9.37981 23.4091 9.29054 23.6591 9.11201C23.909 8.93348 24.0875 8.70138 24.1947 8.41573C24.3107 8.12115 24.3687 7.81318 24.3687 7.49182C24.3687 7.17046 24.3107 6.86249 24.1947 6.56791C24.0875 6.27333 23.909 6.03231 23.6591 5.84485C23.418 5.64846 23.0878 5.55027 22.6682 5.55027C22.2665 5.55027 21.9407 5.64846 21.6907 5.84485C21.4408 6.03231 21.2578 6.27333 21.1417 6.56791C21.0346 6.86249 20.9811 7.17046 20.9811 7.49182C20.9811 7.82211 21.0346 8.13008 21.1417 8.41573C21.2578 8.70138 21.4408 8.93348 21.6907 9.11201C21.9407 9.29054 22.2665 9.37981 22.6682 9.37981ZM27.4167 11V3.94347H29.1708L29.2646 4.76026C29.4609 4.51924 29.6841 4.33178 29.9341 4.19788C30.1929 4.05505 30.4518 3.95686 30.7107 3.9033C30.9785 3.84974 31.2195 3.82296 31.4337 3.82296C32.1122 3.82296 32.6388 3.97025 33.0138 4.26483C33.3976 4.55941 33.6699 4.95665 33.8305 5.45654C34.0001 5.94751 34.085 6.4965 34.085 7.10351V11H32.2104V7.34453C32.2104 7.13029 32.1925 6.91605 32.1568 6.70181C32.1211 6.48757 32.0541 6.29118 31.9559 6.11265C31.8667 5.93412 31.7372 5.79129 31.5676 5.68417C31.398 5.57705 31.1749 5.52349 30.8981 5.52349C30.5411 5.52349 30.242 5.61276 30.001 5.79129C29.76 5.96982 29.5814 6.21084 29.4654 6.51435C29.3494 6.81786 29.2913 7.15261 29.2913 7.5186V11H27.4167ZM38.925 14.2672C38.3716 14.2672 37.8627 14.1779 37.3986 13.9994C36.9344 13.8298 36.5416 13.5575 36.2202 13.1826C35.8989 12.8077 35.6802 12.3256 35.5641 11.7365H37.4789C37.5414 11.915 37.6396 12.0623 37.7735 12.1783C37.9163 12.3033 38.0859 12.397 38.2823 12.4595C38.4876 12.522 38.7018 12.5532 38.925 12.5532C39.3446 12.5532 39.6704 12.464 39.9025 12.2854C40.1346 12.1069 40.2953 11.8704 40.3845 11.5758C40.4738 11.2901 40.5184 10.9732 40.5184 10.6251V10.1296C40.3577 10.3885 40.1569 10.5849 39.9159 10.7188C39.6749 10.8527 39.4204 10.9464 39.1526 11C38.8938 11.0625 38.6438 11.0937 38.4028 11.0937C37.6619 11.0937 37.0593 10.9286 36.5952 10.5983C36.131 10.268 35.7918 9.83507 35.5775 9.29947C35.3633 8.75494 35.2562 8.17025 35.2562 7.54538C35.2562 6.85803 35.3767 6.23316 35.6177 5.67078C35.8587 5.1084 36.2202 4.66207 36.7023 4.33178C37.1843 4.00149 37.7869 3.83635 38.5099 3.83635C38.9473 3.83635 39.3356 3.90776 39.6749 4.05059C40.0141 4.18449 40.3042 4.38534 40.5452 4.65314L40.7059 3.94347H42.4198V10.1029C42.4198 10.9598 42.3082 11.6963 42.0851 12.3122C41.8619 12.9371 41.4914 13.4191 40.9737 13.7583C40.4649 14.0976 39.782 14.2672 38.925 14.2672ZM38.8179 9.40659C39.2107 9.40659 39.532 9.31732 39.782 9.13879C40.0408 8.96026 40.2328 8.7237 40.3577 8.42912C40.4827 8.12561 40.5452 7.79979 40.5452 7.45165C40.5452 7.08566 40.4827 6.75983 40.3577 6.47418C40.2328 6.1796 40.0453 5.94751 39.7954 5.7779C39.5454 5.59937 39.2241 5.5101 38.8313 5.5101C38.4028 5.5101 38.0636 5.61276 37.8136 5.81807C37.5637 6.01446 37.3852 6.2644 37.278 6.56791C37.1799 6.86249 37.1308 7.17492 37.1308 7.50521C37.1308 7.84442 37.1843 8.16132 37.2914 8.4559C37.3986 8.74155 37.5771 8.97365 37.827 9.15218C38.077 9.32179 38.4073 9.40659 38.8179 9.40659ZM43.8927 11V1.51988H45.7673V11H43.8927ZM50.3732 14.2538C49.8286 14.2538 49.2975 14.1824 48.7797 14.0395C48.262 13.8967 47.7755 13.6557 47.3202 13.3165L47.9496 11.8168C48.2352 12.031 48.561 12.2006 48.927 12.3256C49.293 12.4595 49.6992 12.5265 50.1455 12.5265C50.8329 12.5265 51.3417 12.3658 51.672 12.0444C52.0112 11.7231 52.1808 11.2589 52.1808 10.6519V10.2769C52.0291 10.4823 51.8371 10.6474 51.605 10.7724C51.3819 10.8884 51.1408 10.9732 50.882 11.0268C50.6231 11.0803 50.3642 11.1071 50.1054 11.1071C49.4269 11.1071 48.8824 10.9643 48.4718 10.6786C48.0611 10.393 47.7621 10.0047 47.5746 9.51371C47.3961 9.01382 47.3068 8.44697 47.3068 7.81318V3.94347H49.1814V7.42487C49.1814 7.65696 49.1948 7.88906 49.2216 8.12115C49.2484 8.35324 49.3109 8.56748 49.4091 8.76387C49.5073 8.96026 49.6546 9.12094 49.8509 9.24591C50.0473 9.36196 50.3107 9.41998 50.641 9.41998C51.0694 9.41998 51.3908 9.31732 51.605 9.11201C51.8193 8.89777 51.9621 8.62997 52.0335 8.30861C52.1139 7.98725 52.154 7.6525 52.154 7.30436V3.94347H54.0286V9.98236C54.0286 10.6251 53.9661 11.2098 53.8412 11.7365C53.7251 12.2631 53.5243 12.7139 53.2386 13.0888C52.9619 13.4638 52.587 13.7494 52.1139 13.9458C51.6497 14.1511 51.0694 14.2538 50.3732 14.2538ZM59.2834 11V3.94347H61.158V11H59.2834ZM60.2207 3.2338C59.8725 3.2338 59.5913 3.13114 59.3771 2.92583C59.1629 2.71159 59.0557 2.43933 59.0557 2.10904C59.0557 1.7609 59.1673 1.47971 59.3905 1.26547C59.6136 1.05123 59.8948 0.944109 60.2341 0.944109C60.5465 0.944109 60.8143 1.05123 61.0375 1.26547C61.2695 1.47078 61.3856 1.74751 61.3856 2.09565C61.3856 2.43486 61.274 2.71159 61.0508 2.92583C60.8366 3.13114 60.5599 3.2338 60.2207 3.2338ZM62.6439 11V3.94347H64.398L64.4918 4.76026C64.6881 4.51924 64.9113 4.33178 65.1613 4.19788C65.4201 4.05505 65.679 3.95686 65.9379 3.9033C66.2057 3.84974 66.4467 3.82296 66.6609 3.82296C67.3394 3.82296 67.866 3.97025 68.241 4.26483C68.6248 4.55941 68.8971 4.95665 69.0577 5.45654C69.2274 5.94751 69.3122 6.4965 69.3122 7.10351V11H67.4376V7.34453C67.4376 7.13029 67.4197 6.91605 67.384 6.70181C67.3483 6.48757 67.2813 6.29118 67.1831 6.11265C67.0939 5.93412 66.9644 5.79129 66.7948 5.68417C66.6252 5.57705 66.4021 5.52349 66.1253 5.52349C65.7683 5.52349 65.4692 5.61276 65.2282 5.79129C64.9872 5.96982 64.8087 6.21084 64.6926 6.51435C64.5766 6.81786 64.5185 7.15261 64.5185 7.5186V11H62.6439ZM73.9514 11C73.3622 11 72.8668 10.9286 72.4651 10.7858C72.0723 10.6429 71.7733 10.4019 71.568 10.0627C71.3716 9.71456 71.2734 9.24145 71.2734 8.64336V5.61722H70.229V3.94347H71.2734V2.05548H73.148V3.94347H74.6878V5.61722H73.148V8.37556C73.148 8.67014 73.2015 8.90223 73.3087 9.07184C73.4158 9.24145 73.6568 9.32625 74.0317 9.32625H74.6209V11H73.9514ZM75.6547 11V3.94347H77.3419L77.4624 4.78704C77.6409 4.51924 77.8418 4.31839 78.0649 4.18449C78.2881 4.04166 78.5202 3.94793 78.7612 3.9033C79.0022 3.84974 79.2477 3.82296 79.4977 3.82296C79.6137 3.82296 79.7208 3.82742 79.819 3.83635C79.9172 3.83635 79.9886 3.83635 80.0333 3.83635V5.644H79.5914C79.1718 5.644 78.8058 5.71541 78.4934 5.85824C78.181 6.00107 77.94 6.22423 77.7704 6.52774C77.6097 6.83125 77.5293 7.21956 77.5293 7.69267V11H75.6547ZM84.0745 11.0937C83.3604 11.0937 82.7355 10.9509 82.1999 10.6652C81.6643 10.3707 81.2492 9.95558 80.9547 9.41998C80.6601 8.87545 80.5128 8.23273 80.5128 7.49182C80.5128 6.73305 80.6601 6.08141 80.9547 5.53688C81.2582 4.98343 81.6777 4.55941 82.2133 4.26483C82.7489 3.97025 83.3649 3.82296 84.0611 3.82296C84.7753 3.82296 85.3957 3.97471 85.9223 4.27822C86.449 4.58173 86.8596 5.00574 87.1542 5.55027C87.4488 6.0948 87.5961 6.74644 87.5961 7.50521C87.5961 8.24612 87.4488 8.88884 87.1542 9.43337C86.8686 9.96897 86.4624 10.3796 85.9357 10.6652C85.418 10.9509 84.7976 11.0937 84.0745 11.0937ZM84.0477 9.37981C84.4584 9.37981 84.7887 9.29054 85.0386 9.11201C85.2886 8.93348 85.4671 8.70138 85.5742 8.41573C85.6903 8.12115 85.7483 7.81318 85.7483 7.49182C85.7483 7.17046 85.6903 6.86249 85.5742 6.56791C85.4671 6.27333 85.2886 6.03231 85.0386 5.84485C84.7976 5.64846 84.4673 5.55027 84.0477 5.55027C83.646 5.55027 83.3202 5.64846 83.0703 5.84485C82.8203 6.03231 82.6373 6.27333 82.5213 6.56791C82.4142 6.86249 82.3606 7.17046 82.3606 7.49182C82.3606 7.82211 82.4142 8.13008 82.5213 8.41573C82.6373 8.70138 82.8203 8.93348 83.0703 9.11201C83.3202 9.29054 83.646 9.37981 84.0477 9.37981ZM90.537 11L88.0598 3.94347H90.1085L91.7956 9.47354L93.4694 3.94347H95.5315L93.0543 11H90.537ZM99.4898 11.0937C98.7489 11.0937 98.1195 10.9464 97.6018 10.6519C97.084 10.3573 96.6868 9.94219 96.4101 9.40659C96.1333 8.86206 95.995 8.22827 95.995 7.50521C95.995 6.77322 96.1378 6.13497 96.4235 5.59044C96.7091 5.03699 97.1108 4.60404 97.6286 4.29161C98.1552 3.97918 98.7756 3.82296 99.4898 3.82296C100.025 3.82296 100.494 3.91223 100.896 4.09076C101.306 4.26929 101.65 4.51924 101.927 4.8406C102.212 5.16196 102.422 5.53688 102.556 5.96536C102.699 6.38491 102.766 6.84017 102.757 7.33114C102.757 7.45611 102.752 7.57662 102.744 7.69267C102.735 7.80872 102.717 7.92476 102.69 8.04081H97.8562C97.883 8.30861 97.9588 8.55409 98.0838 8.77726C98.2088 9.00043 98.3829 9.17896 98.606 9.31286C98.8381 9.43783 99.1238 9.50032 99.463 9.50032C99.6862 9.50032 99.8915 9.478 100.079 9.43337C100.266 9.37981 100.427 9.29947 100.561 9.19235C100.695 9.08523 100.789 8.96026 100.842 8.81743H102.69C102.574 9.3441 102.355 9.77705 102.034 10.1163C101.721 10.4555 101.342 10.7054 100.896 10.8661C100.449 11.0179 99.9807 11.0937 99.4898 11.0937ZM97.8964 6.72859H100.963C100.954 6.48757 100.891 6.2644 100.775 6.05909C100.668 5.84485 100.503 5.67524 100.28 5.55027C100.066 5.41637 99.7888 5.34942 99.4496 5.34942C99.1104 5.34942 98.8247 5.41637 98.5926 5.55027C98.3695 5.68417 98.1999 5.85824 98.0838 6.07248C97.9767 6.27779 97.9142 6.4965 97.8964 6.72859ZM103.965 11V3.94347H105.652L105.772 4.78704C105.951 4.51924 106.152 4.31839 106.375 4.18449C106.598 4.04166 106.83 3.94793 107.071 3.9033C107.312 3.84974 107.558 3.82296 107.808 3.82296C107.924 3.82296 108.031 3.82742 108.129 3.83635C108.227 3.83635 108.299 3.83635 108.343 3.83635V5.644H107.901C107.482 5.644 107.116 5.71541 106.803 5.85824C106.491 6.00107 106.25 6.22423 106.08 6.52774C105.92 6.83125 105.839 7.21956 105.839 7.69267V11H103.965ZM112.1 11.0937C111.306 11.0937 110.716 10.8706 110.333 10.4242C109.958 9.9779 109.77 9.36642 109.77 8.5898V5.61722H108.712V3.94347H109.77V2.04209H111.645V3.94347H113.787V5.61722H111.645V8.20149C111.645 8.43358 111.672 8.63443 111.725 8.80404C111.788 8.97365 111.886 9.10755 112.02 9.20574C112.163 9.29501 112.355 9.33964 112.596 9.33964C112.81 9.33964 112.988 9.3084 113.131 9.24591C113.283 9.1745 113.408 9.09862 113.506 9.01828L114.095 10.4644C113.908 10.6162 113.698 10.7411 113.466 10.8393C113.243 10.9286 113.015 10.9911 112.783 11.0268C112.551 11.0714 112.323 11.0937 112.1 11.0937ZM118.097 11.0937C117.356 11.0937 116.727 10.9464 116.209 10.6519C115.691 10.3573 115.294 9.94219 115.017 9.40659C114.741 8.86206 114.602 8.22827 114.602 7.50521C114.602 6.77322 114.745 6.13497 115.031 5.59044C115.317 5.03699 115.718 4.60404 116.236 4.29161C116.763 3.97918 117.383 3.82296 118.097 3.82296C118.633 3.82296 119.101 3.91223 119.503 4.09076C119.914 4.26929 120.257 4.51924 120.534 4.8406C120.82 5.16196 121.03 5.53688 121.163 5.96536C121.306 6.38491 121.373 6.84017 121.364 7.33114C121.364 7.45611 121.36 7.57662 121.351 7.69267C121.342 7.80872 121.324 7.92476 121.297 8.04081H116.464C116.49 8.30861 116.566 8.55409 116.691 8.77726C116.816 9.00043 116.99 9.17896 117.213 9.31286C117.446 9.43783 117.731 9.50032 118.07 9.50032C118.294 9.50032 118.499 9.478 118.686 9.43337C118.874 9.37981 119.034 9.29947 119.168 9.19235C119.302 9.08523 119.396 8.96026 119.45 8.81743H121.297C121.181 9.3441 120.963 9.77705 120.641 10.1163C120.329 10.4555 119.949 10.7054 119.503 10.8661C119.057 11.0179 118.588 11.0937 118.097 11.0937ZM116.504 6.72859H119.57C119.561 6.48757 119.499 6.2644 119.383 6.05909C119.275 5.84485 119.11 5.67524 118.887 5.55027C118.673 5.41637 118.396 5.34942 118.057 5.34942C117.718 5.34942 117.432 5.41637 117.2 5.55027C116.977 5.68417 116.807 5.85824 116.691 6.07248C116.584 6.27779 116.522 6.4965 116.504 6.72859ZM125.478 11.0937C124.764 11.0937 124.17 10.933 123.697 10.6117C123.233 10.2814 122.884 9.844 122.652 9.29947C122.42 8.74602 122.304 8.13454 122.304 7.46504C122.304 6.75983 122.429 6.13497 122.679 5.59044C122.929 5.03699 123.3 4.60404 123.791 4.29161C124.281 3.97918 124.893 3.82296 125.625 3.82296C125.875 3.82296 126.12 3.8542 126.361 3.91669C126.611 3.97025 126.839 4.05505 127.044 4.1711C127.259 4.27822 127.442 4.42105 127.593 4.59958V1.51988H129.468V11H127.647L127.62 10.21C127.459 10.4153 127.263 10.5849 127.031 10.7188C126.808 10.8438 126.567 10.9375 126.308 11C126.049 11.0625 125.772 11.0937 125.478 11.0937ZM125.853 9.40659C126.254 9.40659 126.58 9.31286 126.83 9.1254C127.089 8.93794 127.281 8.69692 127.406 8.40234C127.531 8.10776 127.593 7.79086 127.593 7.45165C127.593 7.10351 127.531 6.78661 127.406 6.50096C127.29 6.20638 127.102 5.97429 126.843 5.80468C126.594 5.62615 126.263 5.53688 125.853 5.53688C125.442 5.53688 125.112 5.63061 124.862 5.81807C124.612 6.00553 124.433 6.25101 124.326 6.55452C124.228 6.8491 124.179 7.166 124.179 7.50521C124.179 7.75516 124.206 7.99618 124.259 8.22827C124.322 8.45144 124.42 8.65229 124.554 8.83082C124.688 9.00935 124.862 9.15218 125.076 9.2593C125.29 9.35749 125.549 9.40659 125.853 9.40659Z" fill="#409AF0"/>
</svg>
