<svg width="134" height="14" viewBox="0 0 134 14" fill="none" xmlns="http://www.w3.org/2000/svg">
<path d="M4.71437 10.1071C4.0538 10.1071 3.43786 10.0045 2.86655 9.79915C2.30417 9.59384 1.83106 9.26801 1.44721 8.82168C1.07229 8.37535 0.835738 7.79958 0.737545 7.09437H2.69248C2.77282 7.39788 2.92011 7.64336 3.13435 7.83082C3.34859 8.00935 3.603 8.13879 3.89758 8.21913C4.20109 8.29947 4.51799 8.33964 4.84828 8.33964C5.09822 8.33964 5.3437 8.3084 5.58472 8.24591C5.82574 8.18342 6.02213 8.0763 6.17389 7.92455C6.33456 7.7728 6.4149 7.56748 6.4149 7.30861C6.4149 7.11222 6.37027 6.95154 6.281 6.82657C6.20066 6.7016 6.08015 6.6034 5.91947 6.53199C5.76772 6.45165 5.58026 6.38024 5.35709 6.31775C5.16963 6.26419 4.97325 6.21956 4.76793 6.18385C4.57155 6.14814 4.37516 6.10351 4.17877 6.04995C3.99131 5.99639 3.80832 5.9339 3.62978 5.86249C3.29057 5.77322 2.96475 5.6661 2.65231 5.54113C2.33988 5.40723 2.06315 5.24209 1.82213 5.0457C1.58111 4.84039 1.38919 4.58598 1.24636 4.28247C1.11246 3.97896 1.04551 3.61297 1.04551 3.18449C1.04551 2.7203 1.12139 2.32753 1.27314 2.00617C1.43382 1.68481 1.6436 1.42147 1.90247 1.21616C2.17027 1.00192 2.46485 0.836776 2.78621 0.72073C3.1165 0.604683 3.44679 0.524343 3.77707 0.479709C4.10736 0.435076 4.41979 0.412759 4.71437 0.412759C5.33031 0.412759 5.88377 0.519879 6.37473 0.734119C6.8657 0.948359 7.2674 1.26972 7.57984 1.6982C7.89227 2.12668 8.0708 2.66674 8.11543 3.31839H6.25422C6.21852 3.05059 6.12032 2.83189 5.95965 2.66228C5.79897 2.49267 5.59365 2.3677 5.34371 2.28736C5.10268 2.20702 4.83042 2.16685 4.52691 2.16685C4.33053 2.16685 4.1386 2.1847 3.95114 2.22041C3.76368 2.25612 3.59408 2.31414 3.44232 2.39448C3.2995 2.46589 3.18345 2.56409 3.09418 2.68906C3.01384 2.81403 2.97367 2.96579 2.97367 3.14432C2.97367 3.32285 3.02277 3.47907 3.12096 3.61297C3.21916 3.73794 3.36198 3.84953 3.54944 3.94772C3.74583 4.03699 3.97346 4.12179 4.23233 4.20213C4.50013 4.2914 4.78132 4.36281 5.0759 4.41637C5.37048 4.46993 5.65167 4.54134 5.91947 4.63061C6.25869 4.71988 6.57559 4.827 6.87016 4.95197C7.16474 5.06802 7.42362 5.21977 7.64679 5.40723C7.86995 5.58576 8.04402 5.81786 8.169 6.10351C8.29397 6.38024 8.35646 6.72391 8.35646 7.13454C8.35646 7.67907 8.2538 8.14325 8.04848 8.5271C7.8521 8.90202 7.57983 9.20553 7.2317 9.43762C6.89248 9.66971 6.50417 9.83932 6.06676 9.94644C5.62936 10.0536 5.17856 10.1071 4.71437 10.1071ZM12.9111 10C12.322 10 11.8266 9.92859 11.4249 9.78576C11.0321 9.64293 10.733 9.40191 10.5277 9.0627C10.3313 8.71456 10.2331 8.24145 10.2331 7.64336V4.61722H9.18873V2.94347H10.2331V1.05548H12.1077V2.94347H13.6476V4.61722H12.1077V7.37556C12.1077 7.67014 12.1613 7.90223 12.2684 8.07184C12.3755 8.24145 12.6166 8.32625 12.9915 8.32625H13.5806V10H12.9111ZM14.6145 10V2.94347H16.3016L16.4222 3.78704C16.6007 3.51924 16.8015 3.31839 17.0247 3.18449C17.2479 3.04166 17.48 2.94793 17.721 2.9033C17.962 2.84974 18.2075 2.82296 18.4574 2.82296C18.5735 2.82296 18.6806 2.82742 18.7788 2.83635C18.877 2.83635 18.9484 2.83635 18.993 2.83635V4.644H18.5512C18.1316 4.644 17.7656 4.71541 17.4532 4.85824C17.1407 5.00107 16.8997 5.22423 16.7301 5.52774C16.5694 5.83125 16.4891 6.21956 16.4891 6.69267V10H14.6145ZM23.0343 10.0937C22.3202 10.0937 21.6953 9.9509 21.1597 9.66525C20.6241 9.37067 20.209 8.95558 19.9144 8.41998C19.6199 7.87545 19.4726 7.23273 19.4726 6.49182C19.4726 5.73305 19.6199 5.08141 19.9144 4.53688C20.2179 3.98343 20.6375 3.55941 21.1731 3.26483C21.7087 2.97025 22.3246 2.82296 23.0209 2.82296C23.735 2.82296 24.3554 2.97471 24.8821 3.27822C25.4088 3.58173 25.8194 4.00574 26.114 4.55027C26.4086 5.0948 26.5559 5.74644 26.5559 6.50521C26.5559 7.24612 26.4086 7.88884 26.114 8.43337C25.8283 8.96897 25.4222 9.3796 24.8955 9.66525C24.3778 9.9509 23.7574 10.0937 23.0343 10.0937ZM23.0075 8.37981C23.4181 8.37981 23.7484 8.29054 23.9984 8.11201C24.2483 7.93348 24.4269 7.70138 24.534 7.41573C24.65 7.12115 24.7081 6.81318 24.7081 6.49182C24.7081 6.17046 24.65 5.86249 24.534 5.56791C24.4269 5.27333 24.2483 5.03231 23.9984 4.84485C23.7574 4.64846 23.4271 4.55027 23.0075 4.55027C22.6058 4.55027 22.28 4.64846 22.0301 4.84485C21.7801 5.03231 21.5971 5.27333 21.4811 5.56791C21.3739 5.86249 21.3204 6.17046 21.3204 6.49182C21.3204 6.82211 21.3739 7.13008 21.4811 7.41573C21.5971 7.70138 21.7801 7.93348 22.0301 8.11201C22.28 8.29054 22.6058 8.37981 23.0075 8.37981ZM27.7561 10V2.94347H29.5101L29.6039 3.76026C29.8003 3.51924 30.0234 3.33178 30.2734 3.19788C30.5322 3.05505 30.7911 2.95686 31.05 2.9033C31.3178 2.84974 31.5588 2.82296 31.7731 2.82296C32.4515 2.82296 32.9782 2.97025 33.3531 3.26483C33.7369 3.55941 34.0092 3.95665 34.1699 4.45654C34.3395 4.94751 34.4243 5.4965 34.4243 6.10351V10H32.5497V6.34453C32.5497 6.13029 32.5318 5.91605 32.4961 5.70181C32.4604 5.48757 32.3935 5.29118 32.2953 5.11265C32.206 4.93412 32.0766 4.79129 31.907 4.68417C31.7373 4.57705 31.5142 4.52349 31.2375 4.52349C30.8804 4.52349 30.5813 4.61276 30.3403 4.79129C30.0993 4.96982 29.9208 5.21084 29.8047 5.51435C29.6887 5.81786 29.6307 6.15261 29.6307 6.5186V10H27.7561ZM39.2643 13.2672C38.7109 13.2672 38.2021 13.1779 37.7379 12.9994C37.2737 12.8298 36.8809 12.5575 36.5596 12.1826C36.2382 11.8077 36.0195 11.3256 35.9035 10.7365H37.8182C37.8807 10.915 37.9789 11.0623 38.1128 11.1783C38.2556 11.3033 38.4252 11.397 38.6216 11.4595C38.8269 11.522 39.0412 11.5532 39.2643 11.5532C39.6839 11.5532 40.0097 11.464 40.2418 11.2854C40.4739 11.1069 40.6346 10.8704 40.7239 10.5758C40.8131 10.2901 40.8578 9.97322 40.8578 9.62508V9.12965C40.6971 9.38852 40.4962 9.58491 40.2552 9.71881C40.0142 9.85271 39.7598 9.94644 39.492 10C39.2331 10.0625 38.9832 10.0937 38.7421 10.0937C38.0012 10.0937 37.3987 9.92859 36.9345 9.5983C36.4703 9.26801 36.1311 8.83507 35.9168 8.29947C35.7026 7.75494 35.5955 7.17025 35.5955 6.54538C35.5955 5.85803 35.716 5.23316 35.957 4.67078C36.198 4.1084 36.5596 3.66207 37.0416 3.33178C37.5236 3.00149 38.1262 2.83635 38.8493 2.83635C39.2867 2.83635 39.675 2.90776 40.0142 3.05059C40.3534 3.18449 40.6435 3.38534 40.8845 3.65314L41.0452 2.94347H42.7591V9.10287C42.7591 9.95983 42.6475 10.6963 42.4244 11.3122C42.2012 11.9371 41.8308 12.4191 41.313 12.7583C40.8042 13.0976 40.1213 13.2672 39.2643 13.2672ZM39.1572 8.40659C39.55 8.40659 39.8714 8.31732 40.1213 8.13879C40.3802 7.96026 40.5721 7.7237 40.6971 7.42912C40.822 7.12561 40.8845 6.79979 40.8845 6.45165C40.8845 6.08566 40.822 5.75983 40.6971 5.47418C40.5721 5.1796 40.3846 4.94751 40.1347 4.7779C39.8847 4.59937 39.5634 4.5101 39.1706 4.5101C38.7421 4.5101 38.4029 4.61276 38.153 4.81807C37.903 5.01446 37.7245 5.2644 37.6174 5.56791C37.5192 5.86249 37.4701 6.17492 37.4701 6.50521C37.4701 6.84442 37.5236 7.16132 37.6308 7.4559C37.7379 7.74155 37.9164 7.97365 38.1664 8.15218C38.4163 8.32179 38.7466 8.40659 39.1572 8.40659ZM44.232 10V0.51988H46.1066V10H44.232ZM50.7125 13.2538C50.168 13.2538 49.6368 13.1824 49.1191 13.0395C48.6013 12.8967 48.1148 12.6557 47.6596 12.3165L48.2889 10.8168C48.5745 11.031 48.9004 11.2006 49.2664 11.3256C49.6324 11.4595 50.0385 11.5265 50.4848 11.5265C51.1722 11.5265 51.681 11.3658 52.0113 11.0444C52.3505 10.7231 52.5201 10.2589 52.5201 9.65186V9.27694C52.3684 9.48225 52.1765 9.6474 51.9444 9.77237C51.7212 9.88842 51.4802 9.97322 51.2213 10.0268C50.9624 10.0803 50.7036 10.1071 50.4447 10.1071C49.7663 10.1071 49.2217 9.96429 48.8111 9.67864C48.4005 9.39299 48.1014 9.00468 47.914 8.51371C47.7354 8.01382 47.6462 7.44697 47.6462 6.81318V2.94347H49.5208V6.42487C49.5208 6.65696 49.5342 6.88906 49.5609 7.12115C49.5877 7.35324 49.6502 7.56748 49.7484 7.76387C49.8466 7.96026 49.9939 8.12094 50.1903 8.24591C50.3867 8.36196 50.65 8.41998 50.9803 8.41998C51.4088 8.41998 51.7301 8.31732 51.9444 8.11201C52.1586 7.89777 52.3014 7.62997 52.3728 7.30861C52.4532 6.98725 52.4933 6.6525 52.4933 6.30436V2.94347H54.368V8.98236C54.368 9.62508 54.3055 10.2098 54.1805 10.7365C54.0644 11.2631 53.8636 11.7139 53.5779 12.0888C53.3012 12.4638 52.9263 12.7494 52.4532 12.9458C51.989 13.1511 51.4088 13.2538 50.7125 13.2538ZM62.8497 10.0937C62.1088 10.0937 61.4794 9.94644 60.9617 9.65186C60.4439 9.35728 60.0467 8.94219 59.77 8.40659C59.4933 7.86206 59.3549 7.22827 59.3549 6.50521C59.3549 5.77322 59.4977 5.13497 59.7834 4.59044C60.069 4.03699 60.4707 3.60404 60.9885 3.29161C61.5151 2.97918 62.1355 2.82296 62.8497 2.82296C63.3853 2.82296 63.8539 2.91223 64.2556 3.09076C64.6663 3.26929 65.0099 3.51924 65.2867 3.8406C65.5723 4.16196 65.7821 4.53688 65.916 4.96536C66.0588 5.38491 66.1258 5.84017 66.1168 6.33114C66.1168 6.45611 66.1124 6.57662 66.1034 6.69267C66.0945 6.80872 66.0767 6.92476 66.0499 7.04081H61.2161C61.2429 7.30861 61.3188 7.55409 61.4437 7.77726C61.5687 8.00043 61.7428 8.17896 61.9659 8.31286C62.198 8.43783 62.4837 8.50032 62.8229 8.50032C63.0461 8.50032 63.2514 8.478 63.4388 8.43337C63.6263 8.37981 63.787 8.29947 63.9209 8.19235C64.0548 8.08523 64.1485 7.96026 64.2021 7.81743H66.0499C65.9338 8.3441 65.7151 8.77705 65.3938 9.11626C65.0813 9.45547 64.702 9.70542 64.2556 9.8661C63.8093 10.0179 63.3406 10.0937 62.8497 10.0937ZM61.2563 5.72859H64.3226C64.3137 5.48757 64.2512 5.2644 64.1351 5.05909C64.028 4.84485 63.8629 4.67524 63.6397 4.55027C63.4254 4.41637 63.1487 4.34942 62.8095 4.34942C62.4703 4.34942 62.1846 4.41637 61.9525 4.55027C61.7294 4.68417 61.5598 4.85824 61.4437 5.07248C61.3366 5.27779 61.2741 5.4965 61.2563 5.72859ZM66.5377 10L69.0014 6.39809L66.6582 2.94347H68.8408L70.2333 5.16621L71.5991 2.94347H73.7147L71.3581 6.43826L73.8754 10H71.6928L70.153 7.68353L68.6265 10H66.5377ZM77.8866 10C77.2975 10 76.8021 9.92859 76.4004 9.78576C76.0076 9.64293 75.7085 9.40191 75.5032 9.0627C75.3068 8.71456 75.2086 8.24145 75.2086 7.64336V4.61722H74.1642V2.94347H75.2086V1.05548H77.0832V2.94347H78.6231V4.61722H77.0832V7.37556C77.0832 7.67014 77.1368 7.90223 77.2439 8.07184C77.351 8.24145 77.5921 8.32625 77.967 8.32625H78.5561V10H77.8866ZM79.59 10V2.94347H81.2771L81.3977 3.78704C81.5762 3.51924 81.777 3.31839 82.0002 3.18449C82.2234 3.04166 82.4555 2.94793 82.6965 2.9033C82.9375 2.84974 83.183 2.82296 83.4329 2.82296C83.549 2.82296 83.6561 2.82742 83.7543 2.83635C83.8525 2.83635 83.9239 2.83635 83.9685 2.83635V4.644H83.5267C83.1071 4.644 82.7411 4.71541 82.4287 4.85824C82.1163 5.00107 81.8752 5.22423 81.7056 5.52774C81.5449 5.83125 81.4646 6.21956 81.4646 6.69267V10H79.59ZM87.0828 10.0937C86.7614 10.0937 86.449 10.0536 86.1455 9.97322C85.8509 9.88395 85.5875 9.75005 85.3554 9.57152C85.1234 9.39299 84.9404 9.16982 84.8065 8.90202C84.6726 8.63422 84.6056 8.32179 84.6056 7.96472C84.6056 7.48268 84.7038 7.09883 84.9002 6.81318C85.0966 6.5186 85.3599 6.29543 85.6902 6.14368C86.0205 5.99193 86.3999 5.88927 86.8283 5.83571C87.2658 5.78215 87.7165 5.75537 88.1807 5.75537H89.1984C89.1984 5.4965 89.1493 5.26887 89.0511 5.07248C88.9618 4.86717 88.8235 4.71095 88.636 4.60383C88.4485 4.48778 88.2075 4.42976 87.9129 4.42976C87.7255 4.42976 87.5425 4.45654 87.3639 4.5101C87.1943 4.55473 87.0515 4.62168 86.9355 4.71095C86.8194 4.80022 86.7435 4.91626 86.7078 5.05909H84.8065C84.86 4.66632 84.985 4.33157 85.1814 4.05484C85.3778 3.76919 85.6232 3.53709 85.9178 3.35856C86.2124 3.18003 86.5338 3.05059 86.8819 2.97025C87.239 2.88098 87.605 2.83635 87.9799 2.83635C89.0065 2.83635 89.7652 3.13093 90.2562 3.72009C90.7472 4.30032 90.9926 5.12604 90.9926 6.19724V10H89.3055L89.2787 9.08948C89.0555 9.40191 88.8011 9.62954 88.5155 9.77237C88.2388 9.9152 87.971 10.0045 87.7121 10.0402C87.4532 10.0759 87.2434 10.0937 87.0828 10.0937ZM87.5112 8.60744C87.8237 8.60744 88.1093 8.54495 88.3682 8.41998C88.6271 8.29501 88.8324 8.1254 88.9841 7.91116C89.1359 7.69692 89.2118 7.4559 89.2118 7.1881V7.01403H87.9263C87.7389 7.01403 87.5559 7.02296 87.3773 7.04081C87.2077 7.05866 87.0515 7.09437 86.9087 7.14793C86.7748 7.19256 86.6677 7.26844 86.5873 7.37556C86.507 7.48268 86.4668 7.62551 86.4668 7.80404C86.4668 7.98257 86.5114 8.13433 86.6007 8.2593C86.6989 8.37535 86.8283 8.46461 86.989 8.5271C87.1497 8.58066 87.3238 8.60744 87.5112 8.60744ZM94.1977 10L91.7205 2.94347H93.7692L95.4563 8.47354L97.1301 2.94347H99.1921L96.715 10H94.1977ZM103.15 10.0937C102.41 10.0937 101.78 9.94644 101.262 9.65186C100.745 9.35728 100.347 8.94219 100.071 8.40659C99.794 7.86206 99.6556 7.22827 99.6556 6.50521C99.6556 5.77322 99.7985 5.13497 100.084 4.59044C100.37 4.03699 100.771 3.60404 101.289 3.29161C101.816 2.97918 102.436 2.82296 103.15 2.82296C103.686 2.82296 104.155 2.91223 104.556 3.09076C104.967 3.26929 105.311 3.51924 105.587 3.8406C105.873 4.16196 106.083 4.53688 106.217 4.96536C106.36 5.38491 106.427 5.84017 106.418 6.33114C106.418 6.45611 106.413 6.57662 106.404 6.69267C106.395 6.80872 106.377 6.92476 106.351 7.04081H101.517C101.544 7.30861 101.62 7.55409 101.744 7.77726C101.869 8.00043 102.044 8.17896 102.267 8.31286C102.499 8.43783 102.784 8.50032 103.124 8.50032C103.347 8.50032 103.552 8.478 103.74 8.43337C103.927 8.37981 104.088 8.29947 104.222 8.19235C104.356 8.08523 104.449 7.96026 104.503 7.81743H106.351C106.235 8.3441 106.016 8.77705 105.695 9.11626C105.382 9.45547 105.003 9.70542 104.556 9.8661C104.11 10.0179 103.641 10.0937 103.15 10.0937ZM101.557 5.72859H104.623C104.614 5.48757 104.552 5.2644 104.436 5.05909C104.329 4.84485 104.164 4.67524 103.94 4.55027C103.726 4.41637 103.449 4.34942 103.11 4.34942C102.771 4.34942 102.485 4.41637 102.253 4.55027C102.03 4.68417 101.861 4.85824 101.744 5.07248C101.637 5.27779 101.575 5.4965 101.557 5.72859ZM107.625 10V2.94347H109.312L109.433 3.78704C109.611 3.51924 109.812 3.31839 110.036 3.18449C110.259 3.04166 110.491 2.94793 110.732 2.9033C110.973 2.84974 111.218 2.82296 111.468 2.82296C111.584 2.82296 111.691 2.82742 111.79 2.83635C111.888 2.83635 111.959 2.83635 112.004 2.83635V4.644H111.562C111.142 4.644 110.776 4.71541 110.464 4.85824C110.152 5.00107 109.911 5.22423 109.741 5.52774C109.58 5.83125 109.5 6.21956 109.5 6.69267V10H107.625ZM115.761 10.0937C114.966 10.0937 114.377 9.87056 113.993 9.42423C113.618 8.9779 113.431 8.36642 113.431 7.5898V4.61722H112.373V2.94347H113.431V1.04209H115.306V2.94347H117.448V4.61722H115.306V7.20149C115.306 7.43358 115.332 7.63443 115.386 7.80404C115.448 7.97365 115.547 8.10755 115.68 8.20574C115.823 8.29501 116.015 8.33964 116.256 8.33964C116.47 8.33964 116.649 8.3084 116.792 8.24591C116.944 8.1745 117.069 8.09862 117.167 8.01828L117.756 9.4644C117.568 9.61615 117.359 9.74113 117.127 9.83932C116.903 9.92859 116.676 9.99107 116.444 10.0268C116.212 10.0714 115.984 10.0937 115.761 10.0937ZM121.758 10.0937C121.017 10.0937 120.388 9.94644 119.87 9.65186C119.352 9.35728 118.955 8.94219 118.678 8.40659C118.401 7.86206 118.263 7.22827 118.263 6.50521C118.263 5.77322 118.406 5.13497 118.692 4.59044C118.977 4.03699 119.379 3.60404 119.897 3.29161C120.423 2.97918 121.044 2.82296 121.758 2.82296C122.293 2.82296 122.762 2.91223 123.164 3.09076C123.574 3.26929 123.918 3.51924 124.195 3.8406C124.48 4.16196 124.69 4.53688 124.824 4.96536C124.967 5.38491 125.034 5.84017 125.025 6.33114C125.025 6.45611 125.021 6.57662 125.012 6.69267C125.003 6.80872 124.985 6.92476 124.958 7.04081H120.124C120.151 7.30861 120.227 7.55409 120.352 7.77726C120.477 8.00043 120.651 8.17896 120.874 8.31286C121.106 8.43783 121.392 8.50032 121.731 8.50032C121.954 8.50032 122.16 8.478 122.347 8.43337C122.534 8.37981 122.695 8.29947 122.829 8.19235C122.963 8.08523 123.057 7.96026 123.11 7.81743H124.958C124.842 8.3441 124.623 8.77705 124.302 9.11626C123.99 9.45547 123.61 9.70542 123.164 9.8661C122.717 10.0179 122.249 10.0937 121.758 10.0937ZM120.164 5.72859H123.231C123.222 5.48757 123.159 5.2644 123.043 5.05909C122.936 4.84485 122.771 4.67524 122.548 4.55027C122.334 4.41637 122.057 4.34942 121.718 4.34942C121.378 4.34942 121.093 4.41637 120.861 4.55027C120.638 4.68417 120.468 4.85824 120.352 5.07248C120.245 5.27779 120.182 5.4965 120.164 5.72859ZM129.138 10.0937C128.424 10.0937 127.831 9.93305 127.357 9.61169C126.893 9.2814 126.545 8.844 126.313 8.29947C126.081 7.74602 125.965 7.13454 125.965 6.46504C125.965 5.75983 126.09 5.13497 126.34 4.59044C126.59 4.03699 126.96 3.60404 127.451 3.29161C127.942 2.97918 128.554 2.82296 129.286 2.82296C129.536 2.82296 129.781 2.8542 130.022 2.91669C130.272 2.97025 130.5 3.05505 130.705 3.1711C130.919 3.27822 131.102 3.42105 131.254 3.59958V0.51988H133.129V10H131.308L131.281 9.20999C131.12 9.4153 130.924 9.58491 130.692 9.71881C130.468 9.84378 130.227 9.93751 129.969 10C129.71 10.0625 129.433 10.0937 129.138 10.0937ZM129.513 8.40659C129.915 8.40659 130.241 8.31286 130.491 8.1254C130.75 7.93794 130.942 7.69692 131.066 7.40234C131.191 7.10776 131.254 6.79086 131.254 6.45165C131.254 6.10351 131.191 5.78661 131.066 5.50096C130.95 5.20638 130.763 4.97429 130.504 4.80468C130.254 4.62615 129.924 4.53688 129.513 4.53688C129.103 4.53688 128.772 4.63061 128.522 4.81807C128.272 5.00553 128.094 5.25101 127.987 5.55452C127.889 5.8491 127.839 6.166 127.839 6.50521C127.839 6.75516 127.866 6.99618 127.92 7.22827C127.982 7.45144 128.081 7.65229 128.214 7.83082C128.348 8.00935 128.522 8.15218 128.737 8.2593C128.951 8.35749 129.21 8.40659 129.513 8.40659Z" fill="#F49D0C"/>
</svg>
