<svg width="200" height="200" viewBox="0 0 200 200" fill="none" xmlns="http://www.w3.org/2000/svg">
<circle cx="104.803" cy="137.064" r="42.5" fill="#409AF0"/>
<path d="M99.0058 104.797C97.017 104.797 97.1414 108.124 97.1414 109.458C97.1414 111.708 96.5582 114.052 99.5582 114.119C101.348 114.159 103.92 112.805 104.271 110.873C104.428 110.009 104.442 108.836 103.356 108.836C100.68 108.836 101.089 113.099 103.425 113.877C104.114 114.107 107.123 114.607 107.689 113.946C108.291 113.244 108.591 111.346 109.26 111.012" stroke="white" stroke-width="1.70601" stroke-linecap="round"/>
<path d="M87.896 123.694C89.2496 125.048 91.2688 125.816 92.3021 127.366" stroke="black" stroke-width="2.4" stroke-linecap="round"/>
<path d="M110.661 127.366C111.625 125.439 113.934 124.493 114.822 122.715" stroke="black" stroke-width="2.4" stroke-linecap="round"/>
<path d="M99.1562 149.683C99.3043 151.164 101.996 152.621 103.318 152.621C104.848 152.621 105.923 150.032 106.255 148.704" stroke="black" stroke-width="2.4" stroke-linecap="round"/>
<path d="M75.5845 137.195C79.6684 137.195 83.6512 136.597 87.7319 136.597C89.061 136.597 90.2854 136.41 91.5156 136" stroke="black" stroke-width="2.4" stroke-linecap="round"/>
<path d="M78.9697 138.39C78.9697 140.459 79.008 142.771 81.6028 142.771C82.8852 142.771 83.9038 142.68 85.132 142.373C86.4288 142.048 86.0279 140.445 85.5413 139.386C85.4677 139.225 85.0642 138.014 84.8333 138.014C84.3379 138.014 83.4015 138.919 82.8419 139.076C81.9386 139.329 80.9391 139.151 80.0097 139.186C79.0674 139.223 81.0967 141.089 81.3151 141.222C81.7434 141.483 84.3853 142.459 83.9371 140.89C83.8075 140.436 83.0186 140.757 82.7976 140.536C82.5666 140.305 83.824 140.182 83.9482 140.182" stroke="black" stroke-width="2.4" stroke-linecap="round"/>
<path d="M110.832 134.606C112.23 134.606 113.627 134.606 115.025 134.606C116.923 134.606 118.72 134.145 120.601 134.02C122.582 133.888 124.565 133.343 126.52 132.969C126.964 132.884 129.378 132.762 129.551 132.416" stroke="black" stroke-width="2.4" stroke-linecap="round"/>
<path d="M112.624 135.801C112.624 137.232 112.598 138.684 113.532 139.884C114.68 141.361 116.055 140.646 117.702 140.393C118.435 140.28 119.051 140.027 119.793 139.983C120.568 139.938 120.391 138.783 120.391 138.291C120.391 137.317 120.23 136.287 119.838 135.403C119.447 134.524 117.93 135.533 117.094 135.591C115.975 135.668 114.831 135.602 113.709 135.602C112.704 135.602 112.005 135.943 112.912 136.885C113.728 137.733 114.665 138.864 115.766 139.342C115.883 139.392 116.338 139.784 116.286 139.784C115.431 139.784 114.986 137.847 114.66 137.195C114.304 136.484 118.018 137.874 118.499 137.981C119.089 138.112 116.608 137.381 117.647 138.346C117.883 138.565 119.056 139.039 119.351 138.744C119.552 138.543 119.412 137.837 119.185 137.704C118.749 137.45 117.565 137.793 118.399 137.793" stroke="black" stroke-width="2.4" stroke-linecap="round"/>
<path d="M91.0605 136.491C92.5884 136.491 93.8092 135.819 95.3143 135.819" stroke="black" stroke-width="2.4" stroke-linecap="round"/>
<path d="M76.5781 144.335H90.8996" stroke="black" stroke-width="2.4" stroke-linecap="round"/>
<path d="M112.195 143.078C115.139 143.078 118.016 142.847 120.745 141.786C121.704 141.413 122.689 141.284 123.652 140.94C124.213 140.74 124.765 140.513 125.363 140.513" stroke="black" stroke-width="2.4" stroke-linecap="round"/>
<path d="M63.095 152.486C59.5552 152.486 55.8057 152.056 52.6093 153.867C50.9099 154.83 48.2963 157.627 47.9291 159.647C47.2407 163.433 52.5474 167.538 55.7294 168.598" stroke="white" stroke-width="2.4" stroke-linecap="round"/>
<path d="M85.1772 174.588C79.52 174.777 77.1491 176.744 74.3558 181.244C72.7745 183.792 71.6504 186.258 71.6504 189.275C71.6504 191.634 71.8969 193.38 73.4969 195.158C74.208 195.948 70.7616 196.148 70.1045 196.317C69.048 196.589 68.1024 197.391 67.0127 197.391" stroke="white" stroke-width="2.4" stroke-linecap="round"/>
<path d="M127.714 173.975C130.672 173.975 131.168 176.471 132.545 178.612C134.387 181.477 133.511 186.234 133.511 189.477C133.511 190.811 133.976 193.047 133.425 194.286C133.133 194.942 132.285 195.621 132.352 195.617C134.142 195.512 136.301 194.46 138.149 194.157C139.971 193.859 141.721 193.685 143.559 193.685" stroke="white" stroke-width="2.4" stroke-linecap="round"/>
<path d="M55.0559 168.95C56.3547 168.95 57.7479 169.192 58.4483 167.791C58.8623 166.963 58.6225 165.216 57.7613 164.785C56.2824 164.046 53.1235 164.704 53.1235 166.632" stroke="white" stroke-width="2.4" stroke-linecap="round"/>
<path d="M50.0479 142.151C50.0479 147.279 51.1671 152.352 52.5614 157.232C52.8422 158.215 53.1951 159.376 53.5987 160.284C53.9266 161.022 53.9087 161.992 54.1772 162.798" stroke="#F49D0C" stroke-width="2.4" stroke-linecap="round"/>
<path d="M55.7929 171.236C55.7929 172.468 55.8584 173.463 56.152 174.637C56.4263 175.734 56.8052 176.779 57.0497 177.879C57.3552 179.253 57.6493 181.278 58.4062 182.467C59.1008 183.559 58.9866 185.122 60.3712 185.429C61.5796 185.698 62.5414 185.243 63.3336 184.252C65.3372 181.748 64.1339 178.242 64.0517 175.365C63.9864 173.079 63.1259 171.051 62.396 168.942C61.9182 167.562 61.873 166.081 61.219 164.773C60.1123 162.559 60.3256 159.984 60.0121 157.601C59.7076 155.287 58.9569 153.191 58.3963 150.948C57.946 149.147 57.7307 147.287 57.3988 145.462C57.2668 144.736 56.7939 144.313 56.5111 143.677C56.1949 142.965 55.403 143.189 55.0748 142.779C53.6819 141.038 53.5877 144.938 53.5487 145.592C53.3903 148.253 53.124 151.246 53.7183 153.861C54.1745 155.868 55.1782 157.581 56.4114 159.197C57.5638 160.707 58.2802 161.24 58.3065 158.768C58.3346 156.129 57.6189 153.895 56.7006 151.437C56.1121 149.862 55.2291 148.329 54.7556 146.719C54.1442 144.64 54.8623 151.13 55.6134 153.162C55.7836 153.623 55.9725 153.935 55.9725 153.222C55.9725 152.013 56.1126 150.549 55.6134 149.412C55.3919 148.907 55.0748 148.679 55.0748 149.372C55.0748 150.704 54.9533 152.099 55.1147 153.422C55.2136 154.233 55.5466 155.04 55.8727 155.786C56.3662 156.914 56.152 154.675 56.152 154.339C56.152 151.712 56.5789 148.527 55.2942 146.101C55.0893 145.714 54.9488 145.23 54.5362 145.023" stroke="#F49D0C" stroke-width="2.4" stroke-linecap="round"/>
<path d="M52.0224 143.587C51.2801 143.68 52.1158 148.588 52.3017 149.163C52.9267 151.094 53.7777 152.573 54.895 154.22C55.5365 155.165 56.609 156.551 56.86 157.681C56.952 158.095 56.8657 158.61 56.8699 159.027C56.8781 159.831 57.0959 160.534 57.1891 161.321C57.3171 162.402 57.1564 162.448 56.5109 161.71C55.8672 160.975 55.3083 160.363 55.2541 159.386C55.2259 158.879 55.0746 158.854 55.0746 159.426C55.0746 159.962 55.0755 160.609 55.3439 161.092C56.1059 162.464 57.1054 162.018 58.3062 162.618" stroke="#F49D0C" stroke-width="2.4" stroke-linecap="round"/>
<path d="M60.2811 167.466C60.2811 167.932 60.3371 168.441 60.2712 168.902C60.2081 169.343 59.8021 169.481 59.6029 169.8C59.3841 170.15 58.5166 170.649 58.1267 170.698C56.0707 170.955 58.7034 176.03 59.0244 176.842C59.1733 177.218 59.5175 178.715 59.8423 177.829C60.5928 175.782 61.2709 173.482 61.3584 171.296C61.3689 171.032 61.5287 168.747 60.73 169.102C60.041 169.408 59.8762 172.046 59.7824 172.712C59.6812 173.432 59.4898 174.17 60.3809 174.099C61.0447 174.046 61.7906 173.602 61.498 172.812C61.176 171.943 59.2673 172.202 58.775 172.712C57.7638 173.761 57.6403 175.943 58.2065 177.221C58.7679 178.488 60.4735 178.49 60.8796 177.161C60.9703 176.864 61.2321 174.288 60.8198 174.288C60.0703 174.288 60.1016 178.901 60.1016 179.415C60.1016 180.876 60.4713 180.606 60.8198 179.355C60.8317 179.312 61.193 177.673 60.71 178.118C59.7316 179.022 59.7663 181.32 59.7425 182.507C59.724 183.435 60.7265 183.44 61.3384 182.896C62.2547 182.082 61.8376 180.625 61.1788 179.814C60.8283 179.383 59.2894 178.02 58.5955 178.637C57.9366 179.223 58.726 181.271 59.2039 181.749C61.6586 184.204 62.953 176.279 62.2162 174.867C61.7649 174.002 61.5925 174.035 61.4481 175.016C61.2513 176.355 61.141 178.094 61.498 179.415C61.6203 179.867 62.2561 180.01 62.2561 179.435C62.2561 178.637 62.2561 181.031 62.2561 181.829" stroke="#F49D0C" stroke-width="2.4" stroke-linecap="round"/>
<path d="M50.3523 146.443C50.3523 145.288 50.4478 144.719 49.7673 143.869C49.428 143.445 49.4858 143.259 49.5099 144.126C49.5271 144.748 50.0646 146.498 50.1417 145.881C50.2816 144.762 49.419 143.88 49.2993 142.862C49.2422 142.377 49.0217 141.099 48.7727 140.651C48.4181 140.013 48.2595 138.867 48.4685 138.135C48.662 137.458 51.286 137.176 51.8266 137.176C52.3426 137.176 54.1082 136.895 54.5177 137.223C55.3158 137.861 55.6612 138.814 55.8399 139.797C55.9255 140.268 56.21 140.726 56.3547 141.189C56.539 141.779 56.3641 142.364 56.4717 142.956C56.6368 143.864 56.8789 144.8 57.0801 145.706C57.1422 145.985 56.3828 144.03 56.1324 143.564C55.3526 142.116 54.6557 140.783 53.6168 139.504C52.055 137.582 51.3868 140.18 51.4054 141.482C51.4145 142.119 51.5002 144.264 52.669 144.126C53.4338 144.036 52.4466 141.716 52.201 141.388C52.1141 141.272 50.813 139.795 50.7735 140.546C50.7518 140.959 51.4817 142.776 51.9202 141.774C52.2412 141.041 52.2058 139.631 51.3118 139.305C50.7865 139.114 50.5629 139.326 50.5629 139.809C50.5629 140.447 51.0708 140.392 50.9724 139.703C50.9154 139.304 49.9311 138.663 49.9311 138.861" stroke="#F49D0C" stroke-width="2.4" stroke-linecap="round"/>
<path d="M47.2358 137.158C47.8625 136.532 48.9323 135.823 49.7993 135.611C50.4415 135.454 50.9979 135.431 51.6626 135.431C52.4992 135.431 53.327 135.783 54.0453 136.142" stroke="#CAE5FF" stroke-width="2.4" stroke-linecap="round"/>
<path d="M46.0161 135.735C47.0298 133.911 48.7364 132.89 50.7929 132.89C52.2508 132.89 53.9602 132.864 54.8583 134.211" stroke="#409AF0" stroke-width="2.4" stroke-linecap="round"/>
<path d="M45.3081 133.462C45.3733 132.876 46.3237 132.204 46.7518 131.891C46.972 131.73 47.0414 131.519 47.2989 131.39C47.5013 131.289 47.6538 131.204 47.8229 131.052C48.1597 130.751 48.8575 130.832 49.2665 130.715C49.9464 130.521 50.8796 130.591 51.595 130.633C52.2111 130.67 52.8773 131.262 53.481 131.262" stroke="#CAE5FF" stroke-width="2.4" stroke-linecap="round"/>
<path d="M45.3616 131.053C44.6128 131.053 44.2244 130.666 43.7209 130.144C43.0139 129.41 42.2168 128.472 41.7371 127.563C40.6738 125.548 40.9084 123.041 41.7371 121.015C42.0093 120.35 42.3112 119.744 42.647 119.106C42.8488 118.723 43.2346 118.368 43.348 117.943C43.5543 117.169 43.854 116.409 44.2131 115.69C44.716 114.685 45.4539 113.545 45.7345 112.454C45.8849 111.869 45.7643 111.12 45.7643 110.515C45.7643 110.098 45.9765 108.968 45.7345 108.665C45.3173 108.144 46.0847 108.375 46.4355 108.531C46.9339 108.752 47.9021 108.723 48.285 109.068C48.6975 109.439 48.9095 109.738 49.1501 110.246C49.7581 111.53 50.3285 112.64 50.3285 114.109C50.3285 115.049 50.3285 115.989 50.3285 116.928C50.3285 117.536 50.0157 117.958 50.6715 117.771C52.0533 117.376 53.744 116.254 54.0797 114.743C54.1004 114.65 54.0177 114.054 54.2214 114.169C54.3873 114.262 54.5893 114.822 54.6316 115.012C54.751 115.549 55.4296 116.027 55.4296 116.623C55.4296 119.424 55.5604 122.269 55.1685 125.013C55.0019 126.179 53.8902 127.357 53.0804 128.167C52.0041 129.244 52.4392 127.258 52.6254 126.668C53.2384 124.727 53.9105 122.907 54.0573 120.851C54.1374 119.73 54.255 118.62 54.3482 117.503C54.3595 117.367 54.4624 116.574 54.3258 116.451C53.8651 116.036 53.2369 117.143 53.0804 117.361C51.81 119.128 51.409 121.669 51.2756 123.804C51.2239 124.632 51.2573 125.426 51.3725 124.043C51.4888 122.648 51.6731 120.803 50.9997 119.531C50.6947 118.955 50.1104 118.496 49.8213 119.33C49.4936 120.275 49.1404 122.207 49.9854 122.969C50.6704 123.587 51.0677 123.475 51.201 122.648C51.4292 121.234 50.4057 119.803 49.2844 119.031C49.1935 118.969 48.622 118.543 48.5162 118.778C48.1985 119.484 48.2948 120.549 48.3223 121.306C48.3449 121.928 48.8518 123.492 48.8518 121.94C48.8518 119.371 47.7612 116.866 46.8755 114.505C46.3307 113.052 46.4922 115.464 46.9426 115.825C47.5306 116.295 47.1242 114.175 47.0992 114.012C46.9618 113.119 46.7319 112.263 46.4355 111.41C46.3024 111.027 46.1781 110.306 45.9284 109.963C45.6522 109.583 46.0166 110.916 46.2118 111.343C46.6116 112.217 47.211 112.986 47.8301 113.714C48.4956 114.497 47.7174 112.134 47.6437 111.917C47.2434 110.737 47.7125 112.416 47.8599 112.73C47.9628 112.949 48.8696 114.884 48.8518 114.423C48.8196 113.585 48.1536 112.371 47.7033 111.663C47.6119 111.52 47.5046 111.45 47.5094 111.678C47.5256 112.437 47.7706 113.213 48.0762 113.901C48.1591 114.087 48.9588 115.526 48.9786 115.377C49.1281 114.256 48.6112 112.864 48.0464 111.917C47.9504 111.756 47.8387 111.411 47.7108 111.283C47.6128 111.185 47.6423 111.554 47.6437 111.693C47.6488 112.22 47.6872 112.743 47.8003 113.259C48.1117 114.68 48.8817 115.951 49.2247 117.361C49.2858 117.612 49.3419 118.207 49.0905 118.36C48.6613 118.623 48.1301 118.687 47.6884 118.957C46.8343 119.478 46.1086 120.113 45.5257 120.926C45.4634 121.012 44.9781 121.556 45.1155 121.716C45.3754 122.02 46.5592 121.71 46.8308 121.604C48.6053 120.917 48.4294 118.17 47.5691 116.839C46.9063 115.813 45.3911 115.226 45.108 116.854C44.9349 117.849 44.5229 119.957 45.4958 120.687C46.2251 121.234 46.5816 120.419 46.5474 119.77C46.4878 118.639 45.3703 117.939 44.5263 118.972C43.7081 119.973 43.5449 121.317 43.4971 122.559C43.476 123.109 43.1988 124.585 43.7731 124.983C44.859 125.735 45.6407 124.416 45.7345 123.506C45.8556 122.331 45.3088 120.862 43.8178 121.299C42.3551 121.727 42.1578 124.875 43.5419 125.49C44.3609 125.854 46.5089 126.054 46.8904 124.998C47.3582 123.702 46.7303 122.101 45.1006 122.373C43.8441 122.582 42.9926 125.114 43.4076 126.221C43.723 127.062 45.8397 126.832 46.5548 126.743C47.8937 126.575 46.9964 124.819 46.167 124.535C44.4357 123.942 42.9998 124.622 42.6246 126.415C42.1676 128.598 45.8687 128.502 45.8687 126.325C45.8687 126.008 45.4708 126.082 45.2572 126.087C44.7337 126.098 44.4483 126.395 44.1833 126.832C43.4499 128.043 44.0002 128.83 45.3317 128.883C45.8957 128.906 46.7966 128.674 46.8382 127.966C46.8422 127.899 46.7424 128.514 46.6369 128.704C46.3746 129.176 45.8769 129.635 46.5772 129.241C47.7164 128.6 48.9851 128.234 50.2613 128.234C51.2712 128.234 51.461 127.363 51.5963 126.474C51.7851 125.233 51.7568 123.689 50.5969 122.895C49.6056 122.216 48.3767 122.274 47.7182 123.275C46.0653 125.787 50.2647 126.127 50.4552 123.745C50.5475 122.591 49.5781 123.518 49.4186 124.133C49.2808 124.663 49.1093 125.528 49.3067 126.064C49.5414 126.701 50.3924 126.782 50.7163 126.206C51.3729 125.038 50.8173 124.068 49.5081 123.969C47.9481 123.85 47.0957 125.642 47.2559 127.004C47.3197 127.546 47.7682 127.645 48.2552 127.668C49.5553 127.728 50.5383 127.193 51.3427 126.191C52.2399 125.074 52.4199 123.84 52.439 122.432C52.4413 122.266 52.6446 119.971 51.8051 120.344C51.2938 120.571 50.7173 122.867 51.3278 123.208C52.269 123.734 52.4402 122.053 52.4688 121.537C52.4794 121.347 52.5773 120.782 52.3868 120.642C52.0925 120.427 51.756 120.652 51.6709 120.941C51.4481 121.696 51.2972 122.81 52.3421 122.462" stroke="#FBD24E" stroke-width="2.4" stroke-linecap="round"/>
<path d="M48.5425 108.789C49.187 108.789 49.5023 109.049 50.0505 109.36C50.3931 109.554 50.893 109.681 51.1568 109.988C51.3989 110.271 51.6526 110.311 51.8147 110.676C52.0272 111.154 52.1327 111.831 52.525 112.195C52.9634 112.602 53.3635 112.999 53.3635 113.61C53.3635 114.158 53.4683 114.721 53.4683 115.287C53.4683 115.346 53.5112 115.816 53.4624 115.84C53.4598 115.841 53.0909 115.192 53.0723 115.159C52.8195 114.709 52.5615 114.316 52.2164 113.93C52.1285 113.832 51.2867 112.777 51.2674 113.086C51.2413 113.504 51.5041 113.779 51.6866 114.134C51.9428 114.632 52.2106 114.807 52.2106 115.392" stroke="#FBD24E" stroke-width="2.4" stroke-linecap="round"/>
<path d="M45.5698 109.317C45.5698 109.873 45.5698 110.428 45.5698 110.983C45.5698 111.491 45.3477 111.996 45.3477 112.481C45.3477 113.076 45.497 113.884 45.3231 114.449C45.0828 115.23 45.7073 115.757 46.5073 115.757C46.8536 115.757 47.3251 115.838 47.6545 115.732C48.1624 115.569 48.5649 115.019 48.9004 114.646C49.5001 113.98 49.807 113.092 50.8433 113.092C51.1194 113.092 51.4003 113.077 51.6759 113.092C51.9725 113.109 52.2351 113.464 52.5641 113.289C52.7944 113.168 52.6751 112.49 52.6751 112.259C52.6751 111.853 52.5018 111.739 52.2927 111.47C51.9983 111.091 51.8057 110.825 51.3675 110.539C50.9867 110.29 50.7077 110.004 50.3437 109.737C49.562 109.162 48.4375 109.036 47.5065 108.867C47.3171 108.833 46.7352 108.74 46.5936 108.627C45.8326 108.018 46.0047 109.213 46.1496 109.675C46.525 110.874 46.791 111.828 46.791 113.086C46.791 113.441 46.7743 114.343 47.3523 113.678C47.9102 113.036 48.5348 112.109 48.5674 111.229C48.5781 110.94 48.2788 110.511 48.0122 110.896C47.4883 111.653 48.0535 112.039 48.8387 111.976C49.1968 111.947 49.4556 111.533 49.6837 111.704C50.898 112.615 51.2097 110.7 50.4794 110.23C49.4531 109.57 47.7061 107.75 46.3469 108.429" stroke="#409AF0" stroke-width="2.4" stroke-linecap="round"/>
<path d="M45.1803 110.547C45.1803 110.072 45.1803 109.597 45.1803 109.122C45.1803 108.788 45.0503 108.13 45.1961 107.839C45.4679 107.295 46.5569 107.411 47.049 107.411C47.8069 107.411 48.7278 107.498 49.3137 108.053C49.8372 108.549 50.5766 108.774 51.0953 109.264C51.5402 109.684 52.1923 110.246 52.4335 110.816C52.5139 111.006 52.8056 111.223 52.8056 111.438C52.8056 111.655 52.8769 111.883 52.8769 112.115C52.8769 112.423 52.8209 112.82 52.5206 112.97" stroke="#409AF0" stroke-width="2.4" stroke-linecap="round"/>
<path d="M44.9661 112.329C44.9661 113.113 45.0715 113.96 44.7682 114.68C44.4767 115.373 44.5085 116.566 44.8553 117.21C45.2901 118.018 45.8235 118.101 46.6923 118.101C47.7436 118.101 48.4089 117.113 48.7432 116.244C49.019 115.527 49.1256 114.878 49.1708 114.11C49.1825 113.911 49.242 114.395 49.242 114.451C49.242 114.81 49.1433 115.163 49.0243 115.5C48.9286 115.771 48.7955 116.058 48.6719 116.319C48.526 116.628 48.4998 116.984 48.3116 117.282C47.8 118.092 46.8444 118.6 45.8767 118.6C45.4239 118.6 45.1707 118.222 45.0374 117.856C44.9878 117.719 44.9044 117.59 44.8394 117.46C44.6955 117.172 44.7235 117.389 44.8315 117.567C45.1793 118.138 45.8809 118.386 46.5023 118.386C47.3866 118.386 48.1331 117.684 48.565 116.953C48.9716 116.265 49.2844 115.444 49.5113 114.68C49.6413 114.243 49.9021 113.698 50.2397 113.398C50.7574 112.937 52.5626 113.055 52.8053 113.722C52.9235 114.047 52.9286 114.263 52.9478 114.609C52.9584 114.799 53.232 114.996 53.3596 115.124C53.8175 115.582 53.7729 114.399 53.6605 114.146C53.5646 113.93 53.4668 113.651 53.3041 113.469C53.1669 113.316 53.0309 113.129 52.9478 112.942C52.927 112.895 52.7039 112.588 52.8924 112.827C53.1106 113.104 53.6611 113.498 53.7278 113.865C53.7499 113.986 53.8743 114.71 53.8743 114.36C53.8743 113.895 53.5179 113.575 53.5179 113.128C53.5179 112.851 53.2329 112.651 53.2329 112.4" stroke="#409AF0" stroke-width="2.4" stroke-linecap="round"/>
<path d="M37.8888 110.609C37.8888 109.567 38.3855 106.941 37.3703 106.403C35.8656 105.607 34 106.697 34 108.405C34 109.048 35.5551 112.035 36.5925 110.739C37.8827 109.126 36.1349 108.489 35.037 107.757" stroke="#409AF0" stroke-width="2.4" stroke-linecap="round"/>
<path d="M58.1335 102.241C58.9231 100.575 59.6152 99.13 59.6152 97.2818C59.6152 96.8119 59.6152 96.342 59.6152 95.8721C59.6152 95.3655 59.796 96.8956 60.068 97.323C60.718 98.3444 60.8193 99.6279 62.1156 100.204C62.5752 100.408 62.5426 100.574 63.1342 100.574C63.5801 100.574 64.026 100.574 64.4719 100.574C65.0678 100.574 65.6116 100.389 66.1799 100.389C66.5016 100.389 65.4325 101.054 65.1716 101.315C64.0571 102.43 62.949 104.216 62.949 105.853C62.949 106.896 63.326 109.949 62.9387 108.981C62.5301 107.959 61.2225 106.724 60.3149 106.131C58.5065 104.948 57.0938 103.908 54.8924 103.908C54.0607 103.908 55.1169 103.908 55.3965 103.908C56.0109 103.908 56.5588 103.6 57.1149 103.353C58.0074 102.956 58.9801 101.845 59.6152 101.13C59.711 101.022 59.8004 100.595 59.8004 100.739C59.8004 101.518 59.8004 102.296 59.8004 103.075C59.8004 103.448 59.5201 106.054 60.1709 106.131C60.6584 106.188 60.7647 105.417 60.7162 105.03C60.6821 104.757 60.448 104.515 60.3149 104.279C60.17 104.021 60.101 104.404 60.2738 104.454C61.2451 104.731 61.4564 102.525 61.4673 101.953C61.493 100.621 61.0495 101.714 61.3953 102.406C61.7176 103.05 62.6136 102.832 61.8378 102.056C61.7647 101.983 60.9323 101.349 60.9323 101.439C60.9323 101.706 61.0779 101.954 61.2821 102.056" stroke="#CAE5FF" stroke-width="2.4" stroke-linecap="round"/>
<path d="M71.1209 88.7224C71.1209 91.0147 72.3353 88.8939 71.7883 88.7376C71.2279 88.5775 70.8436 89.2361 71.3939 89.2685C72.0508 89.3071 72.6587 88.8825 71.7276 88.5101C71.4549 88.401 70.1598 87.8223 70.044 88.3432C69.865 89.1487 70.0744 89.9097 70.9692 90.0724C72.4164 90.3355 73.176 88.9954 71.667 88.9954" stroke="#CAE5FF" stroke-width="2.4" stroke-linecap="round"/>
<path d="M40.8498 87.0076C42.2676 86.724 42.1782 83.7957 42.3246 82.8071C42.5018 81.6116 42.4709 80.3024 42.0353 79.2134C41.5911 78.103 42.6711 81.6474 43.5381 82.4711C44.5536 83.4358 45.759 84.0959 47.1505 84.3099C47.7641 84.4043 48.4526 84.3193 49.0734 84.3193C49.5504 84.3193 50.3104 84.0951 49.6241 84.4873C48.9972 84.8456 48.0536 84.7368 47.5706 85.3647C47.0896 85.99 46.6399 86.4529 46.3104 87.1849C45.7466 88.4378 45.5543 89.6807 45.5543 91.04C45.5543 91.6255 45.6742 91.3719 45.517 91.04C45.2479 90.4718 44.7301 90.0478 44.2942 89.6119C43.6571 88.9747 42.5692 88.4648 41.7833 88.0157C41.1292 87.6419 40.2828 87.7766 39.543 87.549C39.0255 87.3897 37.3059 87.7638 38.5162 87.4276C39.9088 87.0408 41.3995 86.8136 42.698 86.1301C43.0227 85.9593 43.0151 85.37 43.0714 85.5327C43.2345 86.004 43.404 87.5472 43.9582 87.6703C44.4796 87.7862 44.3782 86.5342 44.3782 86.2608C44.3782 85.3244 44.0729 86.6194 44.2475 87.0076C44.6701 87.9465 44.9024 86.6236 44.8823 86.2608C44.8621 85.8982 43.8491 84.0211 43.2954 84.1793C42.8265 84.3132 43.9942 85.4674 44.1262 85.5701C44.4824 85.8471 44.0604 85.1094 43.7061 84.9913" stroke="#F49D0C" stroke-width="2.4" stroke-linecap="round"/>
<path d="M144.502 151.579C144.776 154.315 148.931 157.255 151.288 158.067C153.906 158.97 156.443 160.188 159.101 158.564C161.205 157.278 163.316 155.545 164.596 153.35C165.239 152.248 166.252 149.852 166.252 148.6" stroke="white" stroke-width="2.4" stroke-linecap="round"/>
<path d="M166.091 148.325C166.091 147.028 166.124 146.226 165.499 145.1C165.268 144.685 164.648 144.604 164.203 144.604C163.252 144.604 162.594 144.664 161.97 145.472C161.157 146.526 160.361 148.538 161.874 149.414C162.783 149.94 163.924 150.638 164.975 149.937" stroke="white" stroke-width="2.4" stroke-linecap="round"/>
<path d="M54.5371 165.491C54.5371 166.766 54.6913 167.556 56.1417 167.724C57.1849 167.844 57.8994 167.668 56.6719 167.054C56.0726 166.754 55.5729 166.295 54.9696 165.994C54.6075 165.812 54.57 166.063 54.7952 166.363C55.1627 166.853 55.7594 166.575 56.1696 166.37" stroke="white" stroke-width="2.4" stroke-linecap="round"/>
<path d="M82.7164 150.23C81.0793 150.23 79.2916 150.014 77.7135 150.495C76.3769 150.901 74.9351 151.586 73.6635 152.189C72.9788 152.513 73.187 153.118 73.187 153.803C73.187 155.062 74.9103 155.218 75.8605 155.233C78.7135 155.278 81.1863 154.977 83.8546 153.989C85.2334 153.478 85.849 151.238 84.0267 150.958C82.0478 150.653 79.3529 150.749 77.3693 150.958C76.1512 151.086 72.6559 152.408 75.4635 153.195C77.3156 153.713 80.2671 153.525 82.0811 152.85C83.1085 152.468 83.0072 152.374 81.8826 152.374C80.8493 152.374 79.373 152.087 78.4282 152.559C77.4336 153.057 80.6516 152.612 81.7635 152.612" stroke="#0A60BD" stroke-width="2.4" stroke-linecap="round"/>
<path d="M132.746 144.989C129.75 144.989 125.348 145.954 123.097 148.205C122.41 148.892 122.025 149.362 122.025 150.349C122.025 151.328 123.988 151.421 124.699 151.421C128.199 151.421 131.346 151.989 134.652 150.336C136.035 149.644 136.75 147.266 135.115 146.312C133.755 145.519 131.225 145.703 129.702 145.703C128.136 145.703 126.59 146.931 125.361 147.795C124.654 148.291 124.403 148.368 124.05 149.145C123.888 149.501 123.938 150.146 124.434 150.217C127.199 150.612 129.841 149.692 132.442 148.933C132.626 148.879 133.547 148.859 133.408 148.562C133.094 147.895 131.812 147.856 131.211 147.848C130.454 147.836 126.485 147.732 126.247 148.92C126.142 149.448 131.114 148.562 131.555 148.562" stroke="#0A60BD" stroke-width="2.4" stroke-linecap="round"/>
<path d="M53.8254 157.833C53.8254 159.105 53.7431 160.967 54.9722 161.735C55.2761 161.925 55.97 162.707 55.3306 162.707C55.1721 162.707 56.3586 162.707 56.6128 162.707C57.2362 162.707 57.654 162.896 58.1977 163.137C59.1144 163.545 59.8906 165.478 60.141 166.355C60.2848 166.858 60.2819 166.383 60.2764 166.084C60.2554 164.952 59.8706 163.881 59.8463 162.739C59.8321 162.069 59.4311 161.281 58.8428 160.987" stroke="#F49D0C" stroke-width="2.4" stroke-linecap="round"/>
<path d="M55.2573 171.042C56.2962 171.096 58.1467 172.241 58.9021 170.882C59.3836 170.015 59.8094 169.138 60.2178 168.321" stroke="#986002" stroke-width="2.4" stroke-linecap="round"/>
</svg>
