<svg width="200" height="200" viewBox="0 0 200 200" fill="none" xmlns="http://www.w3.org/2000/svg">
<circle cx="99.6187" cy="135.5" r="42.5" fill="#FBD24E"/>
<path d="M72.6948 136.499C75.886 133.846 79.3805 131.39 84.0883 130.915C86.459 130.676 89.2721 130.945 90.8474 131.794" stroke="black" stroke-width="2.345" stroke-linecap="round"/>
<path d="M105.214 131.361C106.033 130.365 110.137 129.37 111.354 129.315C113.182 129.232 116.728 129.147 123.712 133.725" stroke="black" stroke-width="2.345" stroke-linecap="round"/>
<path d="M91.7856 104.256C89.7968 104.256 89.9212 107.583 89.9212 108.917C89.9212 111.168 89.338 113.512 92.338 113.578C94.1281 113.618 96.6996 112.265 97.0509 110.333C97.2081 109.468 97.2218 108.296 96.1359 108.296C93.4594 108.296 93.8688 112.558 96.205 113.337C96.8935 113.566 99.9025 114.067 100.469 113.406C101.071 112.703 101.371 110.806 102.04 110.471" stroke="white" stroke-width="1.70601" stroke-linecap="round"/>
<path d="M73.1982 143.678C70.7121 143.678 69.0175 145.228 69.0886 147.788C69.1394 149.619 71.7221 149.949 73.1982 149.949C75.4599 149.949 77.4909 147.953 78.282 145.931C79.4785 142.873 73.868 143.132 72.1632 143.465C69.4263 144.001 70.5054 148.731 72.9851 149.097C74.8286 149.369 76.3287 148.681 76.4707 146.692C76.5601 145.442 76.4741 144.011 74.903 143.952C73.666 143.907 73.812 147.157 73.7614 148.016C73.6635 149.681 74.48 149.115 74.7812 147.91C74.9677 147.164 74.9979 145.87 74.005 145.87C73.3727 145.87 72.0308 146.412 73.1069 147.24C73.3445 147.423 75.208 148.22 75.3748 147.636C75.548 147.03 74.452 146.692 74.0202 146.692" stroke="#FBD24E" stroke-width="2.35" stroke-linecap="round"/>
<path d="M74.6088 140.471C72.7224 140.471 69.1999 139.821 68.3719 142.121C67.9313 143.345 67.7075 144.376 69.2687 144.832C70.789 145.276 76.3224 146.109 77.2176 144.139C77.8778 142.687 76.5441 141.158 75.261 140.695C73.6731 140.121 70.2669 140.113 69.8801 142.305C69.3943 145.058 74.7756 143.053 75.954 142.529C76.0186 142.5 77.4104 141.87 77.3195 141.795C76.5794 141.19 74.3474 141.571 73.4877 141.571C72.4766 141.571 70.3327 141.164 69.4725 141.938C68.9069 142.447 69.7813 142.692 70.1757 142.753C71.786 143.004 73.0633 142.632 74.4661 141.877C74.5228 141.846 75.7999 141.274 75.0877 141.214C74.0574 141.129 72.4828 140.959 71.5209 141.408C71.165 141.574 70.4515 142.231 70.9094 142.662C72.0414 143.727 75.3132 142.909 76.6062 142.478C76.8023 142.413 78.7523 141.757 78.3183 141.204C77.6892 140.404 74.9453 140.78 74.0686 140.868C72.926 140.982 71.4278 141.563 71.0521 142.774C70.8108 143.551 70.7442 144.882 71.6636 145.209C73.6118 145.902 75.6145 145.217 77.1259 143.966C77.9464 143.287 78.4457 142.564 78.2571 141.479C78.0983 140.566 76.7831 140.511 76.0661 140.481C74.4871 140.415 73.4571 141.131 72.7336 142.549C72.3157 143.369 72.1289 144.488 73.1718 144.853C74.174 145.203 75.6067 145.098 76.1476 144.058C76.4326 143.51 76.6461 142.957 76.0762 142.672" stroke="#F49D0C" stroke-width="2.35" stroke-linecap="round"/>
<path d="M126.59 138.108C125.207 138.108 123.39 137.796 122.047 138.159C121.058 138.427 120.67 140.432 120.55 141.244C120.383 142.371 119.906 143.321 121.144 143.915C123.676 145.131 127.618 144.903 130.204 143.915C131.431 143.446 132.084 142.763 133.095 142.108C134.081 141.47 132.049 141.114 131.714 140.999C130.956 140.738 122.811 138.614 122.654 140.108C122.499 141.581 122.777 141.989 124.344 142.16C126.848 142.434 130.267 141.83 132.114 139.914C133.222 138.765 126.112 137.63 124.861 138.714C124.246 139.247 123.951 140.843 124.319 141.579C124.806 142.554 128.336 142.154 129.145 141.773C130.511 141.129 130.435 139.381 128.681 139.966" stroke="#F49D0C" stroke-width="2.35" stroke-linecap="round"/>
<path d="M90.8963 77.5998C90.8963 76.4949 90.7002 75.7073 91.588 74.9561C92.6894 74.0242 94.4322 73.6161 95.8147 73.2347C96.7338 72.9812 99.5447 72.8036 100.088 73.7265C101.052 75.3669 101.048 79.791 99.0732 80.9197C97.9068 81.5862 97.8507 77.2839 96.6908 76.6315C96.067 76.2806 94.3735 75.74 94.0011 76.7083C93.6643 77.5839 93.7939 78.9861 94.831 79.1983C96.2024 79.4788 98.5703 79.4054 99.3191 78.0148C100.237 76.3103 97.0852 76.2165 96.2143 76.2165C94.789 76.2165 93.5832 76.3731 92.9866 77.9072C91.8806 80.7514 96.8014 79.7586 98.0587 79.0753C99.3875 78.3532 102.272 75.5953 99.9031 74.3413C98.8816 73.8005 96.3024 73.0941 95.4766 74.2952C94.132 76.2509 95.0716 78.8433 97.5362 78.7064C97.9308 78.6845 97.8291 78.1614 97.8128 77.8764C97.7566 76.8922 96.7145 76.3349 95.8608 76.1089C95.2202 75.9393 92.3215 75.3814 92.2796 76.5546C92.216 78.3375 93.2582 79.3258 95.0155 79.521C96.6182 79.6991 95.0365 76.4937 94.0625 76.1243C92.8741 75.6735 89.619 75.469 89.513 77.3231C89.3889 79.4951 92.6903 79.5364 94.1855 79.5364C95.8413 79.5364 96.5989 79.5669 96.4295 77.6613C96.2642 75.8011 93.1948 75.2556 91.7878 75.7246C90.6941 76.0892 90.8127 77.539 90.9117 78.4298C91.0302 79.4963 93.0142 80.609 94.0011 80.6431C95.6737 80.7007 99.1432 80.1051 97.6745 77.4615C96.6198 75.5629 94.1066 75.6528 92.1413 75.9552C90.2297 76.2493 90.6197 79.8584 90.6197 81.058C90.6197 83.8624 98.3661 83.839 98.3661 80.1512C98.3661 79.006 98.6849 77.225 98.151 76.2165C97.4887 74.9654 94.8699 74.8332 93.6629 74.8332C90.2081 74.8332 88.4171 78.8816 89.8512 81.7497C91.6104 85.2681 97.1559 83.0329 98.4891 80.3664C99.1128 79.1189 99.4083 76.3904 98.5198 75.2482C97.5391 73.9873 96.7021 74.2313 95.2614 73.788C92.4181 72.9132 89.3584 73.9649 88.9751 77.0311C88.8581 77.9671 88.1492 80.1741 88.8367 81.058C89.7657 82.2525 91.1447 82.5797 92.5563 82.5797" stroke="#FEFFB4" stroke-width="2.4" stroke-linecap="round"/>
<path d="M95.0465 84.7928C93.4103 84.889 92.0892 87.6426 91.5114 88.9427C91.1321 89.7962 91.288 92.448 91.7266 93.2155C93.1287 95.6692 97.3648 95.0292 99.7498 95.0292C103.964 95.0292 109.13 94.841 110.816 90.203C111.354 88.7234 111.646 87.7859 111.646 86.1761C111.646 85.5305 111.646 84.885 111.646 84.2394C111.646 84.0837 110.505 84.9695 110.125 85.054C108.881 85.3304 107.792 85.8994 106.528 85.8994C105.882 85.8994 105.237 85.8994 104.591 85.8994C103.769 85.8994 103.272 85.43 102.516 85.3461C101.374 85.2192 100.236 83.9325 99.0581 83.6707C97.8914 83.4115 95.7073 82.6831 94.4932 83.1943C93.047 83.8032 91.7722 87.2691 94.109 87.544C95.1487 87.6663 96.9048 87.8386 97.9361 87.544C98.6343 87.3445 96.9805 85.7484 96.4913 86.2375C96.0422 86.6867 99.6285 87.4841 99.0735 86.6679C98.4081 85.6893 95.4353 85.8052 97.5519 86.299C98.506 86.5217 101.345 86.6452 99.1811 85.2385C98.3654 84.7083 96.2705 84.4155 97.2598 85.8994" stroke="#FEFFB4" stroke-width="2.4" stroke-linecap="round"/>
<path d="M96.0874 86.313C95.1184 86.313 94.5161 86.1968 94.0685 87.2247C93.61 88.2776 93.5468 89.8284 93.5964 90.9694C93.7001 93.3554 101.549 90.4663 102.177 89.2436C103.05 87.5428 97.5676 87.3637 96.6898 87.7376C95.8763 88.0841 94.9818 88.9268 94.8012 89.8297C94.6234 90.7188 96.0375 90.6678 96.584 90.6926C98.6181 90.7851 100.662 90.5043 102.388 89.3576C103.193 88.8225 104.334 88.0098 104.269 86.9072C104.202 85.7732 102.028 85.7269 101.232 85.7269C99.1204 85.7269 97.697 86.4831 96.3235 88.1039C95.8644 88.6456 95.1761 89.9218 95.4199 90.6763C95.8083 91.8788 97.9745 91.9572 98.9529 91.9951C100.149 92.0414 101.226 91.6479 101.761 90.4972C102.073 89.8274 102.041 88.9823 101.379 88.5435C98.9943 86.9628 95.4664 88.774 94.3941 91.1159C93.1642 93.8023 97.3378 92.9425 98.5784 92.2719C99.4059 91.8246 100.728 90.8693 100.825 89.8297C100.95 88.5016 97.2095 88.9393 96.4863 88.9668C94.7486 89.033 92.9247 89.6614 91.8054 91.0671C91.267 91.7433 90.4741 93.0368 91.488 93.6802C93.045 94.6683 95.4442 93.7862 96.9666 93.2162C98.1588 92.7698 99.6528 92.0249 100.532 91.0752C100.89 90.6883 101.784 88.6541 100.801 88.5272C99.7254 88.3885 98.8443 88.8066 98.0574 89.5041C97.7628 89.7652 96.1759 91.4492 97.1619 91.7346C98.8342 92.2187 101.006 91.6912 102.494 90.9124C103.453 90.4104 104.904 89.606 105.14 88.4295C105.306 87.5991 104.255 87.6565 103.707 87.6399C102.457 87.602 101.507 87.8219 100.516 88.6249C94.8758 93.1934 107.737 93.5132 106.914 89.8134C106.535 88.1057 102.855 88.7919 101.965 89.5611C101.049 90.3517 99.5328 92.4129 101.362 92.972C103.769 93.7074 105.503 91.8732 106.939 90.1798C107.318 89.7331 107.846 89.0531 106.947 88.8691C105.199 88.5115 103.646 89.3301 102.242 90.2693C100.891 91.1724 99.8135 92.1676 99.0424 93.6069C98.8826 93.9053 98.2754 94.7749 98.7412 95.1048C100.499 96.3497 103.967 94.714 104.879 93.0534C105.245 92.3876 106.117 90.2896 105.465 89.6018C105.098 89.2142 103.898 89.752 104.171 90.3426C104.514 91.0851 106.783 90.6776 107.321 90.6112C108.551 90.4596 109.891 90.1538 110.911 89.3983C112.013 88.5824 109.488 87.5328 108.917 87.4934C107.435 87.3912 106.503 88.8676 106.133 90.1879C105.826 91.2833 106.67 91.3219 107.598 91.295C109.154 91.2499 109.494 89.7592 109.682 88.5109C109.858 87.3462 109.339 87.5829 108.656 88.397C107.737 89.4935 105.905 91.1837 105.905 92.7603C105.905 92.9514 106.912 92.0335 106.996 91.9544C107.539 91.4389 108.162 90.8332 108.453 90.1228C108.645 89.6536 108.836 88.7987 108.836 88.2911C108.836 87.8246 109.032 87.6642 109.12 87.2654C109.193 86.9391 106.237 87.5199 105.612 87.4852C105.138 87.4589 104.553 86.8551 104.179 86.606C103.783 86.3421 103.391 86.0725 102.974 85.8408C101.946 85.2694 100.814 84.8744 99.7506 84.343C99.0803 84.0078 98.0025 83.3824 99.3925 83.3824C100.44 83.3824 101.487 83.3824 102.535 83.3824C104.477 83.3824 106.179 83.0529 108.03 82.6416C108.746 82.4823 109.276 81.7786 109.935 81.6321C110.78 81.4442 110.868 81.8562 111.294 82.3892C111.666 82.8548 111.542 84.1245 111.18 84.5546C110.601 85.2422 109.275 87.3642 109.275 85.0837C109.275 84.7329 109.424 84.2615 108.974 84.2615C107.894 84.2615 106.776 84.1674 105.701 84.2697C105.44 84.2945 104.23 84.9053 104.277 84.9209C105.816 85.4341 107.578 84.7011 109.129 84.7011" stroke="#FEFFB4" stroke-width="2.4" stroke-linecap="round"/>
<path d="M92.5786 91.4517C92.5786 92.0402 92.7631 92.3002 93.2951 92.5662C93.4049 92.6211 93.8008 92.7414 93.4703 92.7414C92.7494 92.7414 92.0248 92.6477 91.3765 92.3115C90.2583 91.7317 90.4807 90.5908 90.1743 89.5569C89.9605 88.8352 90.1573 87.8425 90.5007 87.2243C90.8366 86.6198 91.5591 85.433 92.3636 85.433C93.011 85.433 93.6387 85.2897 94.3062 85.2897C96.4545 85.2897 98.5377 85.846 100.683 85.8629C102.105 85.8741 103.851 86.0826 105.221 85.5763C105.836 85.3492 106.598 85.1464 107.259 85.1464C108.072 85.1464 110.348 82.1606 110.348 84.4299" stroke="#FEFFB4" stroke-width="2.4" stroke-linecap="round"/>
<path d="M92.4247 84.3813C89.2409 84.3813 88.5293 81.0401 88.5293 78.4217C88.5293 77.5248 88.6159 76.044 89.4948 75.5418C89.8976 75.3116 90.2844 74.8269 90.6601 74.5263C90.8523 74.3726 91.7534 73.77 91.9752 73.7439C92.6114 73.6691 93.1576 73.1446 93.8397 73.1446C94.4917 73.1446 95.1437 73.1446 95.7957 73.1446C96.3801 73.1446 96.9249 73.025 97.3688 73.4443C97.8583 73.9065 98.7238 74.2052 99.0501 74.7927C99.7435 76.0407 99.9158 77.2799 99.9158 78.7546C99.9158 79.456 99.7723 79.7592 99.433 80.3361C99.1052 80.8934 98.4621 81.1871 98.1512 81.6845C98.0506 81.8455 97.6564 81.9414 97.6684 82.1339C97.6837 82.3784 98.315 82.2838 98.4925 82.2838C98.9009 82.2838 99.6391 82.4048 99.9158 82.059C100.664 81.1237 101.264 80.2773 101.264 78.9877C101.264 77.9274 101.552 76.2957 100.731 75.4752C99.868 74.6118 98.499 74.4048 97.6351 73.6274C97.052 73.1026 95.5034 72.845 94.7469 72.845C93.6422 72.845 92.5237 72.7622 91.5257 73.2612C90.1648 73.9416 89.1286 74.2908 89.1286 76.0578C89.1286 77.3472 88.9869 78.4756 89.7279 79.587" stroke="#FEFFB4" stroke-width="2.4" stroke-linecap="round"/>
<path d="M95.4177 80.0497C94.1641 80.0497 92.9545 80.0161 91.7465 80.2845C91.348 80.3731 90.7721 81.284 91.2891 81.5577C91.7041 81.7774 92.6119 81.6072 93.0815 81.6072C93.7821 81.6072 95.6468 81.9219 96.1346 81.4341C97.1351 80.4336 95.1248 80.0497 94.5277 80.0497" stroke="#FF8A00" stroke-width="2.4" stroke-linecap="round"/>
<path d="M90.6226 77.4082C89.6458 77.4082 90.6226 78.5451 90.6226 77.5546" stroke="black" stroke-width="2.4" stroke-linecap="round"/>
<path d="M97.6927 77.0801C97.4207 77.0801 97.3623 77.3233 97.3623 77.552C97.3623 77.7379 97.7399 77.684 97.7399 77.4576" stroke="black" stroke-width="2.4" stroke-linecap="round"/>
<path d="M89.5815 94.8804C89.5815 95.9822 93.0001 97.0052 93.9198 97.0052C94.7551 97.0052 95.5472 97.7135 96.3988 97.7135C96.9911 97.7135 97.6084 98.0466 98.2187 98.0677C99.1674 98.1004 100.122 98.0677 101.072 98.0677C102.157 98.0677 103.802 98.0238 104.81 97.5758C105.517 97.2615 106.245 96.8608 107.013 96.6413C107.561 96.4848 108.135 95.9745 108.568 95.628C109.199 95.1228 109.591 94.8119 109.591 95.8543C109.591 97.4011 108.47 98.2435 107.112 98.8153C106.446 99.0957 105.349 99.2674 104.633 99.3072C103.62 99.3634 102.69 99.6613 101.632 99.6613C100.773 99.6613 99.914 99.6613 99.0549 99.6613C98.3488 99.6613 97.5879 99.1716 96.8415 99.1301C95.0225 99.0291 93.3958 97.7454 91.7064 97.1823" stroke="#F49D0C" stroke-width="2.4" stroke-linecap="round"/>
<path d="M90.3198 74.0946C90.3676 73.7918 90.8264 73.3727 91.0473 73.1763C91.2974 72.954 91.5799 72.7859 91.8769 72.6374C92.2826 72.4345 92.7051 72.3528 93.139 72.2403C93.624 72.1146 94.1661 72.1782 94.6628 72.1782C95.1266 72.1782 95.6798 72.1509 96.1311 72.2669C96.6099 72.3901 97.112 72.4954 97.5662 72.6972C97.7708 72.7882 97.8373 73.0231 98.0253 73.1275C98.1863 73.2169 98.2475 73.507 98.3847 73.5756" stroke="#FDFFB4" stroke-width="2.4" stroke-linecap="round"/>
<path d="M94.1067 71.5606C93.7781 71.232 93.5054 69.912 94.0013 69.6641" stroke="#FDFFB4" stroke-width="2.4" stroke-linecap="round"/>
<path d="M102.296 89.4218C103.46 89.4218 104.637 89.8879 105.789 89.402C106.617 89.0527 107.684 88.9309 108.128 88.1308C108.282 87.8531 108.269 87.0323 107.975 86.8398C107.666 86.6382 107.31 86.6632 106.976 86.5678C106.912 86.5496 107.716 86.1046 107.836 86.0583C108.415 85.8359 109.152 84.8885 109.152 84.2578" stroke="#FBD24E" stroke-width="2.4" stroke-linecap="round"/>
<path d="M75.8443 133.627C75.0525 133.627 74.394 133.707 73.6917 133.308C73.2432 133.053 72.4053 132.905 72.4053 132.251" stroke="black" stroke-width="2.4" stroke-linecap="round"/>
<path d="M121.009 131.448C121.764 131.448 122.235 131.399 122.901 131.041C123.393 130.776 123.859 130.425 124.334 130.188" stroke="black" stroke-width="2.4" stroke-linecap="round"/>
<path d="M91.2979 142.179C91.4552 141.824 92.809 141.792 93.1416 141.736C94.1475 141.567 95.1267 141.457 96.1224 141.238C98.1657 140.79 100.425 140.542 102.52 140.519C105.211 140.49 108.314 140.063 110.657 141.625" stroke="black" stroke-width="2.4" stroke-linecap="round"/>
<path d="M90.5233 142.732C90.5233 143.161 90.3836 143.828 90.683 144.17C90.9762 144.505 91.2133 145.144 91.4021 145.553C91.8836 146.596 92.5011 147.143 93.2889 147.931C94.4107 149.053 95.9918 149.598 97.5419 149.812C99.0637 150.022 100.789 150.288 102.243 149.652C103.193 149.237 104.242 148.793 105.237 148.509C106.206 148.232 106.806 147.208 107.449 146.493C108.014 145.866 108.578 145.033 108.912 144.281C109.182 143.672 109.159 142.963 109.44 142.4" stroke="black" stroke-width="2.4" stroke-linecap="round"/>
<path d="M56.1404 144.849C52.7273 144.849 48.6582 144.756 47.6183 140.712C47.1912 139.051 46.9111 137.083 46.9111 135.372C46.9111 134.416 47.2773 132.747 46.2746 132.19C44.4876 131.197 42.26 130.966 40.2278 130.846C38.4505 130.742 38 127.42 38 126.072" stroke="white" stroke-width="2.4" stroke-linecap="round"/>
<path d="M141.75 141.348C143.199 141.348 145.672 141.858 146.913 141.03C148.803 139.77 150.148 137.908 151.616 136.256C153.311 134.349 151.967 130.813 153.844 128.936C155.219 127.561 158.554 126.182 160.527 126.072C162.426 125.966 162.599 121.86 161.8 120.662" stroke="white" stroke-width="2.4" stroke-linecap="round"/>
<path d="M94.6489 179.22C94.6489 182.291 94.6489 185.361 94.6489 188.432C94.6489 190.527 95.2854 192.657 95.2854 194.655C95.2854 195.239 95.2854 195.822 95.2854 196.406C95.2854 197.491 94.8799 197.042 93.5527 197.042C92.379 197.042 87.9847 196.368 87.3291 197.679" stroke="white" stroke-width="2.4" stroke-linecap="round"/>
<path d="M108.039 178.215C108.039 180.965 109.31 183.628 111.54 185.188C113.535 186.585 116.77 187.154 119.122 186.544C120.337 186.229 121.939 185.983 122.858 185.064C123.125 184.796 124.487 183.058 124.726 183.058C124.987 183.058 124.742 183.594 124.85 183.832C125.071 184.318 125.255 184.823 125.473 185.313C125.698 185.819 125.992 186.693 126.469 186.932" stroke="white" stroke-width="2.4" stroke-linecap="round"/>
<path d="M63.6517 85.0169C63.604 85.3984 64.7713 85.2007 65.1324 85.1946C65.8709 85.1823 66.2782 84.858 66.6724 84.2667C67.3764 83.2107 68.3811 82.0475 68.4493 80.7524C68.4599 80.5508 68.5826 80.0526 68.6665 79.864C68.7776 79.6139 68.8047 78.7808 68.8047 79.0545C68.8047 80.1111 68.8477 80.8656 69.3377 81.8186C69.9075 82.9265 71.0244 84.1285 72.3584 84.1285C72.6785 84.1285 73.8739 83.946 74.0958 84.168C74.194 84.2661 73.3727 84.4901 73.2863 84.5234C72.8928 84.6747 72.3241 84.9677 71.9636 85.1946C70.8116 85.9199 69.8708 87.4969 69.8708 88.8866C69.8708 89.479 69.6931 90.0722 69.6931 90.703C69.6931 91.3875 69.4393 90.1755 69.3377 89.9725C69.1218 89.5407 68.7273 89.1778 68.4888 88.7484C67.9116 87.7096 66.6796 87.1695 65.8235 86.399C65.1106 85.7574 64.0879 85.0169 63.1187 85.0169" stroke="#409AF0" stroke-width="2.4" stroke-linecap="round"/>
<path d="M68.8045 83.9507C68.8045 84.3238 68.4902 86.287 69.2389 86.0731C69.7939 85.9145 69.6602 83.9182 68.765 84.5627C68.4665 84.7776 68.2498 85.3587 68.2715 85.7276C68.2932 86.0971 68.6967 85.8197 68.617 85.461C68.3514 84.2661 65.5483 85.5499 67.9161 85.5499" stroke="#409AF0" stroke-width="2.4" stroke-linecap="round"/>
<path d="M76.4746 67.5261C76.4746 68.1461 77.0732 68.189 77.6277 68.0306C77.8795 67.9586 77.0905 67.0727 76.734 67.7855" stroke="#409AF0" stroke-width="2.4" stroke-linecap="round"/>
<path d="M91.0838 49.5908C91.0838 52.819 95.7328 50.9723 94.8817 47.9934C94.6849 47.3046 93.4584 45.9294 92.6975 45.7603C91.5727 45.5103 89.4426 44.4614 88.2965 45.3528C86.4116 46.8188 85.4717 51.2406 86.6176 53.405C87.9337 55.8911 90.9875 56.0456 93.431 56.0456" stroke="#80C1FF" stroke-width="2.4" stroke-linecap="round"/>
<path d="M132.364 83.9146C131.034 84.0623 129.934 87.7705 131.592 87.7705C132.632 87.7705 135.792 88.2054 136.198 86.7851C137.154 83.441 135.976 80.0586 131.978 80.0586C127.292 80.0586 126.58 83.2118 126.58 87.1921C126.58 88.5613 127.013 90.0991 128.336 90.8553C129.261 91.3835 131.948 92.3381 132.364 93.1689" stroke="#409AF0" stroke-width="2.4" stroke-linecap="round"/>
<path d="M112.172 68.4043C113.006 66.8196 114.466 65.7125 115.222 64.0386C115.652 63.0864 115.744 62.3916 115.744 61.3752C115.744 60.7445 115.698 62.7126 116.036 63.2448C116.443 63.8839 116.694 64.152 117.248 64.6443C118.036 65.3448 119.19 65.2083 120.162 65.2083C120.508 65.2083 119.289 65.3836 118.982 65.5843C118.475 65.9158 117.863 66.4972 117.54 67.0047C116.892 68.0238 116.806 69.2937 116.872 70.4723C116.892 70.8371 117.463 71.5 117.206 70.702C116.95 69.9063 116.348 69.5821 115.932 69.0623C115.177 68.1183 112.024 68.1021 111.044 68.5923" stroke="#80C1FF" stroke-width="2.4" stroke-linecap="round"/>
<path d="M115.556 65.7734C115.556 66.6486 115.763 67.4464 116.684 66.5254C117.104 66.105 117.095 65.8477 116.412 65.9719C115.942 66.0573 115.736 66.7295 115.556 67.0894" stroke="#80C1FF" stroke-width="2.4" stroke-linecap="round"/>
<path d="M139.62 64.9755C139.21 64.9755 139.099 65.1393 139.149 65.5647C139.185 65.8719 140.191 65.9451 140.445 65.9183C140.766 65.8845 140.695 65.2119 140.681 64.9755C140.664 64.696 140.16 64.7398 139.974 64.7398" stroke="white" stroke-width="2.4" stroke-linecap="round"/>
<path d="M93.1484 144.983C94.4163 144.983 95.7113 145.064 96.9762 144.977C97.8514 144.917 98.6252 144.443 99.52 144.443C100.375 144.443 101.208 144.47 102.052 144.335C102.682 144.234 103.526 144.232 104.08 143.903C104.448 143.685 106.648 143.538 106.648 143.147C106.648 142.946 104.196 143.039 103.834 143.039C102.738 143.039 101.642 143.039 100.546 143.039C99.4087 143.039 98.312 143.363 97.1922 143.363C95.6761 143.363 94.1736 143.903 92.6084 143.903" stroke="white" stroke-width="2.4" stroke-linecap="round"/>
<path d="M102.004 146.063C101.287 146.063 100.492 145.964 99.79 146.117C99.3555 146.212 98.8833 146.387 98.44 146.387C98.129 146.387 97.8219 146.496 97.5281 146.603C97.1667 146.735 96.6563 146.694 96.3342 146.873C96.1398 146.981 95.6396 147.035 95.4162 147.035C94.7791 147.035 95.7433 147.234 95.9562 147.335C96.5405 147.612 97.3013 147.791 97.9481 147.791C98.727 147.791 99.4594 147.467 100.216 147.467C100.73 147.467 101.442 147.263 101.896 147.011C102.449 146.704 103.019 146.639 103.57 146.333C104.015 146.086 104.519 145.847 105.028 145.847" stroke="#F49D0C" stroke-width="2.4" stroke-linecap="round"/>
</svg>
