`<svg class="emoji" width="100%" height="100%" fill="none" xmlns="http://www.w3.org/2000/svg">
    <circle cx="42.5" cy="42.5" r="42.5" fill="#409AF0"/>
    <path d="M12.8939 45.1247C16.9252 45.7744 21.4146 47.1829 25.3988 45.7475C27.405 45.0248 28.8755 43.3944 30.6327 42.2606C31.0834 41.9698 31.4284 41.5579 31.9303 41.4005" stroke="black" stroke-width="2.345" stroke-linecap="round"/>
    <path d="M48.8883 41.2021C49.0998 42.4746 50.1005 43.25 51.1269 43.9052C52.6693 44.8898 54.0455 45.7257 55.7425 46.4111C57.7381 47.2171 59.486 48.0474 61.6884 48.0484C62.8888 48.049 64.0229 47.6882 65.2116 47.8765" stroke="black" stroke-width="2.345" stroke-linecap="round"/>
    <path d="M27.6293 61.413C27.6909 60.3047 29.2257 59.1762 30.0331 58.5303C31.1193 57.6613 32.6067 57.1372 33.8916 56.6232C37.4657 55.1936 40.7831 54.5524 44.305 56.3837C44.7432 56.6116 45.3102 56.9201 45.671 57.2619C45.9842 57.5586 46.0899 57.9722 46.4338 58.2198C46.9889 58.6195 47.6402 59.1881 47.9949 59.7455C48.3869 60.3614 48.801 61.0253 49.0593 61.6969C49.24 62.1666 49.8221 62.6714 49.8221 63.1693" stroke="black" stroke-width="2.345" stroke-linecap="round"/>
    <path d="M36.7026 10.2329C34.7137 10.2329 34.8382 13.5599 34.8382 14.8939C34.8382 17.1445 34.255 19.4883 37.255 19.555C39.045 19.5948 41.6166 18.2412 41.9679 16.3095C42.1251 15.4448 42.1388 14.2725 41.0529 14.2725C38.3764 14.2725 38.7858 18.5346 41.122 19.3133C41.8105 19.5428 44.8195 20.0432 45.3859 19.3824C45.9882 18.6797 46.2876 16.7823 46.9569 16.4476" stroke="white" stroke-width="1.70601" stroke-linecap="round"/>
    <path d="M12.0731 47.2939C12.6334 47.2939 13.2944 47.7454 13.8373 47.9264C14.4298 48.1239 15.05 47.9654 15.6598 48.1178C16.4702 48.3204 17.4853 48.6421 18.2812 48.6421C19.9983 48.6421 21.5987 48.3425 23.3076 48.3425" stroke="#0A60BD" stroke-width="2.35" stroke-linecap="round"/>
    <path d="M53.8655 48.1924C54.9737 48.254 56.0354 49.0158 57.086 49.2493C58.0478 49.463 58.8441 49.9899 59.8572 49.9899C61.6177 49.9899 63.4459 50.1397 65.2498 50.1397" stroke="#0A60BD" stroke-width="2.35" stroke-linecap="round"/>
    <path d="M11.9487 48.9842C12.239 50.2903 15.3587 49.9784 16.3287 50.2816C17.3839 50.6113 18.8465 50.3814 19.9436 50.3814C20.5224 50.3814 21.1766 50.2831 21.6845 49.9822C22.3193 49.606 23.1016 49.7942 23.7692 49.3834C24.2031 49.1164 24.5234 49.1343 24.8781 48.7402C25.203 48.3792 25.2923 48.0723 25.7208 47.7866" stroke="#0A60BD" stroke-width="2.35" stroke-linecap="round"/>
    <path d="M51.6271 46.5923C52.5544 48.4469 53.8083 48.8592 55.4733 49.9478C56.0259 50.3092 56.7242 50.6783 57.3669 50.8211C58.0618 50.9755 58.8869 51.3607 59.5843 51.3607C61.9001 51.3607 64.4732 52.6897 65.7558 50.1245" stroke="#0A60BD" stroke-width="2.35" stroke-linecap="round"/>
    </svg>