<svg width="137" height="11" viewBox="0 0 137 11" fill="none" xmlns="http://www.w3.org/2000/svg">
<path d="M0.0928197 10V0.51988H2.04776L6.42629 6.93369V0.51988H8.34106V10H6.43968L2.00759 3.65314V10H0.0928197ZM13.3707 10.0937C12.6565 10.0937 12.0317 9.9509 11.4961 9.66525C10.9605 9.37067 10.5454 8.95558 10.2508 8.41998C9.95623 7.87545 9.80894 7.23273 9.80894 6.49182C9.80894 5.73305 9.95623 5.08141 10.2508 4.53688C10.5543 3.98343 10.9739 3.55941 11.5095 3.26483C12.0451 2.97025 12.661 2.82296 13.3573 2.82296C14.0714 2.82296 14.6918 2.97471 15.2185 3.27822C15.7452 3.58173 16.1558 4.00574 16.4504 4.55027C16.745 5.0948 16.8922 5.74644 16.8922 6.50521C16.8922 7.24612 16.745 7.88884 16.4504 8.43337C16.1647 8.96897 15.7586 9.3796 15.2319 9.66525C14.7141 9.9509 14.0937 10.0937 13.3707 10.0937ZM13.3439 8.37981C13.7545 8.37981 14.0848 8.29054 14.3348 8.11201C14.5847 7.93348 14.7632 7.70138 14.8704 7.41573C14.9864 7.12115 15.0444 6.81318 15.0444 6.49182C15.0444 6.17046 14.9864 5.86249 14.8704 5.56791C14.7632 5.27333 14.5847 5.03231 14.3348 4.84485C14.0937 4.64846 13.7635 4.55027 13.3439 4.55027C12.9422 4.55027 12.6164 4.64846 12.3664 4.84485C12.1165 5.03231 11.9335 5.27333 11.8174 5.56791C11.7103 5.86249 11.6568 6.17046 11.6568 6.49182C11.6568 6.82211 11.7103 7.13008 11.8174 7.41573C11.9335 7.70138 12.1165 7.93348 12.3664 8.11201C12.6164 8.29054 12.9422 8.37981 13.3439 8.37981ZM20.9713 10.0937C20.1768 10.0937 19.5877 9.87056 19.2038 9.42423C18.8289 8.9779 18.6414 8.36642 18.6414 7.5898V4.61722H17.5836V2.94347H18.6414V1.04209H20.516V2.94347H22.6584V4.61722H20.516V7.20149C20.516 7.43358 20.5428 7.63443 20.5964 7.80404C20.6589 7.97365 20.757 8.10755 20.8909 8.20574C21.0338 8.29501 21.2257 8.33964 21.4667 8.33964C21.681 8.33964 21.8595 8.3084 22.0023 8.24591C22.1541 8.1745 22.279 8.09862 22.3772 8.01828L22.9664 9.4644C22.7789 9.61615 22.5692 9.74113 22.3371 9.83932C22.1139 9.92859 21.8863 9.99107 21.6542 10.0268C21.4221 10.0714 21.1945 10.0937 20.9713 10.0937ZM30.7473 10.0937C30.0064 10.0937 29.3771 9.94644 28.8594 9.65186C28.3416 9.35728 27.9444 8.94219 27.6676 8.40659C27.3909 7.86206 27.2526 7.22827 27.2526 6.50521C27.2526 5.77322 27.3954 5.13497 27.681 4.59044C27.9667 4.03699 28.3684 3.60404 28.8861 3.29161C29.4128 2.97918 30.0332 2.82296 30.7473 2.82296C31.2829 2.82296 31.7516 2.91223 32.1533 3.09076C32.5639 3.26929 32.9076 3.51924 33.1843 3.8406C33.47 4.16196 33.6798 4.53688 33.8137 4.96536C33.9565 5.38491 34.0234 5.84017 34.0145 6.33114C34.0145 6.45611 34.01 6.57662 34.0011 6.69267C33.9922 6.80872 33.9743 6.92476 33.9476 7.04081H29.1138C29.1405 7.30861 29.2164 7.55409 29.3414 7.77726C29.4664 8.00043 29.6404 8.17896 29.8636 8.31286C30.0957 8.43783 30.3813 8.50032 30.7206 8.50032C30.9437 8.50032 31.149 8.478 31.3365 8.43337C31.524 8.37981 31.6846 8.29947 31.8185 8.19235C31.9524 8.08523 32.0462 7.96026 32.0997 7.81743H33.9476C33.8315 8.3441 33.6128 8.77705 33.2914 9.11626C32.979 9.45547 32.5996 9.70542 32.1533 9.8661C31.707 10.0179 31.2383 10.0937 30.7473 10.0937ZM29.1539 5.72859H32.2202C32.2113 5.48757 32.1488 5.2644 32.0328 5.05909C31.9257 4.84485 31.7605 4.67524 31.5374 4.55027C31.3231 4.41637 31.0464 4.34942 30.7072 4.34942C30.368 4.34942 30.0823 4.41637 29.8502 4.55027C29.627 4.68417 29.4574 4.85824 29.3414 5.07248C29.2343 5.27779 29.1718 5.4965 29.1539 5.72859ZM34.4353 10L36.8991 6.39809L34.5559 2.94347H36.7384L38.131 5.16621L39.4968 2.94347H41.6124L39.2557 6.43826L41.7731 10H39.5905L38.0506 7.68353L36.5242 10H34.4353ZM45.7843 10C45.1952 10 44.6997 9.92859 44.298 9.78576C43.9052 9.64293 43.6062 9.40191 43.4009 9.0627C43.2045 8.71456 43.1063 8.24145 43.1063 7.64336V4.61722H42.0619V2.94347H43.1063V1.05548H44.9809V2.94347H46.5208V4.61722H44.9809V7.37556C44.9809 7.67014 45.0345 7.90223 45.1416 8.07184C45.2487 8.24145 45.4897 8.32625 45.8647 8.32625H46.4538V10H45.7843ZM47.4877 10V2.94347H49.1748L49.2953 3.78704C49.4739 3.51924 49.6747 3.31839 49.8979 3.18449C50.121 3.04166 50.3531 2.94793 50.5941 2.9033C50.8352 2.84974 51.0807 2.82296 51.3306 2.82296C51.4466 2.82296 51.5538 2.82742 51.652 2.83635C51.7502 2.83635 51.8216 2.83635 51.8662 2.83635V4.644H51.4243C51.0048 4.644 50.6388 4.71541 50.3263 4.85824C50.0139 5.00107 49.7729 5.22423 49.6033 5.52774C49.4426 5.83125 49.3623 6.21956 49.3623 6.69267V10H47.4877ZM54.9804 10.0937C54.6591 10.0937 54.3466 10.0536 54.0431 9.97322C53.7485 9.88395 53.4852 9.75005 53.2531 9.57152C53.021 9.39299 52.838 9.16982 52.7041 8.90202C52.5702 8.63422 52.5033 8.32179 52.5033 7.96472C52.5033 7.48268 52.6015 7.09883 52.7978 6.81318C52.9942 6.5186 53.2576 6.29543 53.5879 6.14368C53.9181 5.99193 54.2975 5.88927 54.726 5.83571C55.1634 5.78215 55.6142 5.75537 56.0784 5.75537H57.096C57.096 5.4965 57.0469 5.26887 56.9487 5.07248C56.8595 4.86717 56.7211 4.71095 56.5337 4.60383C56.3462 4.48778 56.1052 4.42976 55.8106 4.42976C55.6231 4.42976 55.4401 4.45654 55.2616 4.5101C55.092 4.55473 54.9492 4.62168 54.8331 4.71095C54.7171 4.80022 54.6412 4.91626 54.6055 5.05909H52.7041C52.7577 4.66632 52.8827 4.33157 53.079 4.05484C53.2754 3.76919 53.5209 3.53709 53.8155 3.35856C54.1101 3.18003 54.4314 3.05059 54.7796 2.97025C55.1366 2.88098 55.5026 2.83635 55.8775 2.83635C56.9041 2.83635 57.6629 3.13093 58.1538 3.72009C58.6448 4.30032 58.8903 5.12604 58.8903 6.19724V10H57.2032L57.1764 9.08948C56.9532 9.40191 56.6988 9.62954 56.4131 9.77237C56.1364 9.9152 55.8686 10.0045 55.6097 10.0402C55.3509 10.0759 55.1411 10.0937 54.9804 10.0937ZM55.4089 8.60744C55.7213 8.60744 56.007 8.54495 56.2659 8.41998C56.5247 8.29501 56.73 8.1254 56.8818 7.91116C57.0336 7.69692 57.1094 7.4559 57.1094 7.1881V7.01403H55.824C55.6365 7.01403 55.4535 7.02296 55.275 7.04081C55.1054 7.05866 54.9492 7.09437 54.8063 7.14793C54.6724 7.19256 54.5653 7.26844 54.485 7.37556C54.4046 7.48268 54.3645 7.62551 54.3645 7.80404C54.3645 7.98257 54.4091 8.13433 54.4984 8.2593C54.5966 8.37535 54.726 8.46461 54.8867 8.5271C55.0474 8.58066 55.2214 8.60744 55.4089 8.60744ZM62.0953 10L59.6182 2.94347H61.6668L63.354 8.47354L65.0277 2.94347H67.0898L64.6126 10H62.0953ZM71.0481 10.0937C70.3072 10.0937 69.6779 9.94644 69.1601 9.65186C68.6424 9.35728 68.2451 8.94219 67.9684 8.40659C67.6917 7.86206 67.5533 7.22827 67.5533 6.50521C67.5533 5.77322 67.6961 5.13497 67.9818 4.59044C68.2674 4.03699 68.6691 3.60404 69.1869 3.29161C69.7136 2.97918 70.334 2.82296 71.0481 2.82296C71.5837 2.82296 72.0524 2.91223 72.4541 3.09076C72.8647 3.26929 73.2084 3.51924 73.4851 3.8406C73.7707 4.16196 73.9805 4.53688 74.1144 4.96536C74.2572 5.38491 74.3242 5.84017 74.3153 6.33114C74.3153 6.45611 74.3108 6.57662 74.3019 6.69267C74.2929 6.80872 74.2751 6.92476 74.2483 7.04081H69.4145C69.4413 7.30861 69.5172 7.55409 69.6422 7.77726C69.7671 8.00043 69.9412 8.17896 70.1644 8.31286C70.3965 8.43783 70.6821 8.50032 71.0213 8.50032C71.2445 8.50032 71.4498 8.478 71.6373 8.43337C71.8247 8.37981 71.9854 8.29947 72.1193 8.19235C72.2532 8.08523 72.3469 7.96026 72.4005 7.81743H74.2483C74.1323 8.3441 73.9136 8.77705 73.5922 9.11626C73.2798 9.45547 72.9004 9.70542 72.4541 9.8661C72.0077 10.0179 71.5391 10.0937 71.0481 10.0937ZM69.4547 5.72859H72.521C72.5121 5.48757 72.4496 5.2644 72.3335 5.05909C72.2264 4.84485 72.0613 4.67524 71.8381 4.55027C71.6239 4.41637 71.3471 4.34942 71.0079 4.34942C70.6687 4.34942 70.3831 4.41637 70.151 4.55027C69.9278 4.68417 69.7582 4.85824 69.6422 5.07248C69.535 5.27779 69.4725 5.4965 69.4547 5.72859ZM75.523 10V2.94347H77.2101L77.3306 3.78704C77.5092 3.51924 77.71 3.31839 77.9332 3.18449C78.1563 3.04166 78.3884 2.94793 78.6295 2.9033C78.8705 2.84974 79.116 2.82296 79.3659 2.82296C79.482 2.82296 79.5891 2.82742 79.6873 2.83635C79.7855 2.83635 79.8569 2.83635 79.9015 2.83635V4.644H79.4596C79.0401 4.644 78.6741 4.71541 78.3617 4.85824C78.0492 5.00107 77.8082 5.22423 77.6386 5.52774C77.4779 5.83125 77.3976 6.21956 77.3976 6.69267V10H75.523ZM83.6585 10.0937C82.864 10.0937 82.2748 9.87056 81.891 9.42423C81.5161 8.9779 81.3286 8.36642 81.3286 7.5898V4.61722H80.2708V2.94347H81.3286V1.04209H83.2032V2.94347H85.3456V4.61722H83.2032V7.20149C83.2032 7.43358 83.23 7.63443 83.2835 7.80404C83.346 7.97365 83.4442 8.10755 83.5781 8.20574C83.7209 8.29501 83.9129 8.33964 84.1539 8.33964C84.3681 8.33964 84.5467 8.3084 84.6895 8.24591C84.8412 8.1745 84.9662 8.09862 85.0644 8.01828L85.6536 9.4644C85.4661 9.61615 85.2563 9.74113 85.0242 9.83932C84.8011 9.92859 84.5734 9.99107 84.3413 10.0268C84.1092 10.0714 83.8816 10.0937 83.6585 10.0937ZM89.6555 10.0937C88.9146 10.0937 88.2853 9.94644 87.7675 9.65186C87.2498 9.35728 86.8525 8.94219 86.5758 8.40659C86.2991 7.86206 86.1607 7.22827 86.1607 6.50521C86.1607 5.77322 86.3035 5.13497 86.5892 4.59044C86.8748 4.03699 87.2765 3.60404 87.7943 3.29161C88.321 2.97918 88.9414 2.82296 89.6555 2.82296C90.1911 2.82296 90.6597 2.91223 91.0614 3.09076C91.4721 3.26929 91.8157 3.51924 92.0925 3.8406C92.3781 4.16196 92.5879 4.53688 92.7218 4.96536C92.8646 5.38491 92.9316 5.84017 92.9227 6.33114C92.9227 6.45611 92.9182 6.57662 92.9093 6.69267C92.9003 6.80872 92.8825 6.92476 92.8557 7.04081H88.0219C88.0487 7.30861 88.1246 7.55409 88.2495 7.77726C88.3745 8.00043 88.5486 8.17896 88.7718 8.31286C89.0038 8.43783 89.2895 8.50032 89.6287 8.50032C89.8519 8.50032 90.0572 8.478 90.2447 8.43337C90.4321 8.37981 90.5928 8.29947 90.7267 8.19235C90.8606 8.08523 90.9543 7.96026 91.0079 7.81743H92.8557C92.7397 8.3441 92.521 8.77705 92.1996 9.11626C91.8872 9.45547 91.5078 9.70542 91.0614 9.8661C90.6151 10.0179 90.1465 10.0937 89.6555 10.0937ZM88.0621 5.72859H91.1284C91.1195 5.48757 91.057 5.2644 90.9409 5.05909C90.8338 4.84485 90.6687 4.67524 90.4455 4.55027C90.2313 4.41637 89.9545 4.34942 89.6153 4.34942C89.2761 4.34942 88.9905 4.41637 88.7584 4.55027C88.5352 4.68417 88.3656 4.85824 88.2495 5.07248C88.1424 5.27779 88.0799 5.4965 88.0621 5.72859ZM97.036 10.0937C96.3219 10.0937 95.7282 9.93305 95.2551 9.61169C94.7909 9.2814 94.4428 8.844 94.2107 8.29947C93.9786 7.74602 93.8626 7.13454 93.8626 6.46504C93.8626 5.75983 93.9875 5.13497 94.2375 4.59044C94.4874 4.03699 94.8579 3.60404 95.3489 3.29161C95.8398 2.97918 96.4513 2.82296 97.1833 2.82296C97.4332 2.82296 97.6787 2.8542 97.9197 2.91669C98.1697 2.97025 98.3973 3.05505 98.6026 3.1711C98.8169 3.27822 98.9999 3.42105 99.1516 3.59958V0.51988H101.026V10H99.2052L99.1784 9.20999C99.0177 9.4153 98.8213 9.58491 98.5892 9.71881C98.3661 9.84378 98.1251 9.93751 97.8662 10C97.6073 10.0625 97.3306 10.0937 97.036 10.0937ZM97.4109 8.40659C97.8126 8.40659 98.1384 8.31286 98.3884 8.1254C98.6473 7.93794 98.8392 7.69692 98.9642 7.40234C99.0891 7.10776 99.1516 6.79086 99.1516 6.45165C99.1516 6.10351 99.0891 5.78661 98.9642 5.50096C98.8481 5.20638 98.6607 4.97429 98.4018 4.80468C98.1518 4.62615 97.8215 4.53688 97.4109 4.53688C97.0003 4.53688 96.67 4.63061 96.4201 4.81807C96.1701 5.00553 95.9916 5.25101 95.8845 5.55452C95.7863 5.8491 95.7372 6.166 95.7372 6.50521C95.7372 6.75516 95.764 6.99618 95.8175 7.22827C95.88 7.45144 95.9782 7.65229 96.1121 7.83082C96.246 8.00935 96.4201 8.15218 96.6343 8.2593C96.8485 8.35749 97.1074 8.40659 97.4109 8.40659ZM108.514 10.0937C108.193 10.0937 107.88 10.0536 107.577 9.97322C107.282 9.88395 107.019 9.75005 106.787 9.57152C106.555 9.39299 106.372 9.16982 106.238 8.90202C106.104 8.63422 106.037 8.32179 106.037 7.96472C106.037 7.48268 106.135 7.09883 106.332 6.81318C106.528 6.5186 106.791 6.29543 107.122 6.14368C107.452 5.99193 107.831 5.88927 108.26 5.83571C108.697 5.78215 109.148 5.75537 109.612 5.75537H110.63C110.63 5.4965 110.581 5.26887 110.483 5.07248C110.393 4.86717 110.255 4.71095 110.068 4.60383C109.88 4.48778 109.639 4.42976 109.344 4.42976C109.157 4.42976 108.974 4.45654 108.795 4.5101C108.626 4.55473 108.483 4.62168 108.367 4.71095C108.251 4.80022 108.175 4.91626 108.139 5.05909H106.238C106.292 4.66632 106.417 4.33157 106.613 4.05484C106.809 3.76919 107.055 3.53709 107.349 3.35856C107.644 3.18003 107.965 3.05059 108.313 2.97025C108.67 2.88098 109.036 2.83635 109.411 2.83635C110.438 2.83635 111.197 3.13093 111.688 3.72009C112.179 4.30032 112.424 5.12604 112.424 6.19724V10H110.737L110.71 9.08948C110.487 9.40191 110.233 9.62954 109.947 9.77237C109.67 9.9152 109.402 10.0045 109.144 10.0402C108.885 10.0759 108.675 10.0937 108.514 10.0937ZM108.943 8.60744C109.255 8.60744 109.541 8.54495 109.8 8.41998C110.059 8.29501 110.264 8.1254 110.416 7.91116C110.567 7.69692 110.643 7.4559 110.643 7.1881V7.01403H109.358C109.17 7.01403 108.987 7.02296 108.809 7.04081C108.639 7.05866 108.483 7.09437 108.34 7.14793C108.206 7.19256 108.099 7.26844 108.019 7.37556C107.938 7.48268 107.898 7.62551 107.898 7.80404C107.898 7.98257 107.943 8.13433 108.032 8.2593C108.13 8.37535 108.26 8.46461 108.421 8.5271C108.581 8.58066 108.755 8.60744 108.943 8.60744ZM116.767 10.0937C115.973 10.0937 115.384 9.87056 115 9.42423C114.625 8.9779 114.437 8.36642 114.437 7.5898V4.61722H113.38V2.94347H114.437V1.04209H116.312V2.94347H118.454V4.61722H116.312V7.20149C116.312 7.43358 116.339 7.63443 116.392 7.80404C116.455 7.97365 116.553 8.10755 116.687 8.20574C116.83 8.29501 117.022 8.33964 117.263 8.33964C117.477 8.33964 117.656 8.3084 117.798 8.24591C117.95 8.1745 118.075 8.09862 118.173 8.01828L118.762 9.4644C118.575 9.61615 118.365 9.74113 118.133 9.83932C117.91 9.92859 117.682 9.99107 117.45 10.0268C117.218 10.0714 116.99 10.0937 116.767 10.0937ZM125.553 10.0937C125.231 10.0937 124.919 10.0536 124.615 9.97322C124.321 9.88395 124.057 9.75005 123.825 9.57152C123.593 9.39299 123.41 9.16982 123.276 8.90202C123.142 8.63422 123.075 8.32179 123.075 7.96472C123.075 7.48268 123.174 7.09883 123.37 6.81318C123.566 6.5186 123.83 6.29543 124.16 6.14368C124.49 5.99193 124.87 5.88927 125.298 5.83571C125.736 5.78215 126.186 5.75537 126.651 5.75537H127.668C127.668 5.4965 127.619 5.26887 127.521 5.07248C127.432 4.86717 127.293 4.71095 127.106 4.60383C126.918 4.48778 126.677 4.42976 126.383 4.42976C126.195 4.42976 126.012 4.45654 125.834 4.5101C125.664 4.55473 125.521 4.62168 125.405 4.71095C125.289 4.80022 125.213 4.91626 125.178 5.05909H123.276C123.33 4.66632 123.455 4.33157 123.651 4.05484C123.848 3.76919 124.093 3.53709 124.388 3.35856C124.682 3.18003 125.004 3.05059 125.352 2.97025C125.709 2.88098 126.075 2.83635 126.45 2.83635C127.476 2.83635 128.235 3.13093 128.726 3.72009C129.217 4.30032 129.462 5.12604 129.462 6.19724V10H127.775L127.748 9.08948C127.525 9.40191 127.271 9.62954 126.985 9.77237C126.709 9.9152 126.441 10.0045 126.182 10.0402C125.923 10.0759 125.713 10.0937 125.553 10.0937ZM125.981 8.60744C126.293 8.60744 126.579 8.54495 126.838 8.41998C127.097 8.29501 127.302 8.1254 127.454 7.91116C127.606 7.69692 127.682 7.4559 127.682 7.1881V7.01403H126.396C126.209 7.01403 126.026 7.02296 125.847 7.04081C125.677 7.05866 125.521 7.09437 125.378 7.14793C125.245 7.19256 125.137 7.26844 125.057 7.37556C124.977 7.48268 124.937 7.62551 124.937 7.80404C124.937 7.98257 124.981 8.13433 125.07 8.2593C125.169 8.37535 125.298 8.46461 125.459 8.5271C125.619 8.58066 125.794 8.60744 125.981 8.60744ZM130.927 10V0.51988H132.801V10H130.927ZM134.287 10V0.51988H136.162V10H134.287Z" fill="#F49D0C"/>
</svg>
