<svg width="134" height="12" viewBox="0 0 134 12" fill="none" xmlns="http://www.w3.org/2000/svg">
<path d="M0.753495 11V1.51988H2.70843L7.08697 7.93369V1.51988H9.00174V11H7.10036L2.66826 4.65314V11H0.753495ZM14.0314 11.0937C13.3172 11.0937 12.6924 10.9509 12.1568 10.6652C11.6212 10.3707 11.2061 9.95558 10.9115 9.41998C10.6169 8.87545 10.4696 8.23273 10.4696 7.49182C10.4696 6.73305 10.6169 6.08141 10.9115 5.53688C11.215 4.98343 11.6345 4.55941 12.1701 4.26483C12.7057 3.97025 13.3217 3.82296 14.018 3.82296C14.7321 3.82296 15.3525 3.97471 15.8792 4.27822C16.4058 4.58173 16.8165 5.00574 17.1111 5.55027C17.4056 6.0948 17.5529 6.74644 17.5529 7.50521C17.5529 8.24612 17.4056 8.88884 17.1111 9.43337C16.8254 9.96897 16.4192 10.3796 15.8926 10.6652C15.3748 10.9509 14.7544 11.0937 14.0314 11.0937ZM14.0046 9.37981C14.4152 9.37981 14.7455 9.29054 14.9954 9.11201C15.2454 8.93348 15.4239 8.70138 15.531 8.41573C15.6471 8.12115 15.7051 7.81318 15.7051 7.49182C15.7051 7.17046 15.6471 6.86249 15.531 6.56791C15.4239 6.27333 15.2454 6.03231 14.9954 5.84485C14.7544 5.64846 14.4241 5.55027 14.0046 5.55027C13.6029 5.55027 13.2771 5.64846 13.0271 5.84485C12.7772 6.03231 12.5942 6.27333 12.4781 6.56791C12.371 6.86249 12.3174 7.17046 12.3174 7.49182C12.3174 7.82211 12.371 8.13008 12.4781 8.41573C12.5942 8.70138 12.7772 8.93348 13.0271 9.11201C13.2771 9.29054 13.6029 9.37981 14.0046 9.37981ZM21.632 11.0937C20.8375 11.0937 20.2483 10.8706 19.8645 10.4242C19.4896 9.9779 19.3021 9.36642 19.3021 8.5898V5.61722H18.2443V3.94347H19.3021V2.04209H21.1767V3.94347H23.3191V5.61722H21.1767V8.20149C21.1767 8.43358 21.2035 8.63443 21.257 8.80404C21.3195 8.97365 21.4177 9.10755 21.5516 9.20574C21.6944 9.29501 21.8864 9.33964 22.1274 9.33964C22.3416 9.33964 22.5202 9.3084 22.663 9.24591C22.8147 9.1745 22.9397 9.09862 23.0379 9.01828L23.6271 10.4644C23.4396 10.6162 23.2298 10.7411 22.9977 10.8393C22.7746 10.9286 22.5469 10.9911 22.3148 11.0268C22.0828 11.0714 21.8551 11.0937 21.632 11.0937ZM28.181 11V3.94347H30.0556V11H28.181ZM29.1183 3.2338C28.7702 3.2338 28.489 3.13114 28.2748 2.92583C28.0605 2.71159 27.9534 2.43933 27.9534 2.10904C27.9534 1.7609 28.065 1.47971 28.2881 1.26547C28.5113 1.05123 28.7925 0.944109 29.1317 0.944109C29.4442 0.944109 29.712 1.05123 29.9351 1.26547C30.1672 1.47078 30.2833 1.74751 30.2833 2.09565C30.2833 2.43486 30.1717 2.71159 29.9485 2.92583C29.7343 3.13114 29.4575 3.2338 29.1183 3.2338ZM31.5416 11V3.94347H33.2957L33.3894 4.76026C33.5858 4.51924 33.809 4.33178 34.0589 4.19788C34.3178 4.05505 34.5767 3.95686 34.8355 3.9033C35.1033 3.84974 35.3444 3.82296 35.5586 3.82296C36.237 3.82296 36.7637 3.97025 37.1386 4.26483C37.5225 4.55941 37.7947 4.95665 37.9554 5.45654C38.125 5.94751 38.2098 6.4965 38.2098 7.10351V11H36.3352V7.34453C36.3352 7.13029 36.3174 6.91605 36.2817 6.70181C36.246 6.48757 36.179 6.29118 36.0808 6.11265C35.9915 5.93412 35.8621 5.79129 35.6925 5.68417C35.5229 5.57705 35.2997 5.52349 35.023 5.52349C34.6659 5.52349 34.3669 5.61276 34.1259 5.79129C33.8849 5.96982 33.7063 6.21084 33.5903 6.51435C33.4742 6.81786 33.4162 7.15261 33.4162 7.5186V11H31.5416ZM42.849 11C42.2599 11 41.7645 10.9286 41.3628 10.7858C40.97 10.6429 40.6709 10.4019 40.4656 10.0627C40.2692 9.71456 40.171 9.24145 40.171 8.64336V5.61722H39.1266V3.94347H40.171V2.05548H42.0456V3.94347H43.5855V5.61722H42.0456V8.37556C42.0456 8.67014 42.0992 8.90223 42.2063 9.07184C42.3134 9.24145 42.5545 9.32625 42.9294 9.32625H43.5185V11H42.849ZM44.5524 11V3.94347H46.2395L46.36 4.78704C46.5386 4.51924 46.7394 4.31839 46.9626 4.18449C47.1858 4.04166 47.4179 3.94793 47.6589 3.9033C47.8999 3.84974 48.1454 3.82296 48.3953 3.82296C48.5114 3.82296 48.6185 3.82742 48.7167 3.83635C48.8149 3.83635 48.8863 3.83635 48.9309 3.83635V5.644H48.4891C48.0695 5.644 47.7035 5.71541 47.3911 5.85824C47.0786 6.00107 46.8376 6.22423 46.668 6.52774C46.5073 6.83125 46.427 7.21956 46.427 7.69267V11H44.5524ZM52.9722 11.0937C52.2581 11.0937 51.6332 10.9509 51.0976 10.6652C50.562 10.3707 50.1469 9.95558 49.8523 9.41998C49.5577 8.87545 49.4105 8.23273 49.4105 7.49182C49.4105 6.73305 49.5577 6.08141 49.8523 5.53688C50.1558 4.98343 50.5754 4.55941 51.111 4.26483C51.6466 3.97025 52.2625 3.82296 52.9588 3.82296C53.6729 3.82296 54.2933 3.97471 54.82 4.27822C55.3467 4.58173 55.7573 5.00574 56.0519 5.55027C56.3465 6.0948 56.4938 6.74644 56.4938 7.50521C56.4938 8.24612 56.3465 8.88884 56.0519 9.43337C55.7662 9.96897 55.3601 10.3796 54.8334 10.6652C54.3157 10.9509 53.6953 11.0937 52.9722 11.0937ZM52.9454 9.37981C53.356 9.37981 53.6863 9.29054 53.9363 9.11201C54.1862 8.93348 54.3648 8.70138 54.4719 8.41573C54.5879 8.12115 54.6459 7.81318 54.6459 7.49182C54.6459 7.17046 54.5879 6.86249 54.4719 6.56791C54.3648 6.27333 54.1862 6.03231 53.9363 5.84485C53.6953 5.64846 53.365 5.55027 52.9454 5.55027C52.5437 5.55027 52.2179 5.64846 51.9679 5.84485C51.718 6.03231 51.535 6.27333 51.419 6.56791C51.3118 6.86249 51.2583 7.17046 51.2583 7.49182C51.2583 7.82211 51.3118 8.13008 51.419 8.41573C51.535 8.70138 51.718 8.93348 51.9679 9.11201C52.2179 9.29054 52.5437 9.37981 52.9454 9.37981ZM59.4346 11L56.9575 3.94347H59.0062L60.6933 9.47354L62.3671 3.94347H64.4291L61.952 11H59.4346ZM68.3874 11.0937C67.6465 11.0937 67.0172 10.9464 66.4994 10.6519C65.9817 10.3573 65.5845 9.94219 65.3077 9.40659C65.031 8.86206 64.8926 8.22827 64.8926 7.50521C64.8926 6.77322 65.0355 6.13497 65.3211 5.59044C65.6068 5.03699 66.0085 4.60404 66.5262 4.29161C67.0529 3.97918 67.6733 3.82296 68.3874 3.82296C68.923 3.82296 69.3917 3.91223 69.7934 4.09076C70.204 4.26929 70.5477 4.51924 70.8244 4.8406C71.1101 5.16196 71.3198 5.53688 71.4537 5.96536C71.5966 6.38491 71.6635 6.84017 71.6546 7.33114C71.6546 7.45611 71.6501 7.57662 71.6412 7.69267C71.6323 7.80872 71.6144 7.92476 71.5876 8.04081H66.7539C66.7806 8.30861 66.8565 8.55409 66.9815 8.77726C67.1065 9.00043 67.2805 9.17896 67.5037 9.31286C67.7358 9.43783 68.0214 9.50032 68.3607 9.50032C68.5838 9.50032 68.7891 9.478 68.9766 9.43337C69.1641 9.37981 69.3247 9.29947 69.4586 9.19235C69.5925 9.08523 69.6863 8.96026 69.7398 8.81743H71.5876C71.4716 9.3441 71.2529 9.77705 70.9315 10.1163C70.6191 10.4555 70.2397 10.7054 69.7934 10.8661C69.3471 11.0179 68.8784 11.0937 68.3874 11.0937ZM66.794 6.72859H69.8603C69.8514 6.48757 69.7889 6.2644 69.6729 6.05909C69.5658 5.84485 69.4006 5.67524 69.1774 5.55027C68.9632 5.41637 68.6865 5.34942 68.3473 5.34942C68.0081 5.34942 67.7224 5.41637 67.4903 5.55027C67.2671 5.68417 67.0975 5.85824 66.9815 6.07248C66.8744 6.27779 66.8119 6.4965 66.794 6.72859ZM72.8623 11V3.94347H74.5494L74.67 4.78704C74.8485 4.51924 75.0493 4.31839 75.2725 4.18449C75.4957 4.04166 75.7278 3.94793 75.9688 3.9033C76.2098 3.84974 76.4553 3.82296 76.7052 3.82296C76.8213 3.82296 76.9284 3.82742 77.0266 3.83635C77.1248 3.83635 77.1962 3.83635 77.2408 3.83635V5.644H76.799C76.3794 5.644 76.0134 5.71541 75.701 5.85824C75.3886 6.00107 75.1475 6.22423 74.9779 6.52774C74.8172 6.83125 74.7369 7.21956 74.7369 7.69267V11H72.8623ZM80.9978 11.0937C80.2033 11.0937 79.6141 10.8706 79.2303 10.4242C78.8554 9.9779 78.6679 9.36642 78.6679 8.5898V5.61722H77.6101V3.94347H78.6679V2.04209H80.5425V3.94347H82.6849V5.61722H80.5425V8.20149C80.5425 8.43358 80.5693 8.63443 80.6229 8.80404C80.6853 8.97365 80.7835 9.10755 80.9174 9.20574C81.0603 9.29501 81.2522 9.33964 81.4932 9.33964C81.7074 9.33964 81.886 9.3084 82.0288 9.24591C82.1806 9.1745 82.3055 9.09862 82.4037 9.01828L82.9929 10.4644C82.8054 10.6162 82.5957 10.7411 82.3636 10.8393C82.1404 10.9286 81.9128 10.9911 81.6807 11.0268C81.4486 11.0714 81.2209 11.0937 80.9978 11.0937ZM86.9948 11.0937C86.2539 11.0937 85.6246 10.9464 85.1068 10.6519C84.5891 10.3573 84.1919 9.94219 83.9151 9.40659C83.6384 8.86206 83.5 8.22827 83.5 7.50521C83.5 6.77322 83.6429 6.13497 83.9285 5.59044C84.2142 5.03699 84.6159 4.60404 85.1336 4.29161C85.6603 3.97918 86.2807 3.82296 86.9948 3.82296C87.5304 3.82296 87.9991 3.91223 88.4008 4.09076C88.8114 4.26929 89.1551 4.51924 89.4318 4.8406C89.7175 5.16196 89.9272 5.53688 90.0611 5.96536C90.204 6.38491 90.2709 6.84017 90.262 7.33114C90.262 7.45611 90.2575 7.57662 90.2486 7.69267C90.2397 7.80872 90.2218 7.92476 90.195 8.04081H85.3612C85.388 8.30861 85.4639 8.55409 85.5889 8.77726C85.7139 9.00043 85.8879 9.17896 86.1111 9.31286C86.3432 9.43783 86.6288 9.50032 86.968 9.50032C87.1912 9.50032 87.3965 9.478 87.584 9.43337C87.7714 9.37981 87.9321 9.29947 88.066 9.19235C88.1999 9.08523 88.2937 8.96026 88.3472 8.81743H90.195C90.079 9.3441 89.8603 9.77705 89.5389 10.1163C89.2265 10.4555 88.8471 10.7054 88.4008 10.8661C87.9544 11.0179 87.4858 11.0937 86.9948 11.0937ZM85.4014 6.72859H88.4677C88.4588 6.48757 88.3963 6.2644 88.2803 6.05909C88.1731 5.84485 88.008 5.67524 87.7848 5.55027C87.5706 5.41637 87.2939 5.34942 86.9547 5.34942C86.6154 5.34942 86.3298 5.41637 86.0977 5.55027C85.8745 5.68417 85.7049 5.85824 85.5889 6.07248C85.4818 6.27779 85.4193 6.4965 85.4014 6.72859ZM94.3753 11.0937C93.6612 11.0937 93.0676 10.933 92.5945 10.6117C92.1303 10.2814 91.7821 9.844 91.55 9.29947C91.318 8.74602 91.2019 8.13454 91.2019 7.46504C91.2019 6.75983 91.3269 6.13497 91.5768 5.59044C91.8268 5.03699 92.1972 4.60404 92.6882 4.29161C93.1792 3.97918 93.7906 3.82296 94.5226 3.82296C94.7726 3.82296 95.0181 3.8542 95.2591 3.91669C95.509 3.97025 95.7367 4.05505 95.942 4.1711C96.1562 4.27822 96.3392 4.42105 96.491 4.59958V1.51988H98.3656V11H96.5445L96.5177 10.21C96.3571 10.4153 96.1607 10.5849 95.9286 10.7188C95.7054 10.8438 95.4644 10.9375 95.2055 11C94.9466 11.0625 94.6699 11.0937 94.3753 11.0937ZM94.7503 9.40659C95.152 9.40659 95.4778 9.31286 95.7277 9.1254C95.9866 8.93794 96.1785 8.69692 96.3035 8.40234C96.4285 8.10776 96.491 7.79086 96.491 7.45165C96.491 7.10351 96.4285 6.78661 96.3035 6.50096C96.1874 6.20638 96 5.97429 95.7411 5.80468C95.4912 5.62615 95.1609 5.53688 94.7503 5.53688C94.3396 5.53688 94.0093 5.63061 93.7594 5.81807C93.5094 6.00553 93.3309 6.25101 93.2238 6.55452C93.1256 6.8491 93.0765 7.166 93.0765 7.50521C93.0765 7.75516 93.1033 7.99618 93.1568 8.22827C93.2193 8.45144 93.3175 8.65229 93.4514 8.83082C93.5853 9.00935 93.7594 9.15218 93.9736 9.2593C94.1879 9.35749 94.4467 9.40659 94.7503 9.40659ZM105.854 11.0937C105.532 11.0937 105.22 11.0536 104.916 10.9732C104.622 10.884 104.358 10.7501 104.126 10.5715C103.894 10.393 103.711 10.1698 103.577 9.90202C103.443 9.63422 103.376 9.32179 103.376 8.96472C103.376 8.48268 103.475 8.09883 103.671 7.81318C103.867 7.5186 104.131 7.29543 104.461 7.14368C104.791 6.99193 105.171 6.88927 105.599 6.83571C106.037 6.78215 106.487 6.75537 106.952 6.75537H107.969C107.969 6.4965 107.92 6.26887 107.822 6.07248C107.733 5.86717 107.594 5.71095 107.407 5.60383C107.219 5.48778 106.978 5.42976 106.684 5.42976C106.496 5.42976 106.313 5.45654 106.135 5.5101C105.965 5.55473 105.822 5.62168 105.706 5.71095C105.59 5.80022 105.514 5.91626 105.479 6.05909H103.577C103.631 5.66632 103.756 5.33157 103.952 5.05484C104.149 4.76919 104.394 4.53709 104.689 4.35856C104.983 4.18003 105.305 4.05059 105.653 3.97025C106.01 3.88098 106.376 3.83635 106.751 3.83635C107.777 3.83635 108.536 4.13093 109.027 4.72009C109.518 5.30032 109.763 6.12604 109.763 7.19724V11H108.076L108.05 10.0895C107.826 10.4019 107.572 10.6295 107.286 10.7724C107.01 10.9152 106.742 11.0045 106.483 11.0402C106.224 11.0759 106.014 11.0937 105.854 11.0937ZM106.282 9.60744C106.595 9.60744 106.88 9.54495 107.139 9.41998C107.398 9.29501 107.603 9.1254 107.755 8.91116C107.907 8.69692 107.983 8.4559 107.983 8.1881V8.01403H106.697C106.51 8.01403 106.327 8.02296 106.148 8.04081C105.979 8.05866 105.822 8.09437 105.68 8.14793C105.546 8.19256 105.439 8.26844 105.358 8.37556C105.278 8.48268 105.238 8.62551 105.238 8.80404C105.238 8.98257 105.282 9.13433 105.372 9.2593C105.47 9.37535 105.599 9.46461 105.76 9.5271C105.921 9.58066 106.095 9.60744 106.282 9.60744ZM114.107 11.0937C113.312 11.0937 112.723 10.8706 112.339 10.4242C111.964 9.9779 111.777 9.36642 111.777 8.5898V5.61722H110.719V3.94347H111.777V2.04209H113.651V3.94347H115.794V5.61722H113.651V8.20149C113.651 8.43358 113.678 8.63443 113.732 8.80404C113.794 8.97365 113.892 9.10755 114.026 9.20574C114.169 9.29501 114.361 9.33964 114.602 9.33964C114.816 9.33964 114.995 9.3084 115.138 9.24591C115.289 9.1745 115.414 9.09862 115.513 9.01828L116.102 10.4644C115.914 10.6162 115.705 10.7411 115.472 10.8393C115.249 10.9286 115.022 10.9911 114.79 11.0268C114.557 11.0714 114.33 11.0937 114.107 11.0937ZM122.892 11.0937C122.57 11.0937 122.258 11.0536 121.955 10.9732C121.66 10.884 121.397 10.7501 121.165 10.5715C120.932 10.393 120.749 10.1698 120.616 9.90202C120.482 9.63422 120.415 9.32179 120.415 8.96472C120.415 8.48268 120.513 8.09883 120.709 7.81318C120.906 7.5186 121.169 7.29543 121.499 7.14368C121.83 6.99193 122.209 6.88927 122.637 6.83571C123.075 6.78215 123.526 6.75537 123.99 6.75537H125.007C125.007 6.4965 124.958 6.26887 124.86 6.07248C124.771 5.86717 124.633 5.71095 124.445 5.60383C124.258 5.48778 124.017 5.42976 123.722 5.42976C123.535 5.42976 123.352 5.45654 123.173 5.5101C123.003 5.55473 122.861 5.62168 122.745 5.71095C122.629 5.80022 122.553 5.91626 122.517 6.05909H120.616C120.669 5.66632 120.794 5.33157 120.99 5.05484C121.187 4.76919 121.432 4.53709 121.727 4.35856C122.021 4.18003 122.343 4.05059 122.691 3.97025C123.048 3.88098 123.414 3.83635 123.789 3.83635C124.816 3.83635 125.574 4.13093 126.065 4.72009C126.556 5.30032 126.802 6.12604 126.802 7.19724V11H125.115L125.088 10.0895C124.865 10.4019 124.61 10.6295 124.325 10.7724C124.048 10.9152 123.78 11.0045 123.521 11.0402C123.262 11.0759 123.053 11.0937 122.892 11.0937ZM123.32 9.60744C123.633 9.60744 123.918 9.54495 124.177 9.41998C124.436 9.29501 124.641 9.1254 124.793 8.91116C124.945 8.69692 125.021 8.4559 125.021 8.1881V8.01403H123.735C123.548 8.01403 123.365 8.02296 123.186 8.04081C123.017 8.05866 122.861 8.09437 122.718 8.14793C122.584 8.19256 122.477 8.26844 122.396 8.37556C122.316 8.48268 122.276 8.62551 122.276 8.80404C122.276 8.98257 122.321 9.13433 122.41 9.2593C122.508 9.37535 122.637 9.46461 122.798 9.5271C122.959 9.58066 123.133 9.60744 123.32 9.60744ZM128.266 11V1.51988H130.141V11H128.266ZM131.627 11V1.51988H133.501V11H131.627Z" fill="#409AF0"/>
</svg>
