<svg width="63" height="63" viewBox="0 0 63 63" fill="none" xmlns="http://www.w3.org/2000/svg">
<g clip-path="url(#clip0_594_366)">
<path fill-rule="evenodd" clip-rule="evenodd" d="M29.6543 0.117627C25.1754 0.401988 21.2069 1.48788 17.1977 3.5259C11.3639 6.49158 6.4916 11.3639 3.52592 17.1976C1.16453 21.8429 0.112724 26.2504 0.112724 31.5C0.112724 36.7495 1.16453 41.1571 3.52592 45.8023C6.48926 51.6316 11.3684 56.5107 17.1977 59.4741C21.9201 61.8747 26.2353 62.8854 31.8692 62.9104C34.7044 62.923 35.9175 62.7936 38.5902 62.1942C48.1814 60.0432 56.5199 53.0941 60.4119 44.0089C63.8733 35.9287 63.867 27.0598 60.3941 18.9492C57.3188 11.7668 51.2358 5.68365 44.0508 2.60551C39.3588 0.595418 34.7297 -0.20451 29.6543 0.117627ZM28.9776 15.8006C26.2982 16.3271 24.2067 17.6955 23.3795 19.4631C22.7237 20.8644 22.7355 21.9504 23.4147 22.724C23.9288 23.3096 24.6323 23.619 25.4576 23.6223C26.0928 23.6249 26.1453 23.5995 26.688 23.0269C26.9998 22.698 27.4967 22.142 27.7922 21.7916C28.4619 20.9975 29.0151 20.7105 30.2222 20.531C32.3706 20.2114 34.1802 21.0473 34.5837 22.5455C34.9648 23.9604 34.1001 25.5391 32.1599 26.971C30.4263 28.2504 29.4941 29.2778 28.9337 30.5264C28.4012 31.7132 28.2475 32.5188 28.2432 34.1455C28.2384 35.9473 28.4539 36.5055 29.2822 36.837C29.9676 37.1112 31.2997 37.0954 31.9307 36.8057C32.7748 36.4181 32.8844 36.2058 32.9877 34.7595C33.1541 32.4272 33.3792 31.9337 34.9021 30.5618C38.4573 27.3592 39.5441 25.7992 39.8944 23.3956C40.1471 21.6619 39.5891 19.8212 38.3903 18.4334C37.4624 17.3593 35.6692 16.3786 33.822 15.9349C32.6968 15.6647 30.0438 15.5911 28.9776 15.8006ZM0.019455 31.5C0.019455 31.6692 0.0473866 31.7385 0.0814706 31.6538C0.115678 31.5693 0.115678 31.4308 0.0814706 31.3462C0.0473866 31.2617 0.019455 31.3308 0.019455 31.5ZM29.9693 39.887C28.4072 40.117 27.1027 41.9528 27.3877 43.5198C27.8704 46.1737 30.9456 47.181 32.8255 45.3011C34.3125 43.8142 33.9833 41.35 32.1546 40.2784C31.4843 39.8855 30.8054 39.7639 29.9693 39.887Z" fill="url(#paint0_linear_594_366)"/>
</g>
<defs>
<linearGradient id="paint0_linear_594_366" x1="46.3235" y1="68.5588" x2="50.0294" y2="-14.8235" gradientUnits="userSpaceOnUse">
<stop stop-color="#FFD85D"/>
<stop offset="1" stop-color="#F49D0C"/>
</linearGradient>
<clipPath id="clip0_594_366">
<rect width="63" height="63" fill="white"/>
</clipPath>
</defs>
</svg>
